{"glyphs":{"0":{"ha":833,"x_min":81,"x_max":779,"o":"m 408 -11 q 164 99 247 -11 q 81 421 81 210 q 177 849 81 697 q 449 1000 274 1000 q 695 890 611 1000 q 779 568 779 779 q 682 140 779 292 q 408 -11 585 -11 m 413 85 q 599 213 535 85 q 663 586 663 340 q 610 826 663 749 q 447 904 557 904 q 260 776 324 904 q 196 403 196 649 q 249 163 196 240 q 413 85 301 85 z "},"1":{"ha":833,"x_min":151,"x_max":710,"o":"m 710 96 l 701 0 l 151 0 l 160 96 l 376 96 l 436 846 l 222 718 l 232 828 l 497 989 l 563 989 l 492 96 l 710 96 z "},"2":{"ha":833,"x_min":89,"x_max":743,"o":"m 246 96 l 732 96 l 725 0 l 89 0 l 94 86 l 474 467 q 593 616 557 551 q 629 747 629 681 q 583 863 629 821 q 457 904 538 904 q 310 876 381 904 q 167 790 240 849 l 132 878 q 283 968 196 936 q 464 1000 369 1000 q 667 933 592 1000 q 743 749 743 865 q 699 581 743 661 q 550 396 656 501 l 246 96 z "},"3":{"ha":833,"x_min":57,"x_max":743,"o":"m 561 506 q 684 426 640 482 q 728 286 728 371 q 686 131 728 197 q 568 27 644 64 q 389 -10 492 -10 q 207 22 292 -10 q 57 113 122 53 l 107 200 q 244 114 175 142 q 392 86 314 86 q 556 138 497 86 q 615 283 615 189 q 399 454 615 454 l 286 454 l 294 550 l 396 550 q 567 604 504 550 q 629 751 629 658 q 582 863 629 821 q 454 904 535 904 q 167 790 306 904 l 132 878 q 283 968 194 936 q 464 1000 371 1000 q 667 935 590 1000 q 743 760 743 869 q 694 604 743 672 q 561 506 646 536 z "},"4":{"ha":833,"x_min":58,"x_max":786,"o":"m 778 215 l 626 215 l 610 0 l 497 0 l 514 215 l 58 215 l 64 301 l 593 989 l 689 989 l 635 310 l 786 310 l 778 215 m 521 310 l 560 793 l 188 310 l 521 310 z "},"5":{"ha":833,"x_min":90,"x_max":779,"o":"m 293 894 l 265 546 q 359 601 306 582 q 471 621 413 621 q 626 585 558 621 q 730 483 693 549 q 767 333 767 418 q 723 153 767 231 q 600 33 679 75 q 418 -10 521 -10 q 240 22 324 -10 q 90 113 156 53 l 140 200 q 276 114 208 142 q 419 86 344 86 q 589 151 525 86 q 653 325 653 217 q 597 470 653 415 q 450 525 542 525 q 219 410 303 525 l 140 410 l 185 989 l 779 989 l 771 894 l 293 894 z "},"6":{"ha":833,"x_min":83,"x_max":808,"o":"m 461 621 q 620 583 551 621 q 726 477 689 546 q 764 319 764 408 q 722 150 764 225 q 606 32 679 75 q 439 -11 532 -11 q 176 99 269 -11 q 83 414 83 210 q 133 724 83 592 q 276 928 183 857 q 494 1000 369 1000 q 663 969 582 1000 q 808 878 744 938 l 758 790 q 628 875 696 846 q 497 904 561 904 q 292 799 369 904 q 200 493 215 693 l 197 460 q 303 578 233 535 q 461 621 374 621 m 436 85 q 592 149 532 85 q 651 317 651 214 q 593 468 651 411 q 440 525 535 525 q 281 460 343 525 q 219 294 219 396 q 279 142 219 200 q 436 85 339 85 z "},"7":{"ha":833,"x_min":135,"x_max":794,"o":"m 794 989 l 788 904 l 261 0 l 139 0 l 660 893 l 135 893 l 142 989 l 794 989 z "},"8":{"ha":833,"x_min":53,"x_max":781,"o":"m 578 507 q 715 419 665 482 q 765 268 765 356 q 719 120 765 183 q 590 24 674 57 q 396 -10 507 -10 q 144 60 236 -10 q 53 249 53 131 q 113 415 53 346 q 279 508 172 483 q 159 594 203 535 q 115 736 115 654 q 208 930 115 860 q 463 1000 300 1000 q 693 934 606 1000 q 781 756 781 868 q 726 601 781 667 q 578 507 672 535 m 228 725 q 282 599 228 647 q 432 540 336 551 q 603 607 542 553 q 665 743 665 661 q 611 863 665 821 q 458 906 557 906 q 287 859 346 906 q 228 725 228 813 m 397 85 q 585 134 517 85 q 653 272 653 183 q 596 403 653 354 q 425 461 539 451 q 231 398 294 449 q 168 263 168 347 q 228 131 168 176 q 397 85 289 86 z "},"9":{"ha":833,"x_min":50,"x_max":778,"o":"m 419 1000 q 685 890 592 1000 q 778 575 778 779 q 727 265 778 397 q 583 60 676 132 q 365 -11 489 -11 q 197 20 279 -11 q 50 111 115 51 l 101 199 q 363 85 231 85 q 567 191 489 85 q 658 496 644 297 l 661 529 q 555 412 625 456 q 399 368 485 368 q 240 406 308 368 q 133 513 171 444 q 96 669 96 581 q 138 839 96 764 q 253 957 179 914 q 419 1000 326 1000 m 418 464 q 533 493 482 464 q 612 575 583 522 q 640 694 640 628 q 581 846 640 788 q 425 904 521 904 q 268 840 328 904 q 208 672 208 775 q 266 521 208 578 q 418 464 324 464 z "},"\u0000":{"ha":0,"x_min":0,"x_max":0,"o":""},"\r":{"ha":363,"x_min":0,"x_max":0,"o":""}," ":{"ha":363,"x_min":0,"x_max":0,"o":""},"A":{"ha":1019,"x_min":-1,"x_max":968,"o":"m 764 254 l 247 254 l 119 0 l -1 0 l 511 989 l 610 989 l 968 0 l 853 0 l 764 254 m 731 349 l 551 857 l 296 349 l 731 349 z "},"Á":{"ha":1019,"x_min":-1,"x_max":968,"o":"m 764 254 l 247 254 l 119 0 l -1 0 l 511 989 l 610 989 l 968 0 l 853 0 l 764 254 m 731 349 l 551 857 l 296 349 l 731 349 m 528 1074 l 682 1286 l 814 1286 l 606 1074 l 528 1074 z "},"Ă":{"ha":1019,"x_min":-1,"x_max":968,"o":"m 764 254 l 247 254 l 119 0 l -1 0 l 511 989 l 610 989 l 968 0 l 853 0 l 764 254 m 731 349 l 551 857 l 296 349 l 731 349 m 571 1090 q 434 1128 493 1090 q 350 1239 375 1165 l 425 1269 q 488 1193 451 1215 q 575 1171 524 1171 q 664 1192 625 1171 q 738 1269 703 1214 l 808 1239 q 710 1126 771 1163 q 571 1090 649 1090 z "},"Ắ":{"ha":1019,"x_min":-1,"x_max":968,"o":"m 764 254 l 247 254 l 119 0 l -1 0 l 511 989 l 610 989 l 968 0 l 853 0 l 764 254 m 731 349 l 551 857 l 296 349 l 731 349 m 692 1415 l 819 1415 l 615 1218 l 540 1218 l 692 1415 m 569 1067 q 433 1103 492 1067 q 349 1215 375 1140 l 417 1243 q 483 1165 444 1188 q 574 1142 521 1142 q 665 1165 624 1142 q 742 1243 707 1188 l 807 1215 q 708 1102 769 1138 q 569 1067 646 1067 z "},"Ặ":{"ha":1019,"x_min":-1,"x_max":968,"o":"m 764 254 l 247 254 l 119 0 l -1 0 l 511 989 l 610 989 l 968 0 l 853 0 l 764 254 m 731 349 l 551 857 l 296 349 l 731 349 m 539 -132 l 528 -256 l 399 -256 l 410 -132 l 539 -132 m 571 1090 q 434 1128 493 1090 q 350 1239 375 1165 l 425 1269 q 488 1193 451 1215 q 575 1171 524 1171 q 664 1192 625 1171 q 738 1269 703 1214 l 808 1239 q 710 1126 771 1163 q 571 1090 649 1090 z "},"Ằ":{"ha":1019,"x_min":-1,"x_max":968,"o":"m 764 254 l 247 254 l 119 0 l -1 0 l 511 989 l 610 989 l 968 0 l 853 0 l 764 254 m 731 349 l 551 857 l 296 349 l 731 349 m 375 1415 l 488 1415 l 615 1218 l 540 1218 l 375 1415 m 569 1067 q 433 1103 492 1067 q 349 1215 375 1140 l 417 1243 q 483 1165 444 1188 q 574 1142 521 1142 q 665 1165 624 1142 q 742 1243 707 1188 l 807 1215 q 708 1102 769 1138 q 569 1067 646 1067 z "},"Ẳ":{"ha":1019,"x_min":-1,"x_max":968,"o":"m 764 254 l 247 254 l 119 0 l -1 0 l 511 989 l 610 989 l 968 0 l 853 0 l 764 254 m 731 349 l 551 857 l 296 349 l 731 349 m 543 1242 q 561 1280 544 1267 q 607 1304 578 1293 q 622 1311 610 1306 q 639 1322 633 1317 q 644 1335 644 1328 q 631 1351 644 1344 q 594 1357 617 1357 q 501 1340 553 1357 l 486 1401 q 603 1424 544 1424 q 699 1401 664 1424 q 735 1344 735 1379 q 717 1301 735 1315 q 665 1269 700 1286 q 631 1251 643 1260 q 617 1231 618 1243 l 615 1218 l 542 1218 l 543 1242 m 569 1067 q 433 1103 492 1067 q 349 1215 375 1140 l 417 1243 q 483 1165 444 1188 q 574 1142 521 1142 q 665 1165 624 1142 q 742 1243 707 1188 l 807 1215 q 708 1102 769 1138 q 569 1067 646 1067 z "},"Ẵ":{"ha":1019,"x_min":-1,"x_max":968,"o":"m 764 254 l 247 254 l 119 0 l -1 0 l 511 989 l 610 989 l 968 0 l 853 0 l 764 254 m 731 349 l 551 857 l 296 349 l 731 349 m 686 1278 q 633 1288 658 1278 q 571 1319 608 1299 q 524 1344 542 1336 q 489 1351 507 1351 q 440 1333 458 1351 q 419 1282 422 1314 l 357 1282 q 397 1388 360 1350 q 492 1426 435 1426 q 547 1416 521 1426 q 606 1386 572 1406 q 654 1362 636 1369 q 690 1354 672 1354 q 738 1372 719 1354 q 757 1422 756 1390 l 821 1422 q 780 1316 818 1354 q 686 1278 742 1278 m 569 1067 q 433 1103 492 1067 q 349 1215 375 1140 l 417 1243 q 483 1165 444 1188 q 574 1142 521 1142 q 665 1165 624 1142 q 742 1243 707 1188 l 807 1215 q 708 1102 769 1138 q 569 1067 646 1067 z "},"Â":{"ha":1019,"x_min":-1,"x_max":968,"o":"m 764 254 l 247 254 l 119 0 l -1 0 l 511 989 l 610 989 l 968 0 l 853 0 l 764 254 m 731 349 l 551 857 l 296 349 l 731 349 m 363 1074 l 546 1286 l 621 1286 l 771 1074 l 671 1074 l 582 1218 l 465 1074 l 363 1074 z "},"Ấ":{"ha":1019,"x_min":-1,"x_max":968,"o":"m 764 254 l 247 254 l 119 0 l -1 0 l 511 989 l 610 989 l 968 0 l 853 0 l 764 254 m 731 349 l 551 857 l 296 349 l 731 349 m 838 1415 l 963 1415 l 765 1218 l 697 1218 l 838 1415 m 546 1279 l 621 1279 l 771 1074 l 671 1074 l 581 1213 l 465 1074 l 363 1074 l 546 1279 z "},"Ậ":{"ha":1019,"x_min":-1,"x_max":968,"o":"m 764 254 l 247 254 l 119 0 l -1 0 l 511 989 l 610 989 l 968 0 l 853 0 l 764 254 m 731 349 l 551 857 l 296 349 l 731 349 m 539 -132 l 528 -256 l 399 -256 l 410 -132 l 539 -132 m 363 1074 l 546 1286 l 621 1286 l 771 1074 l 671 1074 l 582 1218 l 465 1074 l 363 1074 z "},"Ầ":{"ha":1019,"x_min":-1,"x_max":968,"o":"m 764 254 l 247 254 l 119 0 l -1 0 l 511 989 l 610 989 l 968 0 l 853 0 l 764 254 m 731 349 l 551 857 l 296 349 l 731 349 m 618 1415 l 729 1415 l 826 1218 l 756 1218 l 618 1415 m 546 1279 l 621 1279 l 771 1074 l 671 1074 l 581 1213 l 465 1074 l 363 1074 l 546 1279 z "},"Ẩ":{"ha":1019,"x_min":-1,"x_max":968,"o":"m 764 254 l 247 254 l 119 0 l -1 0 l 511 989 l 610 989 l 968 0 l 853 0 l 764 254 m 731 349 l 551 857 l 296 349 l 731 349 m 697 1242 q 715 1280 699 1267 q 761 1304 732 1293 q 792 1319 783 1314 q 800 1335 800 1325 q 785 1351 800 1344 q 749 1357 771 1357 q 656 1340 707 1357 l 642 1401 q 757 1424 697 1424 q 853 1401 818 1424 q 889 1344 889 1379 q 872 1301 889 1315 q 819 1269 854 1286 q 785 1251 797 1260 q 771 1231 772 1243 l 769 1218 l 696 1218 l 697 1242 m 546 1279 l 621 1279 l 771 1074 l 671 1074 l 581 1213 l 465 1074 l 363 1074 l 546 1279 z "},"Ẫ":{"ha":1019,"x_min":-1,"x_max":968,"o":"m 764 254 l 247 254 l 119 0 l -1 0 l 511 989 l 610 989 l 968 0 l 853 0 l 764 254 m 731 349 l 551 857 l 296 349 l 731 349 m 358 1300 q 399 1400 361 1363 q 493 1438 438 1438 q 547 1429 522 1438 q 610 1404 571 1421 q 656 1384 638 1390 q 692 1378 674 1378 q 739 1395 721 1378 q 758 1440 757 1413 l 822 1440 q 781 1339 819 1376 q 688 1301 743 1301 q 631 1310 658 1301 q 569 1336 604 1319 q 525 1356 543 1349 q 489 1363 507 1363 q 442 1345 460 1363 q 421 1300 424 1328 l 358 1300 m 546 1279 l 621 1279 l 771 1074 l 671 1074 l 581 1213 l 465 1074 l 363 1074 l 546 1279 z "},"Ȁ":{"ha":1019,"x_min":-1,"x_max":968,"o":"m 764 254 l 247 254 l 119 0 l -1 0 l 511 989 l 610 989 l 968 0 l 853 0 l 764 254 m 731 349 l 551 857 l 296 349 l 731 349 m 333 1286 l 429 1286 l 514 1074 l 453 1074 l 333 1286 m 500 1286 l 596 1286 l 681 1074 l 619 1074 l 500 1286 z "},"Ä":{"ha":1019,"x_min":-1,"x_max":968,"o":"m 764 254 l 247 254 l 119 0 l -1 0 l 511 989 l 610 989 l 968 0 l 853 0 l 764 254 m 731 349 l 551 857 l 296 349 l 731 349 m 524 1240 l 513 1121 l 389 1121 l 397 1240 l 524 1240 m 763 1240 l 754 1121 l 628 1121 l 638 1240 l 763 1240 z "},"Ạ":{"ha":1019,"x_min":-1,"x_max":968,"o":"m 764 254 l 247 254 l 119 0 l -1 0 l 511 989 l 610 989 l 968 0 l 853 0 l 764 254 m 731 349 l 551 857 l 296 349 l 731 349 m 539 -132 l 528 -256 l 399 -256 l 410 -132 l 539 -132 z "},"À":{"ha":1019,"x_min":-1,"x_max":968,"o":"m 764 254 l 247 254 l 119 0 l -1 0 l 511 989 l 610 989 l 968 0 l 853 0 l 764 254 m 731 349 l 551 857 l 296 349 l 731 349 m 361 1286 l 478 1286 l 606 1074 l 528 1074 l 361 1286 z "},"Ả":{"ha":1019,"x_min":-1,"x_max":968,"o":"m 764 254 l 247 254 l 119 0 l -1 0 l 511 989 l 610 989 l 968 0 l 853 0 l 764 254 m 731 349 l 551 857 l 296 349 l 731 349 m 604 1074 l 531 1074 l 532 1099 q 549 1135 533 1122 q 593 1164 564 1149 q 624 1182 614 1174 q 633 1201 633 1190 q 619 1219 633 1213 q 581 1225 606 1225 q 492 1208 540 1225 l 476 1269 q 590 1292 529 1292 q 689 1269 654 1292 q 724 1210 724 1247 q 705 1163 724 1179 q 653 1131 686 1146 q 617 1109 628 1117 q 606 1088 607 1101 l 604 1074 z "},"Ȃ":{"ha":1019,"x_min":-1,"x_max":968,"o":"m 764 254 l 247 254 l 119 0 l -1 0 l 511 989 l 610 989 l 968 0 l 853 0 l 764 254 m 731 349 l 551 857 l 296 349 l 731 349 m 579 1271 q 716 1233 657 1271 q 800 1122 775 1196 l 725 1092 q 663 1168 699 1146 q 575 1190 626 1190 q 486 1168 525 1190 q 413 1092 447 1146 l 342 1122 q 440 1235 379 1199 q 579 1271 501 1271 z "},"Ā":{"ha":1019,"x_min":-1,"x_max":968,"o":"m 764 254 l 247 254 l 119 0 l -1 0 l 511 989 l 610 989 l 968 0 l 853 0 l 764 254 m 731 349 l 551 857 l 296 349 l 731 349 m 369 1224 l 789 1224 l 782 1138 l 361 1138 l 369 1224 z "},"Ą":{"ha":1019,"x_min":-1,"x_max":996,"o":"m 996 -239 q 878 -271 944 -271 q 764 -232 807 -271 q 721 -129 721 -193 q 751 -30 721 -74 q 840 38 782 14 l 764 254 l 247 254 l 119 0 l -1 0 l 511 989 l 610 989 l 968 0 l 942 0 q 844 -33 876 0 q 811 -114 811 -67 q 833 -175 811 -154 q 893 -196 854 -196 q 979 -172 932 -196 l 996 -239 m 731 349 l 551 857 l 296 349 l 731 349 z "},"Å":{"ha":1019,"x_min":-1,"x_max":968,"o":"m 764 254 l 247 254 l 119 0 l -1 0 l 497 963 q 444 1013 464 981 q 424 1085 424 1044 q 465 1183 424 1143 q 567 1224 507 1224 q 667 1183 625 1224 q 708 1085 708 1143 q 684 1006 708 1040 q 621 957 660 972 l 968 0 l 853 0 l 764 254 m 567 1154 q 518 1134 538 1154 q 499 1085 499 1114 q 518 1034 499 1054 q 567 1014 538 1014 q 614 1034 594 1014 q 633 1085 633 1054 q 614 1134 633 1114 q 567 1154 594 1154 m 731 349 l 551 857 l 296 349 l 731 349 z "},"Ǻ":{"ha":1019,"x_min":-1,"x_max":968,"o":"m 764 254 l 247 254 l 119 0 l -1 0 l 497 963 q 444 1013 464 981 q 424 1085 424 1044 q 465 1183 424 1143 q 567 1224 507 1224 q 647 1200 611 1224 l 769 1319 l 904 1319 l 690 1153 q 708 1085 708 1119 q 684 1006 708 1040 q 621 957 660 972 l 968 0 l 853 0 l 764 254 m 567 1154 q 518 1134 538 1154 q 499 1085 499 1114 q 518 1034 499 1054 q 567 1014 538 1014 q 614 1034 594 1014 q 633 1085 633 1054 q 614 1134 633 1114 q 567 1154 594 1154 m 731 349 l 551 857 l 296 349 l 731 349 z "},"Ã":{"ha":1019,"x_min":-1,"x_max":968,"o":"m 764 254 l 247 254 l 119 0 l -1 0 l 511 989 l 610 989 l 968 0 l 853 0 l 764 254 m 731 349 l 551 857 l 296 349 l 731 349 m 343 1103 q 385 1224 347 1183 q 481 1264 422 1264 q 534 1252 510 1264 q 594 1218 558 1240 q 639 1192 621 1201 q 674 1183 657 1183 q 723 1203 704 1183 q 744 1260 742 1224 l 808 1260 q 766 1140 804 1181 q 669 1099 728 1099 q 615 1110 640 1099 q 557 1144 590 1122 q 510 1172 526 1164 q 478 1179 494 1179 q 428 1159 447 1179 q 406 1103 408 1139 l 343 1103 z "},"Æ":{"ha":1390,"x_min":-31,"x_max":1372,"o":"m 844 893 l 849 550 l 1310 550 l 1301 454 l 850 454 l 854 96 l 1303 96 l 1294 0 l 749 0 l 747 254 l 271 254 l 100 0 l -31 0 l 649 989 l 1372 989 l 1365 893 l 844 893 m 742 893 l 699 893 l 333 349 l 746 349 l 742 893 z "},"Ǽ":{"ha":1390,"x_min":-31,"x_max":1372,"o":"m 844 893 l 849 550 l 1310 550 l 1301 454 l 850 454 l 854 96 l 1303 96 l 1294 0 l 749 0 l 747 254 l 271 254 l 100 0 l -31 0 l 649 989 l 1372 989 l 1365 893 l 844 893 m 742 893 l 699 893 l 333 349 l 746 349 l 742 893 m 793 1074 l 947 1286 l 1079 1286 l 871 1074 l 793 1074 z "},"B":{"ha":947,"x_min":97,"x_max":874,"o":"m 693 506 q 817 426 775 483 q 860 285 860 369 q 770 75 860 150 q 521 0 681 0 l 97 0 l 174 989 l 557 989 q 793 926 713 989 q 874 746 874 863 q 828 597 874 658 q 693 506 783 536 m 281 894 l 254 550 l 531 550 q 701 597 642 550 q 760 736 760 644 q 547 894 760 894 l 281 894 m 517 94 q 747 283 747 94 q 533 454 747 454 l 246 454 l 218 94 l 517 94 z "},"C":{"ha":950,"x_min":97,"x_max":924,"o":"m 521 -11 q 297 44 392 -11 q 149 205 201 100 q 97 453 97 310 q 155 743 97 619 q 320 933 213 867 q 574 1000 428 1000 q 772 969 682 1000 q 924 875 861 938 l 872 789 q 737 875 807 849 q 575 901 667 901 q 310 782 404 901 q 215 451 215 663 q 299 182 215 276 q 536 88 382 88 q 826 201 690 88 l 863 114 q 521 -11 731 -11 z "},"Ć":{"ha":950,"x_min":97,"x_max":924,"o":"m 521 -11 q 297 44 392 -11 q 149 205 201 100 q 97 453 97 310 q 155 743 97 619 q 320 933 213 867 q 574 1000 428 1000 q 772 969 682 1000 q 924 875 861 938 l 872 789 q 737 875 807 849 q 575 901 667 901 q 310 782 404 901 q 215 451 215 663 q 299 182 215 276 q 536 88 382 88 q 826 201 690 88 l 863 114 q 521 -11 731 -11 m 560 1074 l 714 1286 l 846 1286 l 638 1074 l 560 1074 z "},"Č":{"ha":950,"x_min":97,"x_max":924,"o":"m 521 -11 q 297 44 392 -11 q 149 205 201 100 q 97 453 97 310 q 155 743 97 619 q 320 933 213 867 q 574 1000 428 1000 q 772 969 682 1000 q 924 875 861 938 l 872 789 q 737 875 807 849 q 575 901 667 901 q 310 782 404 901 q 215 451 215 663 q 299 182 215 276 q 536 88 382 88 q 826 201 690 88 l 863 114 q 521 -11 731 -11 m 819 1286 l 636 1074 l 561 1074 l 411 1286 l 511 1286 l 606 1140 l 717 1286 l 819 1286 z "},"Ç":{"ha":950,"x_min":97,"x_max":924,"o":"m 575 901 q 310 782 404 901 q 215 451 215 663 q 299 182 215 276 q 536 88 382 88 q 826 201 690 88 l 863 114 q 539 -11 738 -4 l 529 -60 q 557 -57 539 -57 q 633 -82 604 -57 q 661 -151 661 -107 q 618 -237 661 -204 q 497 -271 575 -271 q 432 -264 467 -271 q 371 -244 397 -257 l 392 -183 q 497 -203 446 -203 q 556 -190 535 -203 q 578 -154 578 -178 q 565 -126 578 -136 q 529 -117 553 -117 q 467 -129 499 -117 l 442 -107 l 461 -8 q 194 133 292 11 q 97 453 97 256 q 155 743 97 619 q 320 933 213 867 q 574 1000 428 1000 q 772 969 682 1000 q 924 875 861 938 l 872 789 q 737 875 807 849 q 575 901 667 901 z "},"Ḉ":{"ha":950,"x_min":97,"x_max":924,"o":"m 638 1074 l 560 1074 l 714 1286 l 846 1286 l 638 1074 m 575 901 q 310 782 404 901 q 215 451 215 663 q 299 182 215 276 q 536 88 382 88 q 826 201 690 88 l 863 114 q 539 -11 738 -4 l 529 -60 q 557 -57 539 -57 q 633 -82 604 -57 q 661 -151 661 -107 q 618 -237 661 -204 q 497 -271 575 -271 q 432 -264 467 -271 q 371 -244 397 -257 l 392 -183 q 497 -203 446 -203 q 556 -190 535 -203 q 578 -154 578 -178 q 565 -126 578 -136 q 529 -117 553 -117 q 467 -129 499 -117 l 442 -107 l 461 -8 q 194 133 292 11 q 97 453 97 256 q 155 743 97 619 q 320 933 213 867 q 574 1000 428 1000 q 772 969 682 1000 q 924 875 861 938 l 872 789 q 737 875 807 849 q 575 901 667 901 z "},"Ĉ":{"ha":950,"x_min":97,"x_max":924,"o":"m 521 -11 q 297 44 392 -11 q 149 205 201 100 q 97 453 97 310 q 155 743 97 619 q 320 933 213 867 q 574 1000 428 1000 q 772 969 682 1000 q 924 875 861 938 l 872 789 q 737 875 807 849 q 575 901 667 901 q 310 782 404 901 q 215 451 215 663 q 299 182 215 276 q 536 88 382 88 q 826 201 690 88 l 863 114 q 521 -11 731 -11 m 394 1074 l 578 1286 l 653 1286 l 803 1074 l 703 1074 l 614 1218 l 497 1074 l 394 1074 z "},"Ċ":{"ha":950,"x_min":97,"x_max":924,"o":"m 521 -11 q 297 44 392 -11 q 149 205 201 100 q 97 453 97 310 q 155 743 97 619 q 320 933 213 867 q 574 1000 428 1000 q 772 969 682 1000 q 924 875 861 938 l 872 789 q 737 875 807 849 q 575 901 667 901 q 310 782 404 901 q 215 451 215 663 q 299 182 215 276 q 536 88 382 88 q 826 201 690 88 l 863 114 q 521 -11 731 -11 m 681 1244 l 671 1117 l 533 1117 l 543 1244 l 681 1244 z "},"D":{"ha":1038,"x_min":96,"x_max":964,"o":"m 172 989 l 500 989 q 844 870 724 989 q 964 535 964 751 q 832 141 964 282 q 460 0 700 0 l 96 0 l 172 989 m 453 97 q 747 210 647 97 q 846 536 846 322 q 490 892 846 892 l 282 892 l 218 97 l 453 97 z "},"Ǆ":{"ha":1844,"x_min":96,"x_max":1829,"o":"m 172 989 l 500 989 q 844 870 724 989 q 964 535 964 751 q 832 141 964 282 q 460 0 700 0 l 96 0 l 172 989 m 453 97 q 747 210 647 97 q 846 536 846 322 q 490 892 846 892 l 282 892 l 218 97 l 453 97 m 1822 906 l 1197 96 l 1774 96 l 1765 0 l 1053 0 l 1058 85 l 1683 893 l 1124 893 l 1132 989 l 1829 989 l 1822 906 m 1707 1286 l 1524 1074 l 1449 1074 l 1299 1286 l 1399 1286 l 1493 1140 l 1604 1286 l 1707 1286 z "},"Ð":{"ha":1056,"x_min":19,"x_max":982,"o":"m 518 989 q 861 870 740 989 q 982 535 982 751 q 850 141 982 282 q 476 0 718 0 l 114 0 l 149 456 l 19 456 l 26 547 l 156 547 l 190 989 l 518 989 m 471 97 q 765 210 665 97 q 864 536 864 322 q 775 802 864 713 q 510 892 686 892 l 299 892 l 271 547 l 542 547 l 535 456 l 264 456 l 236 97 l 471 97 z "},"Ď":{"ha":1038,"x_min":96,"x_max":964,"o":"m 172 989 l 500 989 q 844 870 724 989 q 964 535 964 751 q 832 141 964 282 q 460 0 700 0 l 96 0 l 172 989 m 453 97 q 747 210 647 97 q 846 536 846 322 q 490 892 846 892 l 282 892 l 218 97 l 453 97 m 796 1286 l 613 1074 l 538 1074 l 388 1286 l 488 1286 l 582 1140 l 693 1286 l 796 1286 z "},"Đ":{"ha":1056,"x_min":19,"x_max":982,"o":"m 518 989 q 861 870 740 989 q 982 535 982 751 q 850 141 982 282 q 476 0 718 0 l 114 0 l 149 456 l 19 456 l 26 547 l 156 547 l 190 989 l 518 989 m 471 97 q 765 210 665 97 q 864 536 864 322 q 775 802 864 713 q 510 892 686 892 l 299 892 l 271 547 l 542 547 l 535 456 l 264 456 l 236 97 l 471 97 z "},"Ḍ":{"ha":1038,"x_min":96,"x_max":964,"o":"m 172 989 l 500 989 q 844 870 724 989 q 964 535 964 751 q 832 141 964 282 q 460 0 700 0 l 96 0 l 172 989 m 453 97 q 747 210 647 97 q 846 536 846 322 q 490 892 846 892 l 282 892 l 218 97 l 453 97 m 547 -132 l 536 -256 l 407 -256 l 418 -132 l 547 -132 z "},"Ḏ":{"ha":1038,"x_min":96,"x_max":964,"o":"m 172 989 l 500 989 q 844 870 724 989 q 964 535 964 751 q 832 141 964 282 q 460 0 700 0 l 96 0 l 172 989 m 453 97 q 747 210 647 97 q 846 536 846 322 q 490 892 846 892 l 282 892 l 218 97 l 453 97 m 271 -153 l 690 -153 l 683 -236 l 264 -236 l 271 -153 z "},"ǅ":{"ha":1757,"x_min":96,"x_max":1708,"o":"m 172 989 l 500 989 q 844 870 724 989 q 964 535 964 751 q 832 141 964 282 q 460 0 700 0 l 96 0 l 172 989 m 453 97 q 747 210 647 97 q 846 536 846 322 q 490 892 846 892 l 282 892 l 218 97 l 453 97 m 1704 618 l 1229 88 l 1676 88 l 1669 0 l 1079 0 l 1086 76 l 1564 610 l 1143 610 l 1150 699 l 1708 699 l 1704 618 m 1665 1072 l 1478 789 l 1399 789 l 1256 1072 l 1357 1072 l 1443 871 l 1558 1072 l 1665 1072 z "},"E":{"ha":818,"x_min":96,"x_max":800,"o":"m 281 894 l 253 550 l 738 550 l 729 454 l 246 454 l 217 94 l 729 94 l 722 0 l 96 0 l 174 989 l 800 989 l 793 894 l 281 894 z "},"É":{"ha":818,"x_min":96,"x_max":800,"o":"m 281 894 l 253 550 l 738 550 l 729 454 l 246 454 l 217 94 l 729 94 l 722 0 l 96 0 l 174 989 l 800 989 l 793 894 l 281 894 m 474 1074 l 628 1286 l 760 1286 l 551 1074 l 474 1074 z "},"Ĕ":{"ha":818,"x_min":96,"x_max":800,"o":"m 281 894 l 253 550 l 738 550 l 729 454 l 246 454 l 217 94 l 729 94 l 722 0 l 96 0 l 174 989 l 800 989 l 793 894 l 281 894 m 517 1090 q 380 1128 439 1090 q 296 1239 321 1165 l 371 1269 q 433 1193 397 1215 q 521 1171 469 1171 q 610 1192 571 1171 q 683 1269 649 1214 l 754 1239 q 656 1126 717 1163 q 517 1090 594 1090 z "},"Ě":{"ha":818,"x_min":96,"x_max":800,"o":"m 281 894 l 253 550 l 738 550 l 729 454 l 246 454 l 217 94 l 729 94 l 722 0 l 96 0 l 174 989 l 800 989 l 793 894 l 281 894 m 733 1286 l 550 1074 l 475 1074 l 325 1286 l 425 1286 l 519 1140 l 631 1286 l 733 1286 z "},"Ȩ":{"ha":818,"x_min":96,"x_max":800,"o":"m 281 894 l 253 550 l 738 550 l 729 454 l 246 454 l 217 94 l 729 94 l 722 0 l 456 0 l 443 -60 q 471 -57 453 -57 q 547 -82 518 -57 q 575 -151 575 -107 q 532 -237 575 -204 q 411 -271 489 -271 q 346 -264 381 -271 q 285 -244 311 -257 l 306 -183 q 411 -203 360 -203 q 470 -190 449 -203 q 492 -154 492 -178 q 479 -126 492 -136 q 443 -117 467 -117 q 381 -129 413 -117 l 356 -107 l 376 0 l 96 0 l 174 989 l 800 989 l 793 894 l 281 894 z "},"Ḝ":{"ha":818,"x_min":96,"x_max":800,"o":"m 517 1090 q 380 1128 439 1090 q 296 1239 321 1165 l 371 1269 q 433 1193 397 1215 q 521 1171 469 1171 q 610 1192 571 1171 q 683 1269 649 1214 l 754 1239 q 656 1126 717 1163 q 517 1090 594 1090 m 281 894 l 253 550 l 738 550 l 729 454 l 246 454 l 217 94 l 729 94 l 722 0 l 456 0 l 443 -60 q 471 -57 453 -57 q 547 -82 518 -57 q 575 -151 575 -107 q 532 -237 575 -204 q 411 -271 489 -271 q 346 -264 381 -271 q 285 -244 311 -257 l 306 -183 q 411 -203 360 -203 q 470 -190 449 -203 q 492 -154 492 -178 q 479 -126 492 -136 q 443 -117 467 -117 q 381 -129 413 -117 l 356 -107 l 376 0 l 96 0 l 174 989 l 800 989 l 793 894 l 281 894 z "},"Ê":{"ha":818,"x_min":96,"x_max":800,"o":"m 281 894 l 253 550 l 738 550 l 729 454 l 246 454 l 217 94 l 729 94 l 722 0 l 96 0 l 174 989 l 800 989 l 793 894 l 281 894 m 308 1074 l 492 1286 l 567 1286 l 717 1074 l 617 1074 l 528 1218 l 411 1074 l 308 1074 z "},"Ế":{"ha":818,"x_min":96,"x_max":908,"o":"m 281 894 l 253 550 l 738 550 l 729 454 l 246 454 l 217 94 l 729 94 l 722 0 l 96 0 l 174 989 l 800 989 l 793 894 l 281 894 m 783 1415 l 908 1415 l 711 1218 l 643 1218 l 783 1415 m 492 1279 l 567 1279 l 717 1074 l 617 1074 l 526 1213 l 411 1074 l 308 1074 l 492 1279 z "},"Ệ":{"ha":818,"x_min":96,"x_max":800,"o":"m 281 894 l 253 550 l 738 550 l 729 454 l 246 454 l 217 94 l 729 94 l 722 0 l 96 0 l 174 989 l 800 989 l 793 894 l 281 894 m 483 -132 l 472 -256 l 343 -256 l 354 -132 l 483 -132 m 308 1074 l 492 1286 l 567 1286 l 717 1074 l 617 1074 l 528 1218 l 411 1074 l 308 1074 z "},"Ề":{"ha":818,"x_min":96,"x_max":800,"o":"m 281 894 l 253 550 l 738 550 l 729 454 l 246 454 l 217 94 l 729 94 l 722 0 l 96 0 l 174 989 l 800 989 l 793 894 l 281 894 m 564 1415 l 675 1415 l 772 1218 l 701 1218 l 564 1415 m 492 1279 l 567 1279 l 717 1074 l 617 1074 l 526 1213 l 411 1074 l 308 1074 l 492 1279 z "},"Ể":{"ha":818,"x_min":96,"x_max":835,"o":"m 281 894 l 253 550 l 738 550 l 729 454 l 246 454 l 217 94 l 729 94 l 722 0 l 96 0 l 174 989 l 800 989 l 793 894 l 281 894 m 643 1242 q 661 1280 644 1267 q 707 1304 678 1293 q 738 1319 729 1314 q 746 1335 746 1325 q 731 1351 746 1344 q 694 1357 717 1357 q 601 1340 653 1357 l 588 1401 q 703 1424 643 1424 q 799 1401 764 1424 q 835 1344 835 1379 q 817 1301 835 1315 q 765 1269 800 1286 q 731 1251 743 1260 q 717 1231 718 1243 l 715 1218 l 642 1218 l 643 1242 m 492 1279 l 567 1279 l 717 1074 l 617 1074 l 526 1213 l 411 1074 l 308 1074 l 492 1279 z "},"Ễ":{"ha":818,"x_min":96,"x_max":800,"o":"m 281 894 l 253 550 l 738 550 l 729 454 l 246 454 l 217 94 l 729 94 l 722 0 l 96 0 l 174 989 l 800 989 l 793 894 l 281 894 m 304 1300 q 345 1400 307 1363 q 439 1438 383 1438 q 492 1429 468 1438 q 556 1404 517 1421 q 601 1384 583 1390 q 638 1378 619 1378 q 685 1395 667 1378 q 704 1440 703 1413 l 768 1440 q 727 1339 765 1376 q 633 1301 689 1301 q 577 1310 604 1301 q 515 1336 550 1319 q 471 1356 489 1349 q 435 1363 453 1363 q 388 1345 406 1363 q 367 1300 369 1328 l 304 1300 m 492 1279 l 567 1279 l 717 1074 l 617 1074 l 526 1213 l 411 1074 l 308 1074 l 492 1279 z "},"Ȅ":{"ha":818,"x_min":96,"x_max":800,"o":"m 281 894 l 253 550 l 738 550 l 729 454 l 246 454 l 217 94 l 729 94 l 722 0 l 96 0 l 174 989 l 800 989 l 793 894 l 281 894 m 279 1286 l 375 1286 l 460 1074 l 399 1074 l 279 1286 m 446 1286 l 542 1286 l 626 1074 l 565 1074 l 446 1286 z "},"Ë":{"ha":818,"x_min":96,"x_max":800,"o":"m 281 894 l 253 550 l 738 550 l 729 454 l 246 454 l 217 94 l 729 94 l 722 0 l 96 0 l 174 989 l 800 989 l 793 894 l 281 894 m 469 1240 l 458 1121 l 335 1121 l 343 1240 l 469 1240 m 708 1240 l 700 1121 l 574 1121 l 583 1240 l 708 1240 z "},"Ė":{"ha":818,"x_min":96,"x_max":800,"o":"m 281 894 l 253 550 l 738 550 l 729 454 l 246 454 l 217 94 l 729 94 l 722 0 l 96 0 l 174 989 l 800 989 l 793 894 l 281 894 m 594 1244 l 585 1117 l 447 1117 l 457 1244 l 594 1244 z "},"Ẹ":{"ha":818,"x_min":96,"x_max":800,"o":"m 281 894 l 253 550 l 738 550 l 729 454 l 246 454 l 217 94 l 729 94 l 722 0 l 96 0 l 174 989 l 800 989 l 793 894 l 281 894 m 483 -132 l 472 -256 l 343 -256 l 354 -132 l 483 -132 z "},"È":{"ha":818,"x_min":96,"x_max":800,"o":"m 281 894 l 253 550 l 738 550 l 729 454 l 246 454 l 217 94 l 729 94 l 722 0 l 96 0 l 174 989 l 800 989 l 793 894 l 281 894 m 307 1286 l 424 1286 l 551 1074 l 474 1074 l 307 1286 z "},"Ẻ":{"ha":818,"x_min":96,"x_max":800,"o":"m 281 894 l 253 550 l 738 550 l 729 454 l 246 454 l 217 94 l 729 94 l 722 0 l 96 0 l 174 989 l 800 989 l 793 894 l 281 894 m 550 1074 l 476 1074 l 478 1099 q 494 1135 479 1122 q 539 1164 510 1149 q 569 1182 560 1174 q 579 1201 579 1190 q 565 1219 579 1213 q 526 1225 551 1225 q 438 1208 486 1225 l 422 1269 q 536 1292 475 1292 q 635 1269 600 1292 q 669 1210 669 1247 q 651 1163 669 1179 q 599 1131 632 1146 q 563 1109 574 1117 q 551 1088 553 1101 l 550 1074 z "},"Ȇ":{"ha":818,"x_min":96,"x_max":800,"o":"m 281 894 l 253 550 l 738 550 l 729 454 l 246 454 l 217 94 l 729 94 l 722 0 l 96 0 l 174 989 l 800 989 l 793 894 l 281 894 m 525 1271 q 662 1233 603 1271 q 746 1122 721 1196 l 671 1092 q 608 1168 644 1146 q 521 1190 572 1190 q 432 1168 471 1190 q 358 1092 393 1146 l 288 1122 q 386 1235 325 1199 q 525 1271 447 1271 z "},"Ē":{"ha":818,"x_min":96,"x_max":800,"o":"m 281 894 l 253 550 l 738 550 l 729 454 l 246 454 l 217 94 l 729 94 l 722 0 l 96 0 l 174 989 l 800 989 l 793 894 l 281 894 m 315 1224 l 735 1224 l 728 1138 l 307 1138 l 315 1224 z "},"Ḗ":{"ha":818,"x_min":96,"x_max":800,"o":"m 281 894 l 253 550 l 738 550 l 729 454 l 246 454 l 217 94 l 729 94 l 722 0 l 96 0 l 174 989 l 800 989 l 793 894 l 281 894 m 315 1224 l 735 1224 l 728 1138 l 307 1138 l 315 1224 m 492 1299 l 646 1511 l 778 1511 l 569 1299 l 492 1299 z "},"Ḕ":{"ha":818,"x_min":96,"x_max":800,"o":"m 281 894 l 253 550 l 738 550 l 729 454 l 246 454 l 217 94 l 729 94 l 722 0 l 96 0 l 174 989 l 800 989 l 793 894 l 281 894 m 315 1224 l 735 1224 l 728 1138 l 307 1138 l 315 1224 m 325 1511 l 442 1511 l 569 1299 l 492 1299 l 325 1511 z "},"Ę":{"ha":818,"x_min":96,"x_max":800,"o":"m 281 894 l 253 550 l 738 550 l 729 454 l 246 454 l 217 94 l 729 94 l 722 0 l 700 0 q 599 -32 633 0 q 565 -112 565 -64 q 588 -175 565 -154 q 650 -196 610 -196 q 733 -172 686 -196 l 750 -239 q 696 -262 726 -253 q 633 -271 665 -271 q 518 -233 561 -271 q 475 -132 475 -194 q 538 0 475 -51 l 96 0 l 174 989 l 800 989 l 793 894 l 281 894 z "},"Ẽ":{"ha":818,"x_min":96,"x_max":800,"o":"m 281 894 l 253 550 l 738 550 l 729 454 l 246 454 l 217 94 l 729 94 l 722 0 l 96 0 l 174 989 l 800 989 l 793 894 l 281 894 m 289 1103 q 331 1224 293 1183 q 426 1264 368 1264 q 480 1252 456 1264 q 540 1218 504 1240 q 585 1192 567 1201 q 619 1183 603 1183 q 669 1203 650 1183 q 690 1260 688 1224 l 754 1260 q 712 1140 750 1181 q 615 1099 674 1099 q 561 1110 586 1099 q 503 1144 536 1122 q 456 1172 472 1164 q 424 1179 440 1179 q 374 1159 393 1179 q 351 1103 354 1139 l 289 1103 z "},"F":{"ha":783,"x_min":96,"x_max":786,"o":"m 282 893 l 254 550 l 722 550 l 715 454 l 246 454 l 210 0 l 96 0 l 174 989 l 786 989 l 778 893 l 282 893 z "},"G":{"ha":1015,"x_min":97,"x_max":935,"o":"m 569 515 l 919 515 l 883 58 q 728 8 821 28 q 549 -11 636 -11 q 215 109 332 -11 q 97 443 97 229 q 158 738 97 613 q 329 932 218 864 q 590 1000 440 1000 q 935 875 801 1000 l 883 788 q 744 876 813 849 q 592 903 676 903 q 315 781 414 901 q 215 447 215 660 q 301 178 215 272 q 556 85 386 85 q 785 124 668 85 l 807 425 l 561 425 l 569 515 z "},"Ğ":{"ha":1015,"x_min":97,"x_max":935,"o":"m 569 515 l 919 515 l 883 58 q 728 8 821 28 q 549 -11 636 -11 q 215 109 332 -11 q 97 443 97 229 q 158 738 97 613 q 329 932 218 864 q 590 1000 440 1000 q 935 875 801 1000 l 883 788 q 744 876 813 849 q 592 903 676 903 q 315 781 414 901 q 215 447 215 660 q 301 178 215 272 q 556 85 386 85 q 785 124 668 85 l 807 425 l 561 425 l 569 515 m 613 1090 q 476 1128 535 1090 q 392 1239 417 1165 l 467 1269 q 529 1193 493 1215 q 617 1171 565 1171 q 706 1192 667 1171 q 779 1269 744 1214 l 850 1239 q 751 1126 813 1163 q 613 1090 690 1090 z "},"Ǧ":{"ha":1015,"x_min":97,"x_max":935,"o":"m 569 515 l 919 515 l 883 58 q 728 8 821 28 q 549 -11 636 -11 q 215 109 332 -11 q 97 443 97 229 q 158 738 97 613 q 329 932 218 864 q 590 1000 440 1000 q 935 875 801 1000 l 883 788 q 744 876 813 849 q 592 903 676 903 q 315 781 414 901 q 215 447 215 660 q 301 178 215 272 q 556 85 386 85 q 785 124 668 85 l 807 425 l 561 425 l 569 515 m 829 1286 l 646 1074 l 571 1074 l 421 1286 l 521 1286 l 615 1140 l 726 1286 l 829 1286 z "},"Ĝ":{"ha":1015,"x_min":97,"x_max":935,"o":"m 569 515 l 919 515 l 883 58 q 728 8 821 28 q 549 -11 636 -11 q 215 109 332 -11 q 97 443 97 229 q 158 738 97 613 q 329 932 218 864 q 590 1000 440 1000 q 935 875 801 1000 l 883 788 q 744 876 813 849 q 592 903 676 903 q 315 781 414 901 q 215 447 215 660 q 301 178 215 272 q 556 85 386 85 q 785 124 668 85 l 807 425 l 561 425 l 569 515 m 404 1074 l 588 1286 l 663 1286 l 813 1074 l 713 1074 l 624 1218 l 507 1074 l 404 1074 z "},"Ģ":{"ha":1015,"x_min":97,"x_max":935,"o":"m 569 515 l 919 515 l 883 58 q 728 8 821 28 q 549 -11 636 -11 q 215 109 332 -11 q 97 443 97 229 q 158 738 97 613 q 329 932 218 864 q 590 1000 440 1000 q 935 875 801 1000 l 883 788 q 744 876 813 849 q 592 903 676 903 q 315 781 414 901 q 215 447 215 660 q 301 178 215 272 q 556 85 386 85 q 785 124 668 85 l 807 425 l 561 425 l 569 515 m 596 -101 l 590 -182 q 565 -282 585 -239 q 504 -364 546 -325 l 456 -325 q 497 -272 483 -297 q 514 -217 510 -247 l 450 -217 l 458 -101 l 596 -101 z "},"Ġ":{"ha":1015,"x_min":97,"x_max":935,"o":"m 569 515 l 919 515 l 883 58 q 728 8 821 28 q 549 -11 636 -11 q 215 109 332 -11 q 97 443 97 229 q 158 738 97 613 q 329 932 218 864 q 590 1000 440 1000 q 935 875 801 1000 l 883 788 q 744 876 813 849 q 592 903 676 903 q 315 781 414 901 q 215 447 215 660 q 301 178 215 272 q 556 85 386 85 q 785 124 668 85 l 807 425 l 561 425 l 569 515 m 690 1244 l 681 1117 l 543 1117 l 553 1244 l 690 1244 z "},"Ḡ":{"ha":1015,"x_min":97,"x_max":935,"o":"m 569 515 l 919 515 l 883 58 q 728 8 821 28 q 549 -11 636 -11 q 215 109 332 -11 q 97 443 97 229 q 158 738 97 613 q 329 932 218 864 q 590 1000 440 1000 q 935 875 801 1000 l 883 788 q 744 876 813 849 q 592 903 676 903 q 315 781 414 901 q 215 447 215 660 q 301 178 215 272 q 556 85 386 85 q 785 124 668 85 l 807 425 l 561 425 l 569 515 m 411 1224 l 831 1224 l 824 1138 l 403 1138 l 411 1224 z "},"H":{"ha":1064,"x_min":96,"x_max":993,"o":"m 993 989 l 915 0 l 801 0 l 838 454 l 246 454 l 210 0 l 96 0 l 174 989 l 288 989 l 253 550 l 844 550 l 879 989 l 993 989 z "},"Ħ":{"ha":1101,"x_min":40,"x_max":1128,"o":"m 1121 729 l 997 729 l 940 0 l 826 0 l 861 454 l 271 454 l 235 0 l 121 0 l 178 729 l 40 729 l 49 821 l 185 821 l 199 989 l 313 989 l 299 821 l 890 821 l 903 989 l 1018 989 l 1004 821 l 1128 821 l 1121 729 m 883 729 l 292 729 l 278 550 l 869 550 l 883 729 z "},"Ḫ":{"ha":1064,"x_min":96,"x_max":993,"o":"m 993 989 l 915 0 l 801 0 l 838 454 l 246 454 l 210 0 l 96 0 l 174 989 l 288 989 l 253 550 l 844 550 l 879 989 l 993 989 m 486 -296 q 350 -252 410 -296 q 267 -119 290 -208 l 340 -89 q 492 -212 388 -212 q 584 -184 543 -212 q 658 -89 625 -156 l 729 -118 q 630 -253 694 -211 q 486 -296 565 -296 z "},"Ĥ":{"ha":1064,"x_min":96,"x_max":993,"o":"m 993 989 l 915 0 l 801 0 l 838 454 l 246 454 l 210 0 l 96 0 l 174 989 l 288 989 l 253 550 l 844 550 l 879 989 l 993 989 m 385 1074 l 568 1286 l 643 1286 l 793 1074 l 693 1074 l 604 1218 l 488 1074 l 385 1074 z "},"Ḥ":{"ha":1064,"x_min":96,"x_max":993,"o":"m 993 989 l 915 0 l 801 0 l 838 454 l 246 454 l 210 0 l 96 0 l 174 989 l 288 989 l 253 550 l 844 550 l 879 989 l 993 989 m 563 -132 l 551 -256 l 422 -256 l 433 -132 l 563 -132 z "},"I":{"ha":358,"x_min":96,"x_max":289,"o":"m 172 989 l 289 989 l 211 0 l 96 0 l 172 989 z "},"Í":{"ha":358,"x_min":96,"x_max":486,"o":"m 172 989 l 289 989 l 211 0 l 96 0 l 172 989 m 200 1074 l 354 1286 l 486 1286 l 278 1074 l 200 1074 z "},"Ĭ":{"ha":358,"x_min":22,"x_max":481,"o":"m 172 989 l 289 989 l 211 0 l 96 0 l 172 989 m 243 1090 q 106 1128 165 1090 q 22 1239 47 1165 l 97 1269 q 160 1193 124 1215 q 247 1171 196 1171 q 336 1192 297 1171 q 410 1269 375 1214 l 481 1239 q 382 1126 443 1163 q 243 1090 321 1090 z "},"Î":{"ha":358,"x_min":35,"x_max":443,"o":"m 172 989 l 289 989 l 211 0 l 96 0 l 172 989 m 35 1074 l 218 1286 l 293 1286 l 443 1074 l 343 1074 l 254 1218 l 138 1074 l 35 1074 z "},"Ȉ":{"ha":358,"x_min":6,"x_max":353,"o":"m 172 989 l 289 989 l 211 0 l 96 0 l 172 989 m 6 1286 l 101 1286 l 186 1074 l 125 1074 l 6 1286 m 172 1286 l 268 1286 l 353 1074 l 292 1074 l 172 1286 z "},"Ï":{"ha":358,"x_min":61,"x_max":435,"o":"m 172 989 l 289 989 l 211 0 l 96 0 l 172 989 m 196 1240 l 185 1121 l 61 1121 l 69 1240 l 196 1240 m 435 1240 l 426 1121 l 300 1121 l 310 1240 l 435 1240 z "},"Ḯ":{"ha":358,"x_min":61,"x_max":504,"o":"m 172 989 l 289 989 l 211 0 l 96 0 l 172 989 m 196 1240 l 185 1121 l 61 1121 l 69 1240 l 196 1240 m 435 1240 l 426 1121 l 300 1121 l 310 1240 l 435 1240 m 218 1299 l 372 1511 l 504 1511 l 296 1299 l 218 1299 z "},"İ":{"ha":358,"x_min":96,"x_max":321,"o":"m 172 989 l 289 989 l 211 0 l 96 0 l 172 989 m 321 1244 l 311 1117 l 174 1117 l 183 1244 l 321 1244 z "},"Ị":{"ha":358,"x_min":69,"x_max":289,"o":"m 172 989 l 289 989 l 211 0 l 96 0 l 172 989 m 210 -132 l 199 -256 l 69 -256 l 81 -132 l 210 -132 z "},"Ì":{"ha":358,"x_min":33,"x_max":289,"o":"m 172 989 l 289 989 l 211 0 l 96 0 l 172 989 m 33 1286 l 150 1286 l 278 1074 l 200 1074 l 33 1286 z "},"Ỉ":{"ha":358,"x_min":96,"x_max":396,"o":"m 172 989 l 289 989 l 211 0 l 96 0 l 172 989 m 276 1074 l 203 1074 l 204 1099 q 221 1135 206 1122 q 265 1164 236 1149 q 296 1182 286 1174 q 306 1201 306 1190 q 292 1219 306 1213 q 253 1225 278 1225 q 164 1208 213 1225 l 149 1269 q 263 1292 201 1292 q 361 1269 326 1292 q 396 1210 396 1247 q 377 1163 396 1179 q 325 1131 358 1146 q 290 1109 300 1117 q 278 1088 279 1101 l 276 1074 z "},"Ȋ":{"ha":358,"x_min":14,"x_max":472,"o":"m 172 989 l 289 989 l 211 0 l 96 0 l 172 989 m 251 1271 q 388 1233 329 1271 q 472 1122 447 1196 l 397 1092 q 335 1168 371 1146 q 247 1190 299 1190 q 158 1168 197 1190 q 85 1092 119 1146 l 14 1122 q 113 1235 51 1199 q 251 1271 174 1271 z "},"Ī":{"ha":358,"x_min":33,"x_max":461,"o":"m 172 989 l 289 989 l 211 0 l 96 0 l 172 989 m 42 1224 l 461 1224 l 454 1138 l 33 1138 l 42 1224 z "},"Į":{"ha":358,"x_min":-24,"x_max":288,"o":"m 150 -196 q 233 -172 186 -196 l 253 -239 q 135 -271 196 -271 q 19 -232 63 -271 q -24 -128 -24 -193 q 7 -26 -24 -69 q 99 39 38 17 l 172 989 l 288 989 l 210 0 l 200 0 q 99 -32 132 0 q 67 -112 67 -64 q 88 -175 67 -154 q 150 -196 110 -196 z "},"Ĩ":{"ha":358,"x_min":15,"x_max":481,"o":"m 172 989 l 289 989 l 211 0 l 96 0 l 172 989 m 15 1103 q 57 1224 19 1183 q 153 1264 94 1264 q 206 1252 182 1264 q 267 1218 231 1240 q 311 1192 293 1201 q 346 1183 329 1183 q 395 1203 376 1183 q 417 1260 414 1224 l 481 1260 q 438 1140 476 1181 q 342 1099 400 1099 q 288 1110 313 1099 q 229 1144 263 1122 q 183 1172 199 1164 q 150 1179 167 1179 q 100 1159 119 1179 q 78 1103 81 1139 l 15 1103 z "},"J":{"ha":457,"x_min":-54,"x_max":386,"o":"m -46 -149 q 47 -160 10 -160 q 151 -119 117 -160 q 193 15 185 -79 l 271 989 l 386 989 l 308 14 q 237 -193 297 -128 q 58 -258 176 -258 q -54 -247 13 -258 l -46 -149 z "},"Ĵ":{"ha":457,"x_min":-54,"x_max":538,"o":"m -46 -149 q 47 -160 10 -160 q 151 -119 117 -160 q 193 15 185 -79 l 271 989 l 386 989 l 308 14 q 237 -193 297 -128 q 58 -258 176 -258 q -54 -247 13 -258 l -46 -149 m 129 1074 l 313 1286 l 388 1286 l 538 1074 l 438 1074 l 349 1218 l 232 1074 l 129 1074 z "},"K":{"ha":881,"x_min":97,"x_max":919,"o":"m 364 507 l 869 0 l 728 0 l 249 472 l 211 0 l 97 0 l 174 989 l 289 989 l 253 538 l 767 989 l 919 989 l 364 507 z "},"Ķ":{"ha":881,"x_min":97,"x_max":919,"o":"m 364 507 l 869 0 l 728 0 l 249 472 l 211 0 l 97 0 l 174 989 l 289 989 l 253 538 l 767 989 l 919 989 l 364 507 m 479 -101 l 474 -182 q 449 -282 468 -239 q 388 -364 429 -325 l 339 -325 q 380 -272 367 -297 q 397 -217 393 -247 l 333 -217 l 342 -101 l 479 -101 z "},"L":{"ha":757,"x_min":96,"x_max":714,"o":"m 174 989 l 289 989 l 218 97 l 714 97 l 707 0 l 96 0 l 174 989 z "},"Ǉ":{"ha":1108,"x_min":96,"x_max":1038,"o":"m 174 989 l 289 989 l 218 97 l 672 97 l 665 0 l 96 0 l 174 989 m 604 -149 q 697 -160 663 -160 q 803 -119 768 -160 q 844 15 838 -79 l 921 989 l 1038 989 l 960 14 q 887 -193 947 -128 q 710 -258 826 -258 q 597 -247 664 -258 l 604 -149 z "},"Ĺ":{"ha":757,"x_min":96,"x_max":714,"o":"m 174 989 l 289 989 l 218 97 l 714 97 l 707 0 l 96 0 l 174 989 m 199 1074 l 353 1286 l 485 1286 l 276 1074 l 199 1074 z "},"Ľ":{"ha":757,"x_min":96,"x_max":714,"o":"m 174 989 l 289 989 l 218 97 l 714 97 l 707 0 l 96 0 l 174 989 m 386 722 l 406 989 l 503 989 l 446 722 l 386 722 z "},"Ļ":{"ha":757,"x_min":96,"x_max":714,"o":"m 174 989 l 289 989 l 218 97 l 714 97 l 707 0 l 96 0 l 174 989 m 468 -101 l 463 -182 q 438 -282 457 -239 q 376 -364 418 -325 l 328 -325 q 369 -272 356 -297 q 386 -217 382 -247 l 322 -217 l 331 -101 l 468 -101 z "},"Ŀ":{"ha":757,"x_min":96,"x_max":714,"o":"m 174 989 l 289 989 l 218 97 l 714 97 l 707 0 l 96 0 l 174 989 m 581 561 l 569 429 l 428 429 l 438 561 l 581 561 z "},"Ḷ":{"ha":757,"x_min":96,"x_max":714,"o":"m 174 989 l 289 989 l 218 97 l 714 97 l 707 0 l 96 0 l 174 989 m 463 -132 l 451 -256 l 322 -256 l 333 -132 l 463 -132 z "},"ǈ":{"ha":1088,"x_min":96,"x_max":1042,"o":"m 174 989 l 289 989 l 218 97 l 714 97 l 707 0 l 96 0 l 174 989 m 638 -199 q 704 -210 675 -210 q 832 -69 821 -210 l 894 699 l 1006 699 l 943 -83 q 875 -249 933 -193 q 721 -306 817 -306 q 629 -293 675 -306 l 638 -199 m 1042 994 l 1032 867 l 893 867 l 904 994 l 1042 994 z "},"Ḻ":{"ha":757,"x_min":96,"x_max":714,"o":"m 174 989 l 289 989 l 218 97 l 714 97 l 707 0 l 96 0 l 174 989 m 186 -153 l 606 -153 l 599 -236 l 179 -236 l 186 -153 z "},"Ł":{"ha":775,"x_min":13,"x_max":732,"o":"m 732 97 l 725 0 l 114 0 l 146 414 l 13 340 l 21 447 l 154 521 l 190 989 l 307 989 l 275 588 l 550 739 l 542 632 l 267 481 l 236 97 l 732 97 z "},"M":{"ha":1179,"x_min":97,"x_max":1107,"o":"m 1107 989 l 1031 0 l 925 0 l 983 731 l 606 0 l 525 0 l 260 731 l 203 0 l 97 0 l 174 989 l 269 989 l 575 135 l 1013 989 l 1107 989 z "},"Ṃ":{"ha":1179,"x_min":97,"x_max":1107,"o":"m 1107 989 l 1031 0 l 925 0 l 983 731 l 606 0 l 525 0 l 260 731 l 203 0 l 97 0 l 174 989 l 269 989 l 575 135 l 1013 989 l 1107 989 m 619 -132 l 608 -256 l 479 -256 l 490 -132 l 619 -132 z "},"N":{"ha":1036,"x_min":96,"x_max":965,"o":"m 965 989 l 888 0 l 800 0 l 268 793 l 204 0 l 96 0 l 174 989 l 263 989 l 794 196 l 857 989 l 965 989 z "},"Ǌ":{"ha":1493,"x_min":96,"x_max":1422,"o":"m 965 989 l 888 0 l 800 0 l 268 793 l 204 0 l 96 0 l 174 989 l 263 989 l 794 196 l 857 989 l 965 989 m 990 -149 q 1083 -160 1046 -160 q 1187 -119 1153 -160 q 1229 15 1221 -79 l 1307 989 l 1422 989 l 1344 14 q 1273 -193 1333 -128 q 1094 -258 1213 -258 q 982 -247 1049 -258 l 990 -149 z "},"Ń":{"ha":1036,"x_min":96,"x_max":965,"o":"m 965 989 l 888 0 l 800 0 l 268 793 l 204 0 l 96 0 l 174 989 l 263 989 l 794 196 l 857 989 l 965 989 m 538 1074 l 692 1286 l 824 1286 l 615 1074 l 538 1074 z "},"Ň":{"ha":1036,"x_min":96,"x_max":965,"o":"m 965 989 l 888 0 l 800 0 l 268 793 l 204 0 l 96 0 l 174 989 l 263 989 l 794 196 l 857 989 l 965 989 m 797 1286 l 614 1074 l 539 1074 l 389 1286 l 489 1286 l 583 1140 l 694 1286 l 797 1286 z "},"Ņ":{"ha":1036,"x_min":96,"x_max":965,"o":"m 965 989 l 888 0 l 800 0 l 268 793 l 204 0 l 96 0 l 174 989 l 263 989 l 794 196 l 857 989 l 965 989 m 554 -101 l 549 -182 q 524 -282 543 -239 q 463 -364 504 -325 l 414 -325 q 455 -272 442 -297 q 472 -217 468 -247 l 408 -217 l 417 -101 l 554 -101 z "},"Ṅ":{"ha":1036,"x_min":96,"x_max":965,"o":"m 965 989 l 888 0 l 800 0 l 268 793 l 204 0 l 96 0 l 174 989 l 263 989 l 794 196 l 857 989 l 965 989 m 658 1244 l 649 1117 l 511 1117 l 521 1244 l 658 1244 z "},"Ṇ":{"ha":1036,"x_min":96,"x_max":965,"o":"m 965 989 l 888 0 l 800 0 l 268 793 l 204 0 l 96 0 l 174 989 l 263 989 l 794 196 l 857 989 l 965 989 m 549 -132 l 538 -256 l 408 -256 l 419 -132 l 549 -132 z "},"Ŋ":{"ha":1036,"x_min":96,"x_max":965,"o":"m 965 989 l 888 6 q 618 -256 869 -240 l 531 -262 l 528 -168 l 610 -162 q 731 -117 688 -157 q 779 -3 774 -76 l 782 26 l 268 793 l 204 0 l 96 0 l 174 989 l 263 989 l 794 196 l 857 989 l 965 989 z "},"ǋ":{"ha":1367,"x_min":96,"x_max":1321,"o":"m 965 989 l 888 0 l 800 0 l 268 793 l 204 0 l 96 0 l 174 989 l 263 989 l 794 196 l 857 989 l 965 989 m 917 -199 q 983 -210 954 -210 q 1111 -69 1100 -210 l 1174 699 l 1285 699 l 1222 -83 q 1154 -249 1213 -193 q 1000 -306 1096 -306 q 908 -293 954 -306 l 917 -199 m 1321 994 l 1311 867 l 1172 867 l 1183 994 l 1321 994 z "},"Ṉ":{"ha":1036,"x_min":96,"x_max":965,"o":"m 965 989 l 888 0 l 800 0 l 268 793 l 204 0 l 96 0 l 174 989 l 263 989 l 794 196 l 857 989 l 965 989 m 272 -153 l 692 -153 l 685 -236 l 265 -236 l 272 -153 z "},"Ñ":{"ha":1036,"x_min":96,"x_max":965,"o":"m 965 989 l 888 0 l 800 0 l 268 793 l 204 0 l 96 0 l 174 989 l 263 989 l 794 196 l 857 989 l 965 989 m 353 1103 q 394 1224 357 1183 q 490 1264 432 1264 q 544 1252 519 1264 q 604 1218 568 1240 q 649 1192 631 1201 q 683 1183 667 1183 q 733 1203 714 1183 q 754 1260 751 1224 l 818 1260 q 776 1140 814 1181 q 679 1099 738 1099 q 625 1110 650 1099 q 567 1144 600 1122 q 520 1172 536 1164 q 488 1179 504 1179 q 438 1159 457 1179 q 415 1103 418 1139 l 353 1103 z "},"O":{"ha":1072,"x_min":97,"x_max":999,"o":"m 538 -12 q 302 44 401 -12 q 150 205 203 100 q 97 453 97 310 q 154 742 97 618 q 315 934 211 867 q 558 1001 419 1001 q 794 945 694 1001 q 946 784 893 889 q 999 535 999 679 q 942 246 999 369 q 781 55 885 122 q 538 -12 676 -12 m 538 86 q 720 140 643 86 q 839 296 797 194 q 881 536 881 397 q 797 808 881 713 q 558 903 714 903 q 374 849 451 903 q 256 693 297 794 q 214 451 214 592 q 298 181 214 275 q 538 86 382 86 z "},"Ó":{"ha":1072,"x_min":97,"x_max":999,"o":"m 538 -12 q 302 44 401 -12 q 150 205 203 100 q 97 453 97 310 q 154 742 97 618 q 315 934 211 867 q 558 1001 419 1001 q 794 945 694 1001 q 946 784 893 889 q 999 535 999 679 q 942 246 999 369 q 781 55 885 122 q 538 -12 676 -12 m 538 86 q 720 140 643 86 q 839 296 797 194 q 881 536 881 397 q 797 808 881 713 q 558 903 714 903 q 374 849 451 903 q 256 693 297 794 q 214 451 214 592 q 298 181 214 275 q 538 86 382 86 m 553 1074 l 707 1286 l 839 1286 l 631 1074 l 553 1074 z "},"Ŏ":{"ha":1072,"x_min":97,"x_max":999,"o":"m 538 -12 q 302 44 401 -12 q 150 205 203 100 q 97 453 97 310 q 154 742 97 618 q 315 934 211 867 q 558 1001 419 1001 q 794 945 694 1001 q 946 784 893 889 q 999 535 999 679 q 942 246 999 369 q 781 55 885 122 q 538 -12 676 -12 m 538 86 q 720 140 643 86 q 839 296 797 194 q 881 536 881 397 q 797 808 881 713 q 558 903 714 903 q 374 849 451 903 q 256 693 297 794 q 214 451 214 592 q 298 181 214 275 q 538 86 382 86 m 596 1090 q 459 1128 518 1090 q 375 1239 400 1165 l 450 1269 q 513 1193 476 1215 q 600 1171 549 1171 q 689 1192 650 1171 q 763 1269 728 1214 l 833 1239 q 735 1126 796 1163 q 596 1090 674 1090 z "},"Ô":{"ha":1072,"x_min":97,"x_max":999,"o":"m 538 -12 q 302 44 401 -12 q 150 205 203 100 q 97 453 97 310 q 154 742 97 618 q 315 934 211 867 q 558 1001 419 1001 q 794 945 694 1001 q 946 784 893 889 q 999 535 999 679 q 942 246 999 369 q 781 55 885 122 q 538 -12 676 -12 m 538 86 q 720 140 643 86 q 839 296 797 194 q 881 536 881 397 q 797 808 881 713 q 558 903 714 903 q 374 849 451 903 q 256 693 297 794 q 214 451 214 592 q 298 181 214 275 q 538 86 382 86 m 388 1074 l 571 1286 l 646 1286 l 796 1074 l 696 1074 l 607 1218 l 490 1074 l 388 1074 z "},"Ố":{"ha":1072,"x_min":97,"x_max":999,"o":"m 538 -12 q 302 44 401 -12 q 150 205 203 100 q 97 453 97 310 q 154 742 97 618 q 315 934 211 867 q 558 1001 419 1001 q 794 945 694 1001 q 946 784 893 889 q 999 535 999 679 q 942 246 999 369 q 781 55 885 122 q 538 -12 676 -12 m 538 86 q 720 140 643 86 q 839 296 797 194 q 881 536 881 397 q 797 808 881 713 q 558 903 714 903 q 374 849 451 903 q 256 693 297 794 q 214 451 214 592 q 298 181 214 275 q 538 86 382 86 m 863 1415 l 988 1415 l 790 1218 l 722 1218 l 863 1415 m 571 1279 l 646 1279 l 796 1074 l 696 1074 l 606 1213 l 490 1074 l 388 1074 l 571 1279 z "},"Ộ":{"ha":1072,"x_min":97,"x_max":999,"o":"m 538 -12 q 302 44 401 -12 q 150 205 203 100 q 97 453 97 310 q 154 742 97 618 q 315 934 211 867 q 558 1001 419 1001 q 794 945 694 1001 q 946 784 893 889 q 999 535 999 679 q 942 246 999 369 q 781 55 885 122 q 538 -12 676 -12 m 538 86 q 720 140 643 86 q 839 296 797 194 q 881 536 881 397 q 797 808 881 713 q 558 903 714 903 q 374 849 451 903 q 256 693 297 794 q 214 451 214 592 q 298 181 214 275 q 538 86 382 86 m 565 -132 l 554 -256 l 425 -256 l 436 -132 l 565 -132 m 388 1074 l 571 1286 l 646 1286 l 796 1074 l 696 1074 l 607 1218 l 490 1074 l 388 1074 z "},"Ồ":{"ha":1072,"x_min":97,"x_max":999,"o":"m 538 -12 q 302 44 401 -12 q 150 205 203 100 q 97 453 97 310 q 154 742 97 618 q 315 934 211 867 q 558 1001 419 1001 q 794 945 694 1001 q 946 784 893 889 q 999 535 999 679 q 942 246 999 369 q 781 55 885 122 q 538 -12 676 -12 m 538 86 q 720 140 643 86 q 839 296 797 194 q 881 536 881 397 q 797 808 881 713 q 558 903 714 903 q 374 849 451 903 q 256 693 297 794 q 214 451 214 592 q 298 181 214 275 q 538 86 382 86 m 643 1415 l 754 1415 l 851 1218 l 781 1218 l 643 1415 m 571 1279 l 646 1279 l 796 1074 l 696 1074 l 606 1213 l 490 1074 l 388 1074 l 571 1279 z "},"Ổ":{"ha":1072,"x_min":97,"x_max":999,"o":"m 538 -12 q 302 44 401 -12 q 150 205 203 100 q 97 453 97 310 q 154 742 97 618 q 315 934 211 867 q 558 1001 419 1001 q 794 945 694 1001 q 946 784 893 889 q 999 535 999 679 q 942 246 999 369 q 781 55 885 122 q 538 -12 676 -12 m 538 86 q 720 140 643 86 q 839 296 797 194 q 881 536 881 397 q 797 808 881 713 q 558 903 714 903 q 374 849 451 903 q 256 693 297 794 q 214 451 214 592 q 298 181 214 275 q 538 86 382 86 m 722 1242 q 740 1280 724 1267 q 786 1304 757 1293 q 817 1319 808 1314 q 825 1335 825 1325 q 810 1351 825 1344 q 774 1357 796 1357 q 681 1340 732 1357 l 667 1401 q 782 1424 722 1424 q 878 1401 843 1424 q 914 1344 914 1379 q 897 1301 914 1315 q 844 1269 879 1286 q 810 1251 822 1260 q 796 1231 797 1243 l 794 1218 l 721 1218 l 722 1242 m 571 1279 l 646 1279 l 796 1074 l 696 1074 l 606 1213 l 490 1074 l 388 1074 l 571 1279 z "},"Ỗ":{"ha":1072,"x_min":97,"x_max":999,"o":"m 538 -12 q 302 44 401 -12 q 150 205 203 100 q 97 453 97 310 q 154 742 97 618 q 315 934 211 867 q 558 1001 419 1001 q 794 945 694 1001 q 946 784 893 889 q 999 535 999 679 q 942 246 999 369 q 781 55 885 122 q 538 -12 676 -12 m 538 86 q 720 140 643 86 q 839 296 797 194 q 881 536 881 397 q 797 808 881 713 q 558 903 714 903 q 374 849 451 903 q 256 693 297 794 q 214 451 214 592 q 298 181 214 275 q 538 86 382 86 m 383 1300 q 424 1400 386 1363 q 518 1438 463 1438 q 572 1429 547 1438 q 635 1404 596 1421 q 681 1384 663 1390 q 717 1378 699 1378 q 764 1395 746 1378 q 783 1440 782 1413 l 847 1440 q 806 1339 844 1376 q 713 1301 768 1301 q 656 1310 683 1301 q 594 1336 629 1319 q 550 1356 568 1349 q 514 1363 532 1363 q 467 1345 485 1363 q 446 1300 449 1328 l 383 1300 m 571 1279 l 646 1279 l 796 1074 l 696 1074 l 606 1213 l 490 1074 l 388 1074 l 571 1279 z "},"Ȍ":{"ha":1072,"x_min":97,"x_max":999,"o":"m 538 -12 q 302 44 401 -12 q 150 205 203 100 q 97 453 97 310 q 154 742 97 618 q 315 934 211 867 q 558 1001 419 1001 q 794 945 694 1001 q 946 784 893 889 q 999 535 999 679 q 942 246 999 369 q 781 55 885 122 q 538 -12 676 -12 m 538 86 q 720 140 643 86 q 839 296 797 194 q 881 536 881 397 q 797 808 881 713 q 558 903 714 903 q 374 849 451 903 q 256 693 297 794 q 214 451 214 592 q 298 181 214 275 q 538 86 382 86 m 358 1286 l 454 1286 l 539 1074 l 478 1074 l 358 1286 m 525 1286 l 621 1286 l 706 1074 l 644 1074 l 525 1286 z "},"Ö":{"ha":1072,"x_min":97,"x_max":999,"o":"m 538 -12 q 302 44 401 -12 q 150 205 203 100 q 97 453 97 310 q 154 742 97 618 q 315 934 211 867 q 558 1001 419 1001 q 794 945 694 1001 q 946 784 893 889 q 999 535 999 679 q 942 246 999 369 q 781 55 885 122 q 538 -12 676 -12 m 538 86 q 720 140 643 86 q 839 296 797 194 q 881 536 881 397 q 797 808 881 713 q 558 903 714 903 q 374 849 451 903 q 256 693 297 794 q 214 451 214 592 q 298 181 214 275 q 538 86 382 86 m 549 1240 l 538 1121 l 414 1121 l 422 1240 l 549 1240 m 788 1240 l 779 1121 l 653 1121 l 663 1240 l 788 1240 z "},"Ȫ":{"ha":1072,"x_min":97,"x_max":999,"o":"m 538 -12 q 302 44 401 -12 q 150 205 203 100 q 97 453 97 310 q 154 742 97 618 q 315 934 211 867 q 558 1001 419 1001 q 794 945 694 1001 q 946 784 893 889 q 999 535 999 679 q 942 246 999 369 q 781 55 885 122 q 538 -12 676 -12 m 538 86 q 720 140 643 86 q 839 296 797 194 q 881 536 881 397 q 797 808 881 713 q 558 903 714 903 q 374 849 451 903 q 256 693 297 794 q 214 451 214 592 q 298 181 214 275 q 538 86 382 86 m 549 1240 l 538 1121 l 414 1121 l 422 1240 l 549 1240 m 788 1240 l 779 1121 l 653 1121 l 663 1240 l 788 1240 m 413 1449 l 832 1449 l 825 1363 l 404 1363 l 413 1449 z "},"Ȱ":{"ha":1072,"x_min":97,"x_max":999,"o":"m 538 -12 q 302 44 401 -12 q 150 205 203 100 q 97 453 97 310 q 154 742 97 618 q 315 934 211 867 q 558 1001 419 1001 q 794 945 694 1001 q 946 784 893 889 q 999 535 999 679 q 942 246 999 369 q 781 55 885 122 q 538 -12 676 -12 m 538 86 q 720 140 643 86 q 839 296 797 194 q 881 536 881 397 q 797 808 881 713 q 558 903 714 903 q 374 849 451 903 q 256 693 297 794 q 214 451 214 592 q 298 181 214 275 q 538 86 382 86 m 674 1244 l 664 1117 l 526 1117 l 536 1244 l 674 1244 m 413 1449 l 832 1449 l 825 1363 l 404 1363 l 413 1449 z "},"Ọ":{"ha":1072,"x_min":97,"x_max":999,"o":"m 538 -12 q 302 44 401 -12 q 150 205 203 100 q 97 453 97 310 q 154 742 97 618 q 315 934 211 867 q 558 1001 419 1001 q 794 945 694 1001 q 946 784 893 889 q 999 535 999 679 q 942 246 999 369 q 781 55 885 122 q 538 -12 676 -12 m 538 86 q 720 140 643 86 q 839 296 797 194 q 881 536 881 397 q 797 808 881 713 q 558 903 714 903 q 374 849 451 903 q 256 693 297 794 q 214 451 214 592 q 298 181 214 275 q 538 86 382 86 m 565 -132 l 554 -256 l 425 -256 l 436 -132 l 565 -132 z "},"Ò":{"ha":1072,"x_min":97,"x_max":999,"o":"m 538 -12 q 302 44 401 -12 q 150 205 203 100 q 97 453 97 310 q 154 742 97 618 q 315 934 211 867 q 558 1001 419 1001 q 794 945 694 1001 q 946 784 893 889 q 999 535 999 679 q 942 246 999 369 q 781 55 885 122 q 538 -12 676 -12 m 538 86 q 720 140 643 86 q 839 296 797 194 q 881 536 881 397 q 797 808 881 713 q 558 903 714 903 q 374 849 451 903 q 256 693 297 794 q 214 451 214 592 q 298 181 214 275 q 538 86 382 86 m 386 1286 l 503 1286 l 631 1074 l 553 1074 l 386 1286 z "},"Ỏ":{"ha":1072,"x_min":97,"x_max":999,"o":"m 538 -12 q 302 44 401 -12 q 150 205 203 100 q 97 453 97 310 q 154 742 97 618 q 315 934 211 867 q 558 1001 419 1001 q 794 945 694 1001 q 946 784 893 889 q 999 535 999 679 q 942 246 999 369 q 781 55 885 122 q 538 -12 676 -12 m 538 86 q 720 140 643 86 q 839 296 797 194 q 881 536 881 397 q 797 808 881 713 q 558 903 714 903 q 374 849 451 903 q 256 693 297 794 q 214 451 214 592 q 298 181 214 275 q 538 86 382 86 m 629 1074 l 556 1074 l 557 1099 q 574 1135 558 1122 q 618 1164 589 1149 q 649 1182 639 1174 q 658 1201 658 1190 q 644 1219 658 1213 q 606 1225 631 1225 q 517 1208 565 1225 l 501 1269 q 615 1292 554 1292 q 714 1269 679 1292 q 749 1210 749 1247 q 730 1163 749 1179 q 678 1131 711 1146 q 642 1109 653 1117 q 631 1088 632 1101 l 629 1074 z "},"Ơ":{"ha":1072,"x_min":97,"x_max":1050,"o":"m 1049 1126 q 988 978 1040 1032 q 835 919 935 925 q 954 767 910 864 q 999 535 999 669 q 942 246 999 369 q 781 55 885 122 q 538 -12 676 -12 q 302 44 401 -12 q 150 205 203 100 q 97 453 97 310 q 154 743 97 619 q 319 934 211 867 q 572 1001 426 1001 q 672 996 606 1001 q 782 989 731 989 q 904 1024 867 989 q 949 1143 942 1060 l 950 1164 l 1050 1164 l 1049 1126 m 881 536 q 797 808 881 713 q 558 903 714 903 q 374 849 451 903 q 256 693 297 794 q 214 451 214 592 q 298 181 214 275 q 538 86 382 86 q 720 140 643 86 q 839 296 797 194 q 881 536 881 397 z "},"Ớ":{"ha":1072,"x_min":97,"x_max":1050,"o":"m 1049 1126 q 988 978 1040 1032 q 835 919 935 925 q 954 767 910 864 q 999 535 999 669 q 942 246 999 369 q 781 55 885 122 q 538 -12 676 -12 q 302 44 401 -12 q 150 205 203 100 q 97 453 97 310 q 154 743 97 619 q 319 934 211 867 q 572 1001 426 1001 q 672 996 606 1001 q 782 989 731 989 q 904 1024 867 989 q 949 1143 942 1060 l 950 1164 l 1050 1164 l 1049 1126 m 881 536 q 797 808 881 713 q 558 903 714 903 q 374 849 451 903 q 256 693 297 794 q 214 451 214 592 q 298 181 214 275 q 538 86 382 86 q 720 140 643 86 q 839 296 797 194 q 881 536 881 397 m 553 1074 l 707 1286 l 839 1286 l 631 1074 l 553 1074 z "},"Ợ":{"ha":1072,"x_min":97,"x_max":1050,"o":"m 1049 1126 q 988 978 1040 1032 q 835 919 935 925 q 954 767 910 864 q 999 535 999 669 q 942 246 999 369 q 781 55 885 122 q 538 -12 676 -12 q 302 44 401 -12 q 150 205 203 100 q 97 453 97 310 q 154 743 97 619 q 319 934 211 867 q 572 1001 426 1001 q 672 996 606 1001 q 782 989 731 989 q 904 1024 867 989 q 949 1143 942 1060 l 950 1164 l 1050 1164 l 1049 1126 m 881 536 q 797 808 881 713 q 558 903 714 903 q 374 849 451 903 q 256 693 297 794 q 214 451 214 592 q 298 181 214 275 q 538 86 382 86 q 720 140 643 86 q 839 296 797 194 q 881 536 881 397 m 565 -132 l 554 -256 l 425 -256 l 436 -132 l 565 -132 z "},"Ờ":{"ha":1072,"x_min":97,"x_max":1050,"o":"m 1049 1126 q 988 978 1040 1032 q 835 919 935 925 q 954 767 910 864 q 999 535 999 669 q 942 246 999 369 q 781 55 885 122 q 538 -12 676 -12 q 302 44 401 -12 q 150 205 203 100 q 97 453 97 310 q 154 743 97 619 q 319 934 211 867 q 572 1001 426 1001 q 672 996 606 1001 q 782 989 731 989 q 904 1024 867 989 q 949 1143 942 1060 l 950 1164 l 1050 1164 l 1049 1126 m 881 536 q 797 808 881 713 q 558 903 714 903 q 374 849 451 903 q 256 693 297 794 q 214 451 214 592 q 298 181 214 275 q 538 86 382 86 q 720 140 643 86 q 839 296 797 194 q 881 536 881 397 m 386 1286 l 503 1286 l 631 1074 l 553 1074 l 386 1286 z "},"Ở":{"ha":1072,"x_min":97,"x_max":1050,"o":"m 1049 1126 q 988 978 1040 1032 q 835 919 935 925 q 954 767 910 864 q 999 535 999 669 q 942 246 999 369 q 781 55 885 122 q 538 -12 676 -12 q 302 44 401 -12 q 150 205 203 100 q 97 453 97 310 q 154 743 97 619 q 319 934 211 867 q 572 1001 426 1001 q 672 996 606 1001 q 782 989 731 989 q 904 1024 867 989 q 949 1143 942 1060 l 950 1164 l 1050 1164 l 1049 1126 m 881 536 q 797 808 881 713 q 558 903 714 903 q 374 849 451 903 q 256 693 297 794 q 214 451 214 592 q 298 181 214 275 q 538 86 382 86 q 720 140 643 86 q 839 296 797 194 q 881 536 881 397 m 629 1074 l 556 1074 l 557 1099 q 574 1135 558 1122 q 618 1164 589 1149 q 649 1182 639 1174 q 658 1201 658 1190 q 644 1219 658 1213 q 606 1225 631 1225 q 517 1208 565 1225 l 501 1269 q 615 1292 554 1292 q 714 1269 679 1292 q 749 1210 749 1247 q 730 1163 749 1179 q 678 1131 711 1146 q 642 1109 653 1117 q 631 1088 632 1101 l 629 1074 z "},"Ỡ":{"ha":1072,"x_min":97,"x_max":1050,"o":"m 1049 1126 q 988 978 1040 1032 q 835 919 935 925 q 954 767 910 864 q 999 535 999 669 q 942 246 999 369 q 781 55 885 122 q 538 -12 676 -12 q 302 44 401 -12 q 150 205 203 100 q 97 453 97 310 q 154 743 97 619 q 319 934 211 867 q 572 1001 426 1001 q 672 996 606 1001 q 782 989 731 989 q 904 1024 867 989 q 949 1143 942 1060 l 950 1164 l 1050 1164 l 1049 1126 m 881 536 q 797 808 881 713 q 558 903 714 903 q 374 849 451 903 q 256 693 297 794 q 214 451 214 592 q 298 181 214 275 q 538 86 382 86 q 720 140 643 86 q 839 296 797 194 q 881 536 881 397 m 368 1103 q 410 1224 372 1183 q 506 1264 447 1264 q 559 1252 535 1264 q 619 1218 583 1240 q 664 1192 646 1201 q 699 1183 682 1183 q 748 1203 729 1183 q 769 1260 767 1224 l 833 1260 q 791 1140 829 1181 q 694 1099 753 1099 q 640 1110 665 1099 q 582 1144 615 1122 q 535 1172 551 1164 q 503 1179 519 1179 q 453 1159 472 1179 q 431 1103 433 1139 l 368 1103 z "},"Ő":{"ha":1072,"x_min":97,"x_max":999,"o":"m 538 -12 q 302 44 401 -12 q 150 205 203 100 q 97 453 97 310 q 154 742 97 618 q 315 934 211 867 q 558 1001 419 1001 q 794 945 694 1001 q 946 784 893 889 q 999 535 999 679 q 942 246 999 369 q 781 55 885 122 q 538 -12 676 -12 m 538 86 q 720 140 643 86 q 839 296 797 194 q 881 536 881 397 q 797 808 881 713 q 558 903 714 903 q 374 849 451 903 q 256 693 297 794 q 214 451 214 592 q 298 181 214 275 q 538 86 382 86 m 592 1286 l 694 1286 l 539 1074 l 478 1074 l 592 1286 m 758 1286 l 861 1286 l 706 1074 l 644 1074 l 758 1286 z "},"Ȏ":{"ha":1072,"x_min":97,"x_max":999,"o":"m 538 -12 q 302 44 401 -12 q 150 205 203 100 q 97 453 97 310 q 154 742 97 618 q 315 934 211 867 q 558 1001 419 1001 q 794 945 694 1001 q 946 784 893 889 q 999 535 999 679 q 942 246 999 369 q 781 55 885 122 q 538 -12 676 -12 m 538 86 q 720 140 643 86 q 839 296 797 194 q 881 536 881 397 q 797 808 881 713 q 558 903 714 903 q 374 849 451 903 q 256 693 297 794 q 214 451 214 592 q 298 181 214 275 q 538 86 382 86 m 604 1271 q 741 1233 682 1271 q 825 1122 800 1196 l 750 1092 q 688 1168 724 1146 q 600 1190 651 1190 q 511 1168 550 1190 q 438 1092 472 1146 l 367 1122 q 465 1235 404 1199 q 604 1271 526 1271 z "},"Ō":{"ha":1072,"x_min":97,"x_max":999,"o":"m 538 -12 q 302 44 401 -12 q 150 205 203 100 q 97 453 97 310 q 154 742 97 618 q 315 934 211 867 q 558 1001 419 1001 q 794 945 694 1001 q 946 784 893 889 q 999 535 999 679 q 942 246 999 369 q 781 55 885 122 q 538 -12 676 -12 m 538 86 q 720 140 643 86 q 839 296 797 194 q 881 536 881 397 q 797 808 881 713 q 558 903 714 903 q 374 849 451 903 q 256 693 297 794 q 214 451 214 592 q 298 181 214 275 q 538 86 382 86 m 394 1224 l 814 1224 l 807 1138 l 386 1138 l 394 1224 z "},"Ṓ":{"ha":1072,"x_min":97,"x_max":999,"o":"m 538 -12 q 302 44 401 -12 q 150 205 203 100 q 97 453 97 310 q 154 742 97 618 q 315 934 211 867 q 558 1001 419 1001 q 794 945 694 1001 q 946 784 893 889 q 999 535 999 679 q 942 246 999 369 q 781 55 885 122 q 538 -12 676 -12 m 538 86 q 720 140 643 86 q 839 296 797 194 q 881 536 881 397 q 797 808 881 713 q 558 903 714 903 q 374 849 451 903 q 256 693 297 794 q 214 451 214 592 q 298 181 214 275 q 538 86 382 86 m 394 1224 l 814 1224 l 807 1138 l 386 1138 l 394 1224 m 571 1299 l 725 1511 l 857 1511 l 649 1299 l 571 1299 z "},"Ṑ":{"ha":1072,"x_min":97,"x_max":999,"o":"m 538 -12 q 302 44 401 -12 q 150 205 203 100 q 97 453 97 310 q 154 742 97 618 q 315 934 211 867 q 558 1001 419 1001 q 794 945 694 1001 q 946 784 893 889 q 999 535 999 679 q 942 246 999 369 q 781 55 885 122 q 538 -12 676 -12 m 538 86 q 720 140 643 86 q 839 296 797 194 q 881 536 881 397 q 797 808 881 713 q 558 903 714 903 q 374 849 451 903 q 256 693 297 794 q 214 451 214 592 q 298 181 214 275 q 538 86 382 86 m 394 1224 l 814 1224 l 807 1138 l 386 1138 l 394 1224 m 404 1511 l 521 1511 l 649 1299 l 571 1299 l 404 1511 z "},"Ǫ":{"ha":1072,"x_min":97,"x_max":999,"o":"m 647 0 q 532 -114 532 -25 q 554 -175 532 -154 q 615 -196 576 -196 q 700 -172 653 -196 l 717 -239 q 663 -262 693 -253 q 600 -271 632 -271 q 485 -232 528 -271 q 442 -129 442 -193 q 494 -10 442 -58 q 283 55 372 -3 q 145 215 193 113 q 97 453 97 317 q 154 742 97 618 q 315 934 211 867 q 558 1001 419 1001 q 794 945 694 1001 q 946 784 893 889 q 999 535 999 679 q 954 274 999 386 q 830 92 910 161 q 647 0 750 24 m 214 451 q 298 181 214 275 q 538 86 382 86 q 720 140 643 86 q 839 296 797 194 q 881 536 881 397 q 797 808 881 713 q 558 903 714 903 q 374 849 451 903 q 256 693 297 794 q 214 451 214 592 z "},"Ø":{"ha":1072,"x_min":97,"x_max":999,"o":"m 867 892 q 965 740 931 831 q 999 535 999 650 q 942 246 999 369 q 781 55 885 122 q 538 -12 676 -12 q 303 43 403 -12 l 231 -65 l 154 -17 l 229 97 q 131 249 165 158 q 97 453 97 339 q 154 742 97 618 q 315 934 211 867 q 558 1001 419 1001 q 793 946 693 1001 l 865 1054 l 943 1006 l 867 892 m 214 451 q 290 189 214 285 l 736 860 q 558 903 661 903 q 374 849 451 903 q 256 693 297 794 q 214 451 214 592 m 538 86 q 720 140 643 86 q 839 296 797 194 q 881 536 881 397 q 806 799 881 703 l 360 129 q 538 86 435 86 z "},"Ǿ":{"ha":1072,"x_min":97,"x_max":999,"o":"m 867 892 q 965 740 931 831 q 999 535 999 650 q 942 246 999 369 q 781 55 885 122 q 538 -12 676 -12 q 303 43 403 -12 l 231 -65 l 154 -17 l 229 97 q 131 249 165 158 q 97 453 97 339 q 154 742 97 618 q 315 934 211 867 q 558 1001 419 1001 q 793 946 693 1001 l 865 1054 l 943 1006 l 867 892 m 214 451 q 290 189 214 285 l 736 860 q 558 903 661 903 q 374 849 451 903 q 256 693 297 794 q 214 451 214 592 m 538 86 q 720 140 643 86 q 839 296 797 194 q 881 536 881 397 q 806 799 881 703 l 360 129 q 538 86 435 86 m 553 1074 l 707 1286 l 839 1286 l 631 1074 l 553 1074 z "},"Õ":{"ha":1072,"x_min":97,"x_max":999,"o":"m 538 -12 q 302 44 401 -12 q 150 205 203 100 q 97 453 97 310 q 154 742 97 618 q 315 934 211 867 q 558 1001 419 1001 q 794 945 694 1001 q 946 784 893 889 q 999 535 999 679 q 942 246 999 369 q 781 55 885 122 q 538 -12 676 -12 m 538 86 q 720 140 643 86 q 839 296 797 194 q 881 536 881 397 q 797 808 881 713 q 558 903 714 903 q 374 849 451 903 q 256 693 297 794 q 214 451 214 592 q 298 181 214 275 q 538 86 382 86 m 368 1103 q 410 1224 372 1183 q 506 1264 447 1264 q 559 1252 535 1264 q 619 1218 583 1240 q 664 1192 646 1201 q 699 1183 682 1183 q 748 1203 729 1183 q 769 1260 767 1224 l 833 1260 q 791 1140 829 1181 q 694 1099 753 1099 q 640 1110 665 1099 q 582 1144 615 1122 q 535 1172 551 1164 q 503 1179 519 1179 q 453 1159 472 1179 q 431 1103 433 1139 l 368 1103 z "},"Ṍ":{"ha":1072,"x_min":97,"x_max":999,"o":"m 538 -12 q 302 44 401 -12 q 150 205 203 100 q 97 453 97 310 q 154 742 97 618 q 315 934 211 867 q 558 1001 419 1001 q 794 945 694 1001 q 946 784 893 889 q 999 535 999 679 q 942 246 999 369 q 781 55 885 122 q 538 -12 676 -12 m 538 86 q 720 140 643 86 q 839 296 797 194 q 881 536 881 397 q 797 808 881 713 q 558 903 714 903 q 374 849 451 903 q 256 693 297 794 q 214 451 214 592 q 298 181 214 275 q 538 86 382 86 m 368 1103 q 410 1224 372 1183 q 506 1264 447 1264 q 559 1252 535 1264 q 619 1218 583 1240 q 664 1192 646 1201 q 699 1183 682 1183 q 748 1203 729 1183 q 769 1260 767 1224 l 833 1260 q 791 1140 829 1181 q 694 1099 753 1099 q 640 1110 665 1099 q 582 1144 615 1122 q 535 1172 551 1164 q 503 1179 519 1179 q 453 1159 472 1179 q 431 1103 433 1139 l 368 1103 m 571 1299 l 725 1511 l 857 1511 l 649 1299 l 571 1299 z "},"Ṏ":{"ha":1072,"x_min":97,"x_max":999,"o":"m 538 -12 q 302 44 401 -12 q 150 205 203 100 q 97 453 97 310 q 154 742 97 618 q 315 934 211 867 q 558 1001 419 1001 q 794 945 694 1001 q 946 784 893 889 q 999 535 999 679 q 942 246 999 369 q 781 55 885 122 q 538 -12 676 -12 m 538 86 q 720 140 643 86 q 839 296 797 194 q 881 536 881 397 q 797 808 881 713 q 558 903 714 903 q 374 849 451 903 q 256 693 297 794 q 214 451 214 592 q 298 181 214 275 q 538 86 382 86 m 368 1103 q 410 1224 372 1183 q 506 1264 447 1264 q 559 1252 535 1264 q 619 1218 583 1240 q 664 1192 646 1201 q 699 1183 682 1183 q 748 1203 729 1183 q 769 1260 767 1224 l 833 1260 q 791 1140 829 1181 q 694 1099 753 1099 q 640 1110 665 1099 q 582 1144 615 1122 q 535 1172 551 1164 q 503 1179 519 1179 q 453 1159 472 1179 q 431 1103 433 1139 l 368 1103 m 567 1465 l 556 1346 l 432 1346 l 440 1465 l 567 1465 m 806 1465 l 797 1346 l 671 1346 l 681 1465 l 806 1465 z "},"Ȭ":{"ha":1072,"x_min":97,"x_max":999,"o":"m 538 -12 q 302 44 401 -12 q 150 205 203 100 q 97 453 97 310 q 154 742 97 618 q 315 934 211 867 q 558 1001 419 1001 q 794 945 694 1001 q 946 784 893 889 q 999 535 999 679 q 942 246 999 369 q 781 55 885 122 q 538 -12 676 -12 m 538 86 q 720 140 643 86 q 839 296 797 194 q 881 536 881 397 q 797 808 881 713 q 558 903 714 903 q 374 849 451 903 q 256 693 297 794 q 214 451 214 592 q 298 181 214 275 q 538 86 382 86 m 368 1103 q 410 1224 372 1183 q 506 1264 447 1264 q 559 1252 535 1264 q 619 1218 583 1240 q 664 1192 646 1201 q 699 1183 682 1183 q 748 1203 729 1183 q 769 1260 767 1224 l 833 1260 q 791 1140 829 1181 q 694 1099 753 1099 q 640 1110 665 1099 q 582 1144 615 1122 q 535 1172 551 1164 q 503 1179 519 1179 q 453 1159 472 1179 q 431 1103 433 1139 l 368 1103 m 413 1449 l 832 1449 l 825 1363 l 404 1363 l 413 1449 z "},"Œ":{"ha":1467,"x_min":97,"x_max":1447,"o":"m 928 894 l 901 550 l 1386 550 l 1378 454 l 894 454 l 867 94 l 1379 94 l 1371 0 l 749 0 l 753 56 q 526 -12 657 -12 q 299 44 396 -12 q 149 205 201 100 q 97 453 97 310 q 154 743 97 619 q 318 934 211 867 q 568 1001 425 1001 q 822 929 717 1001 l 826 989 l 1447 989 l 1440 894 l 928 894 m 214 451 q 298 181 214 275 q 538 86 382 86 q 654 106 597 86 q 757 163 711 125 l 810 826 q 707 883 768 864 q 576 903 646 903 q 308 783 403 903 q 214 451 214 664 z "},"P":{"ha":906,"x_min":96,"x_max":871,"o":"m 554 989 q 788 918 706 989 q 871 731 871 847 q 778 511 871 588 q 521 435 685 435 l 244 435 l 211 0 l 96 0 l 174 989 l 554 989 m 515 529 q 696 578 633 529 q 758 725 758 628 q 706 849 758 804 q 546 894 653 894 l 281 894 l 253 529 l 515 529 z "},"Þ":{"ha":904,"x_min":96,"x_max":854,"o":"m 556 771 q 776 706 699 771 q 854 519 854 642 q 770 309 854 383 q 525 235 686 235 l 228 235 l 210 0 l 96 0 l 174 989 l 288 989 l 271 771 l 556 771 m 518 328 q 742 514 742 328 q 692 637 742 597 q 546 676 643 676 l 263 676 l 236 328 l 518 328 z "},"Q":{"ha":1072,"x_min":97,"x_max":999,"o":"m 999 535 q 914 193 999 332 q 681 8 829 54 q 840 -193 736 -100 l 756 -265 q 648 -154 700 -222 q 560 -12 596 -86 l 538 -12 q 302 44 401 -12 q 150 205 203 100 q 97 453 97 310 q 154 742 97 618 q 315 934 211 867 q 558 1001 419 1001 q 794 945 694 1001 q 946 784 893 889 q 999 535 999 679 m 538 86 q 720 140 643 86 q 839 296 797 194 q 881 536 881 397 q 797 808 881 713 q 558 903 714 903 q 374 849 451 903 q 256 693 297 794 q 214 451 214 592 q 298 181 214 275 q 538 86 382 86 z "},"R":{"ha":963,"x_min":97,"x_max":890,"o":"m 664 451 q 733 407 706 440 q 778 313 760 374 l 872 0 l 753 0 l 653 329 q 593 410 635 389 q 476 432 551 432 l 244 432 l 210 0 l 97 0 l 174 989 l 576 989 q 808 922 726 989 q 890 732 890 854 q 833 549 890 621 q 664 451 776 476 m 539 526 q 779 725 779 526 q 569 894 779 894 l 281 894 l 251 526 l 539 526 z "},"Ŕ":{"ha":963,"x_min":97,"x_max":890,"o":"m 664 451 q 733 407 706 440 q 778 313 760 374 l 872 0 l 753 0 l 653 329 q 593 410 635 389 q 476 432 551 432 l 244 432 l 210 0 l 97 0 l 174 989 l 576 989 q 808 922 726 989 q 890 732 890 854 q 833 549 890 621 q 664 451 776 476 m 539 526 q 779 725 779 526 q 569 894 779 894 l 281 894 l 251 526 l 539 526 m 497 1074 l 651 1286 l 783 1286 l 575 1074 l 497 1074 z "},"Ř":{"ha":963,"x_min":97,"x_max":890,"o":"m 664 451 q 733 407 706 440 q 778 313 760 374 l 872 0 l 753 0 l 653 329 q 593 410 635 389 q 476 432 551 432 l 244 432 l 210 0 l 97 0 l 174 989 l 576 989 q 808 922 726 989 q 890 732 890 854 q 833 549 890 621 q 664 451 776 476 m 539 526 q 779 725 779 526 q 569 894 779 894 l 281 894 l 251 526 l 539 526 m 757 1286 l 574 1074 l 499 1074 l 349 1286 l 449 1286 l 543 1140 l 654 1286 l 757 1286 z "},"Ŗ":{"ha":963,"x_min":97,"x_max":890,"o":"m 664 451 q 733 407 706 440 q 778 313 760 374 l 872 0 l 753 0 l 653 329 q 593 410 635 389 q 476 432 551 432 l 244 432 l 210 0 l 97 0 l 174 989 l 576 989 q 808 922 726 989 q 890 732 890 854 q 833 549 890 621 q 664 451 776 476 m 539 526 q 779 725 779 526 q 569 894 779 894 l 281 894 l 251 526 l 539 526 m 513 -101 l 507 -182 q 482 -282 501 -239 q 421 -364 463 -325 l 372 -325 q 413 -272 400 -297 q 431 -217 426 -247 l 367 -217 l 375 -101 l 513 -101 z "},"Ȑ":{"ha":963,"x_min":97,"x_max":890,"o":"m 664 451 q 733 407 706 440 q 778 313 760 374 l 872 0 l 753 0 l 653 329 q 593 410 635 389 q 476 432 551 432 l 244 432 l 210 0 l 97 0 l 174 989 l 576 989 q 808 922 726 989 q 890 732 890 854 q 833 549 890 621 q 664 451 776 476 m 539 526 q 779 725 779 526 q 569 894 779 894 l 281 894 l 251 526 l 539 526 m 303 1286 l 399 1286 l 483 1074 l 422 1074 l 303 1286 m 469 1286 l 565 1286 l 650 1074 l 589 1074 l 469 1286 z "},"Ṛ":{"ha":963,"x_min":97,"x_max":890,"o":"m 664 451 q 733 407 706 440 q 778 313 760 374 l 872 0 l 753 0 l 653 329 q 593 410 635 389 q 476 432 551 432 l 244 432 l 210 0 l 97 0 l 174 989 l 576 989 q 808 922 726 989 q 890 732 890 854 q 833 549 890 621 q 664 451 776 476 m 539 526 q 779 725 779 526 q 569 894 779 894 l 281 894 l 251 526 l 539 526 m 507 -132 l 496 -256 l 367 -256 l 378 -132 l 507 -132 z "},"Ȓ":{"ha":963,"x_min":97,"x_max":890,"o":"m 664 451 q 733 407 706 440 q 778 313 760 374 l 872 0 l 753 0 l 653 329 q 593 410 635 389 q 476 432 551 432 l 244 432 l 210 0 l 97 0 l 174 989 l 576 989 q 808 922 726 989 q 890 732 890 854 q 833 549 890 621 q 664 451 776 476 m 539 526 q 779 725 779 526 q 569 894 779 894 l 281 894 l 251 526 l 539 526 m 549 1271 q 685 1233 626 1271 q 769 1122 744 1196 l 694 1092 q 632 1168 668 1146 q 544 1190 596 1190 q 456 1168 494 1190 q 382 1092 417 1146 l 311 1122 q 410 1235 349 1199 q 549 1271 471 1271 z "},"Ṟ":{"ha":963,"x_min":97,"x_max":890,"o":"m 664 451 q 733 407 706 440 q 778 313 760 374 l 872 0 l 753 0 l 653 329 q 593 410 635 389 q 476 432 551 432 l 244 432 l 210 0 l 97 0 l 174 989 l 576 989 q 808 922 726 989 q 890 732 890 854 q 833 549 890 621 q 664 451 776 476 m 539 526 q 779 725 779 526 q 569 894 779 894 l 281 894 l 251 526 l 539 526 m 231 -153 l 650 -153 l 643 -236 l 224 -236 l 231 -153 z "},"S":{"ha":865,"x_min":49,"x_max":829,"o":"m 426 -11 q 217 19 310 -11 q 49 114 125 50 l 100 201 q 253 113 175 140 q 428 85 332 85 q 613 130 549 85 q 678 257 678 175 q 646 340 678 307 q 567 391 614 372 q 438 433 519 410 q 269 492 333 464 q 159 574 204 519 q 114 719 114 629 q 159 867 114 804 q 287 965 204 931 q 481 1000 369 1000 q 675 967 585 1000 q 829 875 765 935 l 778 788 q 479 904 642 904 q 294 857 358 904 q 229 725 229 810 q 263 633 229 669 q 348 577 297 597 q 485 532 399 557 q 647 476 585 503 q 753 399 710 450 q 796 265 796 347 q 697 63 796 138 q 426 -11 597 -11 z "},"Ś":{"ha":865,"x_min":49,"x_max":829,"o":"m 426 -11 q 217 19 310 -11 q 49 114 125 50 l 100 201 q 253 113 175 140 q 428 85 332 85 q 613 130 549 85 q 678 257 678 175 q 646 340 678 307 q 567 391 614 372 q 438 433 519 410 q 269 492 333 464 q 159 574 204 519 q 114 719 114 629 q 159 867 114 804 q 287 965 204 931 q 481 1000 369 1000 q 675 967 585 1000 q 829 875 765 935 l 778 788 q 479 904 642 904 q 294 857 358 904 q 229 725 229 810 q 263 633 229 669 q 348 577 297 597 q 485 532 399 557 q 647 476 585 503 q 753 399 710 450 q 796 265 796 347 q 697 63 796 138 q 426 -11 597 -11 m 453 1074 l 607 1286 l 739 1286 l 531 1074 l 453 1074 z "},"Ṥ":{"ha":865,"x_min":49,"x_max":829,"o":"m 426 -11 q 217 19 310 -11 q 49 114 125 50 l 100 201 q 253 113 175 140 q 428 85 332 85 q 613 130 549 85 q 678 257 678 175 q 646 340 678 307 q 567 391 614 372 q 438 433 519 410 q 269 492 333 464 q 159 574 204 519 q 114 719 114 629 q 159 867 114 804 q 287 965 204 931 q 481 1000 369 1000 q 675 967 585 1000 q 829 875 765 935 l 778 788 q 479 904 642 904 q 294 857 358 904 q 229 725 229 810 q 263 633 229 669 q 348 577 297 597 q 485 532 399 557 q 647 476 585 503 q 753 399 710 450 q 796 265 796 347 q 697 63 796 138 q 426 -11 597 -11 m 463 1074 l 617 1286 l 749 1286 l 540 1074 l 463 1074 m 415 1285 l 406 1157 l 268 1157 l 278 1285 l 415 1285 z "},"Š":{"ha":865,"x_min":49,"x_max":829,"o":"m 426 -11 q 217 19 310 -11 q 49 114 125 50 l 100 201 q 253 113 175 140 q 428 85 332 85 q 613 130 549 85 q 678 257 678 175 q 646 340 678 307 q 567 391 614 372 q 438 433 519 410 q 269 492 333 464 q 159 574 204 519 q 114 719 114 629 q 159 867 114 804 q 287 965 204 931 q 481 1000 369 1000 q 675 967 585 1000 q 829 875 765 935 l 778 788 q 479 904 642 904 q 294 857 358 904 q 229 725 229 810 q 263 633 229 669 q 348 577 297 597 q 485 532 399 557 q 647 476 585 503 q 753 399 710 450 q 796 265 796 347 q 697 63 796 138 q 426 -11 597 -11 m 713 1286 l 529 1074 l 454 1074 l 304 1286 l 404 1286 l 499 1140 l 610 1286 l 713 1286 z "},"Ṧ":{"ha":865,"x_min":49,"x_max":829,"o":"m 426 -11 q 217 19 310 -11 q 49 114 125 50 l 100 201 q 253 113 175 140 q 428 85 332 85 q 613 130 549 85 q 678 257 678 175 q 646 340 678 307 q 567 391 614 372 q 438 433 519 410 q 269 492 333 464 q 159 574 204 519 q 114 719 114 629 q 159 867 114 804 q 287 965 204 931 q 481 1000 369 1000 q 675 967 585 1000 q 829 875 765 935 l 778 788 q 479 904 642 904 q 294 857 358 904 q 229 725 229 810 q 263 633 229 669 q 348 577 297 597 q 485 532 399 557 q 647 476 585 503 q 753 399 710 450 q 796 265 796 347 q 697 63 796 138 q 426 -11 597 -11 m 713 1286 l 529 1074 l 454 1074 l 304 1286 l 404 1286 l 499 1140 l 610 1286 l 713 1286 m 592 1469 l 582 1342 l 444 1342 l 454 1469 l 592 1469 z "},"Ş":{"ha":865,"x_min":49,"x_max":829,"o":"m 229 725 q 263 633 229 669 q 348 577 297 597 q 485 532 399 557 q 647 476 585 503 q 753 399 710 450 q 796 265 796 347 q 699 65 796 139 q 436 -11 603 -8 l 426 -60 q 454 -57 436 -57 q 530 -82 501 -57 q 558 -151 558 -107 q 515 -237 558 -204 q 394 -271 472 -271 q 329 -264 364 -271 q 268 -244 294 -257 l 289 -183 q 394 -203 343 -203 q 453 -190 432 -203 q 475 -154 475 -178 q 463 -126 475 -136 q 426 -117 450 -117 q 364 -129 396 -117 l 339 -107 l 358 -8 q 49 114 178 6 l 100 201 q 253 113 175 140 q 428 85 332 85 q 613 130 549 85 q 678 257 678 175 q 646 340 678 307 q 567 391 614 372 q 438 433 519 410 q 269 492 333 464 q 159 574 204 519 q 114 719 114 629 q 159 867 114 804 q 287 965 204 931 q 481 1000 369 1000 q 675 967 585 1000 q 829 875 765 935 l 778 788 q 479 904 642 904 q 294 857 358 904 q 229 725 229 810 z "},"Ŝ":{"ha":865,"x_min":49,"x_max":829,"o":"m 426 -11 q 217 19 310 -11 q 49 114 125 50 l 100 201 q 253 113 175 140 q 428 85 332 85 q 613 130 549 85 q 678 257 678 175 q 646 340 678 307 q 567 391 614 372 q 438 433 519 410 q 269 492 333 464 q 159 574 204 519 q 114 719 114 629 q 159 867 114 804 q 287 965 204 931 q 481 1000 369 1000 q 675 967 585 1000 q 829 875 765 935 l 778 788 q 479 904 642 904 q 294 857 358 904 q 229 725 229 810 q 263 633 229 669 q 348 577 297 597 q 485 532 399 557 q 647 476 585 503 q 753 399 710 450 q 796 265 796 347 q 697 63 796 138 q 426 -11 597 -11 m 288 1074 l 471 1286 l 546 1286 l 696 1074 l 596 1074 l 507 1218 l 390 1074 l 288 1074 z "},"Ș":{"ha":865,"x_min":49,"x_max":829,"o":"m 426 -11 q 217 19 310 -11 q 49 114 125 50 l 100 201 q 253 113 175 140 q 428 85 332 85 q 613 130 549 85 q 678 257 678 175 q 646 340 678 307 q 567 391 614 372 q 438 433 519 410 q 269 492 333 464 q 159 574 204 519 q 114 719 114 629 q 159 867 114 804 q 287 965 204 931 q 481 1000 369 1000 q 675 967 585 1000 q 829 875 765 935 l 778 788 q 479 904 642 904 q 294 857 358 904 q 229 725 229 810 q 263 633 229 669 q 348 577 297 597 q 485 532 399 557 q 647 476 585 503 q 753 399 710 450 q 796 265 796 347 q 697 63 796 138 q 426 -11 597 -11 m 472 -101 l 467 -182 q 442 -282 461 -239 q 381 -364 422 -325 l 332 -325 q 373 -272 360 -297 q 390 -217 386 -247 l 326 -217 l 335 -101 l 472 -101 z "},"Ṡ":{"ha":865,"x_min":49,"x_max":829,"o":"m 426 -11 q 217 19 310 -11 q 49 114 125 50 l 100 201 q 253 113 175 140 q 428 85 332 85 q 613 130 549 85 q 678 257 678 175 q 646 340 678 307 q 567 391 614 372 q 438 433 519 410 q 269 492 333 464 q 159 574 204 519 q 114 719 114 629 q 159 867 114 804 q 287 965 204 931 q 481 1000 369 1000 q 675 967 585 1000 q 829 875 765 935 l 778 788 q 479 904 642 904 q 294 857 358 904 q 229 725 229 810 q 263 633 229 669 q 348 577 297 597 q 485 532 399 557 q 647 476 585 503 q 753 399 710 450 q 796 265 796 347 q 697 63 796 138 q 426 -11 597 -11 m 574 1244 l 564 1117 l 426 1117 l 436 1244 l 574 1244 z "},"Ṣ":{"ha":865,"x_min":49,"x_max":829,"o":"m 426 -11 q 217 19 310 -11 q 49 114 125 50 l 100 201 q 253 113 175 140 q 428 85 332 85 q 613 130 549 85 q 678 257 678 175 q 646 340 678 307 q 567 391 614 372 q 438 433 519 410 q 269 492 333 464 q 159 574 204 519 q 114 719 114 629 q 159 867 114 804 q 287 965 204 931 q 481 1000 369 1000 q 675 967 585 1000 q 829 875 765 935 l 778 788 q 479 904 642 904 q 294 857 358 904 q 229 725 229 810 q 263 633 229 669 q 348 577 297 597 q 485 532 399 557 q 647 476 585 503 q 753 399 710 450 q 796 265 796 347 q 697 63 796 138 q 426 -11 597 -11 m 467 -132 l 456 -256 l 326 -256 l 338 -132 l 467 -132 z "},"Ṩ":{"ha":865,"x_min":49,"x_max":829,"o":"m 426 -11 q 217 19 310 -11 q 49 114 125 50 l 100 201 q 253 113 175 140 q 428 85 332 85 q 613 130 549 85 q 678 257 678 175 q 646 340 678 307 q 567 391 614 372 q 438 433 519 410 q 269 492 333 464 q 159 574 204 519 q 114 719 114 629 q 159 867 114 804 q 287 965 204 931 q 481 1000 369 1000 q 675 967 585 1000 q 829 875 765 935 l 778 788 q 479 904 642 904 q 294 857 358 904 q 229 725 229 810 q 263 633 229 669 q 348 577 297 597 q 485 532 399 557 q 647 476 585 503 q 753 399 710 450 q 796 265 796 347 q 697 63 796 138 q 426 -11 597 -11 m 467 -132 l 456 -256 l 326 -256 l 338 -132 l 467 -132 m 574 1244 l 564 1117 l 426 1117 l 436 1244 l 574 1244 z "},"ẞ":{"ha":967,"x_min":96,"x_max":881,"o":"m 692 515 q 832 438 783 496 q 881 288 881 379 q 840 133 881 201 q 726 28 799 65 q 558 -10 653 -10 q 301 81 408 -10 l 347 168 q 551 86 454 86 q 710 140 653 86 q 768 289 768 193 q 544 454 768 454 l 367 454 l 375 550 l 515 550 q 678 600 621 550 q 736 743 736 650 q 681 859 736 817 q 535 901 626 901 q 336 838 401 901 q 260 640 271 775 l 208 0 l 96 0 l 146 649 q 259 910 160 822 q 538 999 358 999 q 765 932 681 999 q 849 750 849 865 q 808 603 849 664 q 692 515 768 543 z "},"Ə":{"ha":1042,"x_min":96,"x_max":968,"o":"m 539 1000 q 767 944 669 1000 q 916 783 864 889 q 968 535 968 678 q 911 246 968 369 q 749 56 854 122 q 500 -11 643 -11 q 280 43 371 -11 q 142 197 189 97 q 96 428 96 296 q 99 497 96 450 l 103 550 l 850 550 q 762 811 847 719 q 522 903 676 903 q 358 874 433 901 q 213 788 283 847 l 176 875 q 539 1000 314 1000 m 503 86 q 738 183 649 86 q 846 453 828 279 l 213 453 q 278 183 204 279 q 503 86 353 86 z "},"T":{"ha":838,"x_min":60,"x_max":872,"o":"m 406 892 l 60 892 l 68 989 l 872 989 l 865 892 l 521 892 l 450 0 l 335 0 l 406 892 z "},"Ŧ":{"ha":838,"x_min":60,"x_max":872,"o":"m 521 892 l 493 547 l 693 547 l 685 456 l 486 456 l 450 0 l 335 0 l 371 456 l 169 456 l 178 547 l 378 547 l 406 892 l 60 892 l 68 989 l 872 989 l 865 892 l 521 892 z "},"Ť":{"ha":838,"x_min":60,"x_max":872,"o":"m 406 892 l 60 892 l 68 989 l 872 989 l 865 892 l 521 892 l 450 0 l 335 0 l 406 892 m 697 1286 l 514 1074 l 439 1074 l 289 1286 l 389 1286 l 483 1140 l 594 1286 l 697 1286 z "},"Ţ":{"ha":838,"x_min":60,"x_max":872,"o":"m 421 0 l 408 -60 q 436 -57 418 -57 q 512 -82 483 -57 q 540 -151 540 -107 q 497 -237 540 -204 q 376 -271 454 -271 q 311 -264 346 -271 q 250 -244 276 -257 l 271 -183 q 376 -203 325 -203 q 435 -190 414 -203 q 457 -154 457 -178 q 444 -126 457 -136 q 408 -117 432 -117 q 346 -129 378 -117 l 321 -107 l 342 0 l 335 0 l 406 892 l 60 892 l 68 989 l 872 989 l 865 892 l 521 892 l 450 0 l 421 0 z "},"Ț":{"ha":838,"x_min":60,"x_max":872,"o":"m 406 892 l 60 892 l 68 989 l 872 989 l 865 892 l 521 892 l 450 0 l 335 0 l 406 892 m 454 -101 l 449 -182 q 424 -282 443 -239 q 363 -364 404 -325 l 314 -325 q 355 -272 342 -297 q 372 -217 368 -247 l 308 -217 l 317 -101 l 454 -101 z "},"Ṭ":{"ha":838,"x_min":60,"x_max":872,"o":"m 406 892 l 60 892 l 68 989 l 872 989 l 865 892 l 521 892 l 450 0 l 335 0 l 406 892 m 449 -132 l 438 -256 l 308 -256 l 319 -132 l 449 -132 z "},"Ṯ":{"ha":838,"x_min":60,"x_max":872,"o":"m 406 892 l 60 892 l 68 989 l 872 989 l 865 892 l 521 892 l 450 0 l 335 0 l 406 892 m 172 -153 l 592 -153 l 585 -236 l 165 -236 l 172 -153 z "},"U":{"ha":1015,"x_min":117,"x_max":951,"o":"m 489 -11 q 210 78 304 -11 q 117 339 117 168 q 118 390 117 372 l 165 989 l 279 989 l 232 392 q 231 347 231 376 q 492 86 231 86 q 704 157 629 86 q 789 375 779 228 l 838 989 l 951 989 l 903 386 q 783 88 888 188 q 489 -11 679 -11 z "},"Ú":{"ha":1015,"x_min":117,"x_max":951,"o":"m 489 -11 q 210 78 304 -11 q 117 339 117 168 q 118 390 117 372 l 165 989 l 279 989 l 232 392 q 231 347 231 376 q 492 86 231 86 q 704 157 629 86 q 789 375 779 228 l 838 989 l 951 989 l 903 386 q 783 88 888 188 q 489 -11 679 -11 m 526 1074 l 681 1286 l 813 1286 l 604 1074 l 526 1074 z "},"Ŭ":{"ha":1015,"x_min":117,"x_max":951,"o":"m 489 -11 q 210 78 304 -11 q 117 339 117 168 q 118 390 117 372 l 165 989 l 279 989 l 232 392 q 231 347 231 376 q 492 86 231 86 q 704 157 629 86 q 789 375 779 228 l 838 989 l 951 989 l 903 386 q 783 88 888 188 q 489 -11 679 -11 m 569 1090 q 433 1128 492 1090 q 349 1239 374 1165 l 424 1269 q 486 1193 450 1215 q 574 1171 522 1171 q 663 1192 624 1171 q 736 1269 701 1214 l 807 1239 q 708 1126 769 1163 q 569 1090 647 1090 z "},"Û":{"ha":1015,"x_min":117,"x_max":951,"o":"m 489 -11 q 210 78 304 -11 q 117 339 117 168 q 118 390 117 372 l 165 989 l 279 989 l 232 392 q 231 347 231 376 q 492 86 231 86 q 704 157 629 86 q 789 375 779 228 l 838 989 l 951 989 l 903 386 q 783 88 888 188 q 489 -11 679 -11 m 361 1074 l 544 1286 l 619 1286 l 769 1074 l 669 1074 l 581 1218 l 464 1074 l 361 1074 z "},"Ȕ":{"ha":1015,"x_min":117,"x_max":951,"o":"m 489 -11 q 210 78 304 -11 q 117 339 117 168 q 118 390 117 372 l 165 989 l 279 989 l 232 392 q 231 347 231 376 q 492 86 231 86 q 704 157 629 86 q 789 375 779 228 l 838 989 l 951 989 l 903 386 q 783 88 888 188 q 489 -11 679 -11 m 332 1286 l 428 1286 l 513 1074 l 451 1074 l 332 1286 m 499 1286 l 594 1286 l 679 1074 l 618 1074 l 499 1286 z "},"Ü":{"ha":1015,"x_min":117,"x_max":951,"o":"m 489 -11 q 210 78 304 -11 q 117 339 117 168 q 118 390 117 372 l 165 989 l 279 989 l 232 392 q 231 347 231 376 q 492 86 231 86 q 704 157 629 86 q 789 375 779 228 l 838 989 l 951 989 l 903 386 q 783 88 888 188 q 489 -11 679 -11 m 522 1240 l 511 1121 l 388 1121 l 396 1240 l 522 1240 m 761 1240 l 753 1121 l 626 1121 l 636 1240 l 761 1240 z "},"Ụ":{"ha":1015,"x_min":117,"x_max":951,"o":"m 489 -11 q 210 78 304 -11 q 117 339 117 168 q 118 390 117 372 l 165 989 l 279 989 l 232 392 q 231 347 231 376 q 492 86 231 86 q 704 157 629 86 q 789 375 779 228 l 838 989 l 951 989 l 903 386 q 783 88 888 188 q 489 -11 679 -11 m 536 -132 l 525 -256 l 396 -256 l 407 -132 l 536 -132 z "},"Ù":{"ha":1015,"x_min":117,"x_max":951,"o":"m 489 -11 q 210 78 304 -11 q 117 339 117 168 q 118 390 117 372 l 165 989 l 279 989 l 232 392 q 231 347 231 376 q 492 86 231 86 q 704 157 629 86 q 789 375 779 228 l 838 989 l 951 989 l 903 386 q 783 88 888 188 q 489 -11 679 -11 m 360 1286 l 476 1286 l 604 1074 l 526 1074 l 360 1286 z "},"Ủ":{"ha":1015,"x_min":117,"x_max":951,"o":"m 489 -11 q 210 78 304 -11 q 117 339 117 168 q 118 390 117 372 l 165 989 l 279 989 l 232 392 q 231 347 231 376 q 492 86 231 86 q 704 157 629 86 q 789 375 779 228 l 838 989 l 951 989 l 903 386 q 783 88 888 188 q 489 -11 679 -11 m 603 1074 l 529 1074 l 531 1099 q 547 1135 532 1122 q 592 1164 563 1149 q 622 1182 613 1174 q 632 1201 632 1190 q 618 1219 632 1213 q 579 1225 604 1225 q 490 1208 539 1225 l 475 1269 q 589 1292 528 1292 q 688 1269 653 1292 q 722 1210 722 1247 q 703 1163 722 1179 q 651 1131 685 1146 q 616 1109 626 1117 q 604 1088 606 1101 l 603 1074 z "},"Ư":{"ha":1015,"x_min":117,"x_max":1129,"o":"m 1129 1164 l 1126 1126 q 1074 990 1121 1043 q 947 922 1026 938 l 903 386 q 783 88 888 188 q 489 -11 679 -11 q 210 78 304 -11 q 117 339 117 168 q 118 390 117 372 l 165 989 l 279 989 l 232 392 q 231 347 231 376 q 492 86 231 86 q 704 157 629 86 q 789 375 779 228 l 838 989 l 869 989 q 985 1025 949 990 q 1026 1143 1021 1060 l 1028 1164 l 1129 1164 z "},"Ứ":{"ha":1015,"x_min":117,"x_max":1129,"o":"m 1129 1164 l 1126 1126 q 1074 990 1121 1043 q 947 922 1026 938 l 903 386 q 783 88 888 188 q 489 -11 679 -11 q 210 78 304 -11 q 117 339 117 168 q 118 390 117 372 l 165 989 l 279 989 l 232 392 q 231 347 231 376 q 492 86 231 86 q 704 157 629 86 q 789 375 779 228 l 838 989 l 869 989 q 985 1025 949 990 q 1026 1143 1021 1060 l 1028 1164 l 1129 1164 m 526 1074 l 681 1286 l 813 1286 l 604 1074 l 526 1074 z "},"Ự":{"ha":1015,"x_min":117,"x_max":1129,"o":"m 1129 1164 l 1126 1126 q 1074 990 1121 1043 q 947 922 1026 938 l 903 386 q 783 88 888 188 q 489 -11 679 -11 q 210 78 304 -11 q 117 339 117 168 q 118 390 117 372 l 165 989 l 279 989 l 232 392 q 231 347 231 376 q 492 86 231 86 q 704 157 629 86 q 789 375 779 228 l 838 989 l 869 989 q 985 1025 949 990 q 1026 1143 1021 1060 l 1028 1164 l 1129 1164 m 536 -132 l 525 -256 l 396 -256 l 407 -132 l 536 -132 z "},"Ừ":{"ha":1015,"x_min":117,"x_max":1129,"o":"m 1129 1164 l 1126 1126 q 1074 990 1121 1043 q 947 922 1026 938 l 903 386 q 783 88 888 188 q 489 -11 679 -11 q 210 78 304 -11 q 117 339 117 168 q 118 390 117 372 l 165 989 l 279 989 l 232 392 q 231 347 231 376 q 492 86 231 86 q 704 157 629 86 q 789 375 779 228 l 838 989 l 869 989 q 985 1025 949 990 q 1026 1143 1021 1060 l 1028 1164 l 1129 1164 m 360 1286 l 476 1286 l 604 1074 l 526 1074 l 360 1286 z "},"Ử":{"ha":1015,"x_min":117,"x_max":1129,"o":"m 1129 1164 l 1126 1126 q 1074 990 1121 1043 q 947 922 1026 938 l 903 386 q 783 88 888 188 q 489 -11 679 -11 q 210 78 304 -11 q 117 339 117 168 q 118 390 117 372 l 165 989 l 279 989 l 232 392 q 231 347 231 376 q 492 86 231 86 q 704 157 629 86 q 789 375 779 228 l 838 989 l 869 989 q 985 1025 949 990 q 1026 1143 1021 1060 l 1028 1164 l 1129 1164 m 603 1074 l 529 1074 l 531 1099 q 547 1135 532 1122 q 592 1164 563 1149 q 622 1182 613 1174 q 632 1201 632 1190 q 618 1219 632 1213 q 579 1225 604 1225 q 490 1208 539 1225 l 475 1269 q 589 1292 528 1292 q 688 1269 653 1292 q 722 1210 722 1247 q 703 1163 722 1179 q 651 1131 685 1146 q 616 1109 626 1117 q 604 1088 606 1101 l 603 1074 z "},"Ữ":{"ha":1015,"x_min":117,"x_max":1129,"o":"m 1129 1164 l 1126 1126 q 1074 990 1121 1043 q 947 922 1026 938 l 903 386 q 783 88 888 188 q 489 -11 679 -11 q 210 78 304 -11 q 117 339 117 168 q 118 390 117 372 l 165 989 l 279 989 l 232 392 q 231 347 231 376 q 492 86 231 86 q 704 157 629 86 q 789 375 779 228 l 838 989 l 869 989 q 985 1025 949 990 q 1026 1143 1021 1060 l 1028 1164 l 1129 1164 m 342 1103 q 383 1224 346 1183 q 479 1264 421 1264 q 533 1252 508 1264 q 593 1218 557 1240 q 638 1192 619 1201 q 672 1183 656 1183 q 722 1203 703 1183 q 743 1260 740 1224 l 807 1260 q 765 1140 803 1181 q 668 1099 726 1099 q 614 1110 639 1099 q 556 1144 589 1122 q 509 1172 525 1164 q 476 1179 493 1179 q 426 1159 446 1179 q 404 1103 407 1139 l 342 1103 z "},"Ű":{"ha":1015,"x_min":117,"x_max":951,"o":"m 489 -11 q 210 78 304 -11 q 117 339 117 168 q 118 390 117 372 l 165 989 l 279 989 l 232 392 q 231 347 231 376 q 492 86 231 86 q 704 157 629 86 q 789 375 779 228 l 838 989 l 951 989 l 903 386 q 783 88 888 188 q 489 -11 679 -11 m 565 1286 l 668 1286 l 513 1074 l 451 1074 l 565 1286 m 732 1286 l 835 1286 l 679 1074 l 618 1074 l 732 1286 z "},"Ȗ":{"ha":1015,"x_min":117,"x_max":951,"o":"m 489 -11 q 210 78 304 -11 q 117 339 117 168 q 118 390 117 372 l 165 989 l 279 989 l 232 392 q 231 347 231 376 q 492 86 231 86 q 704 157 629 86 q 789 375 779 228 l 838 989 l 951 989 l 903 386 q 783 88 888 188 q 489 -11 679 -11 m 578 1271 q 715 1233 656 1271 q 799 1122 774 1196 l 724 1092 q 661 1168 697 1146 q 574 1190 625 1190 q 485 1168 524 1190 q 411 1092 446 1146 l 340 1122 q 439 1235 378 1199 q 578 1271 500 1271 z "},"Ū":{"ha":1015,"x_min":117,"x_max":951,"o":"m 489 -11 q 210 78 304 -11 q 117 339 117 168 q 118 390 117 372 l 165 989 l 279 989 l 232 392 q 231 347 231 376 q 492 86 231 86 q 704 157 629 86 q 789 375 779 228 l 838 989 l 951 989 l 903 386 q 783 88 888 188 q 489 -11 679 -11 m 368 1224 l 788 1224 l 781 1138 l 360 1138 l 368 1224 z "},"Ṻ":{"ha":1015,"x_min":117,"x_max":951,"o":"m 489 -11 q 210 78 304 -11 q 117 339 117 168 q 118 390 117 372 l 165 989 l 279 989 l 232 392 q 231 347 231 376 q 492 86 231 86 q 704 157 629 86 q 789 375 779 228 l 838 989 l 951 989 l 903 386 q 783 88 888 188 q 489 -11 679 -11 m 368 1224 l 788 1224 l 781 1138 l 360 1138 l 368 1224 m 540 1465 l 529 1346 l 406 1346 l 414 1465 l 540 1465 m 779 1465 l 771 1346 l 644 1346 l 654 1465 l 779 1465 z "},"Ų":{"ha":1015,"x_min":117,"x_max":951,"o":"m 951 989 l 903 386 q 633 6 879 72 q 543 -40 572 -11 q 514 -114 514 -69 q 535 -175 514 -154 q 597 -196 557 -196 q 681 -172 633 -196 l 699 -239 q 643 -262 675 -253 q 581 -271 611 -271 q 466 -233 508 -271 q 424 -132 424 -194 q 482 -11 424 -54 q 209 79 301 -11 q 117 339 117 169 q 118 390 117 372 l 165 989 l 279 989 l 232 392 q 231 347 231 376 q 492 86 231 86 q 704 157 629 86 q 789 375 779 228 l 838 989 l 951 989 z "},"Ů":{"ha":1015,"x_min":117,"x_max":951,"o":"m 489 -11 q 210 78 304 -11 q 117 339 117 168 q 118 390 117 372 l 165 989 l 279 989 l 232 392 q 231 347 231 376 q 492 86 231 86 q 704 157 629 86 q 789 375 779 228 l 838 989 l 951 989 l 903 386 q 783 88 888 188 q 489 -11 679 -11 m 575 1067 q 474 1106 515 1067 q 433 1206 433 1146 q 474 1304 433 1264 q 575 1344 515 1344 q 676 1304 635 1344 q 717 1206 717 1264 q 676 1106 717 1146 q 575 1067 635 1067 m 575 1135 q 623 1155 604 1135 q 642 1206 642 1175 q 623 1255 642 1235 q 575 1275 604 1275 q 526 1255 546 1275 q 507 1206 507 1235 q 526 1155 507 1175 q 575 1135 546 1135 z "},"Ũ":{"ha":1015,"x_min":117,"x_max":951,"o":"m 489 -11 q 210 78 304 -11 q 117 339 117 168 q 118 390 117 372 l 165 989 l 279 989 l 232 392 q 231 347 231 376 q 492 86 231 86 q 704 157 629 86 q 789 375 779 228 l 838 989 l 951 989 l 903 386 q 783 88 888 188 q 489 -11 679 -11 m 342 1103 q 383 1224 346 1183 q 479 1264 421 1264 q 533 1252 508 1264 q 593 1218 557 1240 q 638 1192 619 1201 q 672 1183 656 1183 q 722 1203 703 1183 q 743 1260 740 1224 l 807 1260 q 765 1140 803 1181 q 668 1099 726 1099 q 614 1110 639 1099 q 556 1144 589 1122 q 509 1172 525 1164 q 476 1179 493 1179 q 426 1159 446 1179 q 404 1103 407 1139 l 342 1103 z "},"Ṹ":{"ha":1015,"x_min":117,"x_max":951,"o":"m 489 -11 q 210 78 304 -11 q 117 339 117 168 q 118 390 117 372 l 165 989 l 279 989 l 232 392 q 231 347 231 376 q 492 86 231 86 q 704 157 629 86 q 789 375 779 228 l 838 989 l 951 989 l 903 386 q 783 88 888 188 q 489 -11 679 -11 m 342 1103 q 383 1224 346 1183 q 479 1264 421 1264 q 533 1252 508 1264 q 593 1218 557 1240 q 638 1192 619 1201 q 672 1183 656 1183 q 722 1203 703 1183 q 743 1260 740 1224 l 807 1260 q 765 1140 803 1181 q 668 1099 726 1099 q 614 1110 639 1099 q 556 1144 589 1122 q 509 1172 525 1164 q 476 1179 493 1179 q 426 1159 446 1179 q 404 1103 407 1139 l 342 1103 m 544 1299 l 699 1511 l 831 1511 l 622 1299 l 544 1299 z "},"V":{"ha":968,"x_min":53,"x_max":1017,"o":"m 1017 989 l 507 0 l 408 0 l 53 989 l 174 989 l 469 143 l 897 989 l 1017 989 z "},"W":{"ha":1544,"x_min":97,"x_max":1547,"o":"m 1547 989 l 1125 0 l 1026 0 l 808 808 l 463 0 l 365 0 l 97 989 l 213 989 l 429 163 l 781 989 l 868 988 l 1086 160 l 1435 989 l 1547 989 z "},"Ẃ":{"ha":1544,"x_min":97,"x_max":1547,"o":"m 1547 989 l 1125 0 l 1026 0 l 808 808 l 463 0 l 365 0 l 97 989 l 213 989 l 429 163 l 781 989 l 868 988 l 1086 160 l 1435 989 l 1547 989 m 790 1074 l 944 1286 l 1076 1286 l 868 1074 l 790 1074 z "},"Ŵ":{"ha":1544,"x_min":97,"x_max":1547,"o":"m 1547 989 l 1125 0 l 1026 0 l 808 808 l 463 0 l 365 0 l 97 989 l 213 989 l 429 163 l 781 989 l 868 988 l 1086 160 l 1435 989 l 1547 989 m 625 1074 l 808 1286 l 883 1286 l 1033 1074 l 933 1074 l 844 1218 l 728 1074 l 625 1074 z "},"Ẅ":{"ha":1544,"x_min":97,"x_max":1547,"o":"m 1547 989 l 1125 0 l 1026 0 l 808 808 l 463 0 l 365 0 l 97 989 l 213 989 l 429 163 l 781 989 l 868 988 l 1086 160 l 1435 989 l 1547 989 m 786 1240 l 775 1121 l 651 1121 l 660 1240 l 786 1240 m 1025 1240 l 1017 1121 l 890 1121 l 900 1240 l 1025 1240 z "},"Ẁ":{"ha":1544,"x_min":97,"x_max":1547,"o":"m 1547 989 l 1125 0 l 1026 0 l 808 808 l 463 0 l 365 0 l 97 989 l 213 989 l 429 163 l 781 989 l 868 988 l 1086 160 l 1435 989 l 1547 989 m 624 1286 l 740 1286 l 868 1074 l 790 1074 l 624 1286 z "},"X":{"ha":906,"x_min":-15,"x_max":928,"o":"m 532 504 l 868 0 l 733 0 l 461 418 l 122 0 l -15 0 l 401 508 l 81 989 l 214 989 l 472 594 l 790 989 l 928 989 l 532 504 z "},"Y":{"ha":843,"x_min":25,"x_max":917,"o":"m 483 400 l 451 0 l 336 0 l 368 401 l 25 989 l 156 989 l 431 496 l 783 989 l 917 989 l 483 400 z "},"Ý":{"ha":843,"x_min":25,"x_max":917,"o":"m 483 400 l 451 0 l 336 0 l 368 401 l 25 989 l 156 989 l 431 496 l 783 989 l 917 989 l 483 400 m 439 1074 l 593 1286 l 725 1286 l 517 1074 l 439 1074 z "},"Ŷ":{"ha":843,"x_min":25,"x_max":917,"o":"m 483 400 l 451 0 l 336 0 l 368 401 l 25 989 l 156 989 l 431 496 l 783 989 l 917 989 l 483 400 m 274 1074 l 457 1286 l 532 1286 l 682 1074 l 582 1074 l 493 1218 l 376 1074 l 274 1074 z "},"Ÿ":{"ha":843,"x_min":25,"x_max":917,"o":"m 483 400 l 451 0 l 336 0 l 368 401 l 25 989 l 156 989 l 431 496 l 783 989 l 917 989 l 483 400 m 435 1240 l 424 1121 l 300 1121 l 308 1240 l 435 1240 m 674 1240 l 665 1121 l 539 1121 l 549 1240 l 674 1240 z "},"Ẏ":{"ha":843,"x_min":25,"x_max":917,"o":"m 483 400 l 451 0 l 336 0 l 368 401 l 25 989 l 156 989 l 431 496 l 783 989 l 917 989 l 483 400 m 560 1244 l 550 1117 l 413 1117 l 422 1244 l 560 1244 z "},"Ỵ":{"ha":843,"x_min":25,"x_max":917,"o":"m 483 400 l 451 0 l 336 0 l 368 401 l 25 989 l 156 989 l 431 496 l 783 989 l 917 989 l 483 400 m 450 -132 l 439 -256 l 310 -256 l 321 -132 l 450 -132 z "},"Ỳ":{"ha":843,"x_min":25,"x_max":917,"o":"m 483 400 l 451 0 l 336 0 l 368 401 l 25 989 l 156 989 l 431 496 l 783 989 l 917 989 l 483 400 m 272 1286 l 389 1286 l 517 1074 l 439 1074 l 272 1286 z "},"Ỷ":{"ha":843,"x_min":25,"x_max":917,"o":"m 483 400 l 451 0 l 336 0 l 368 401 l 25 989 l 156 989 l 431 496 l 783 989 l 917 989 l 483 400 m 515 1074 l 442 1074 l 443 1099 q 460 1135 444 1122 q 504 1164 475 1149 q 535 1182 525 1174 q 544 1201 544 1190 q 531 1219 544 1213 q 492 1225 517 1225 q 403 1208 451 1225 l 388 1269 q 501 1292 440 1292 q 600 1269 565 1292 q 635 1210 635 1247 q 616 1163 635 1179 q 564 1131 597 1146 q 528 1109 539 1117 q 517 1088 518 1101 l 515 1074 z "},"Ȳ":{"ha":843,"x_min":25,"x_max":917,"o":"m 483 400 l 451 0 l 336 0 l 368 401 l 25 989 l 156 989 l 431 496 l 783 989 l 917 989 l 483 400 m 281 1224 l 700 1224 l 693 1138 l 272 1138 l 281 1224 z "},"Ỹ":{"ha":843,"x_min":25,"x_max":917,"o":"m 483 400 l 451 0 l 336 0 l 368 401 l 25 989 l 156 989 l 431 496 l 783 989 l 917 989 l 483 400 m 254 1103 q 296 1224 258 1183 q 392 1264 333 1264 q 445 1252 421 1264 q 506 1218 469 1240 q 550 1192 532 1201 q 585 1183 568 1183 q 634 1203 615 1183 q 656 1260 653 1224 l 719 1260 q 677 1140 715 1181 q 581 1099 639 1099 q 526 1110 551 1099 q 468 1144 501 1122 q 422 1172 438 1164 q 389 1179 406 1179 q 339 1159 358 1179 q 317 1103 319 1139 l 254 1103 z "},"Z":{"ha":828,"x_min":36,"x_max":813,"o":"m 806 906 l 181 96 l 757 96 l 749 0 l 36 0 l 42 85 l 667 893 l 107 893 l 115 989 l 813 989 l 806 906 z "},"Ź":{"ha":828,"x_min":36,"x_max":813,"o":"m 806 906 l 181 96 l 757 96 l 749 0 l 36 0 l 42 85 l 667 893 l 107 893 l 115 989 l 813 989 l 806 906 m 431 1074 l 585 1286 l 717 1286 l 508 1074 l 431 1074 z "},"Ž":{"ha":828,"x_min":36,"x_max":813,"o":"m 806 906 l 181 96 l 757 96 l 749 0 l 36 0 l 42 85 l 667 893 l 107 893 l 115 989 l 813 989 l 806 906 m 690 1286 l 507 1074 l 432 1074 l 282 1286 l 382 1286 l 476 1140 l 588 1286 l 690 1286 z "},"Ż":{"ha":828,"x_min":36,"x_max":813,"o":"m 806 906 l 181 96 l 757 96 l 749 0 l 36 0 l 42 85 l 667 893 l 107 893 l 115 989 l 813 989 l 806 906 m 551 1244 l 542 1117 l 404 1117 l 414 1244 l 551 1244 z "},"Ẓ":{"ha":828,"x_min":36,"x_max":813,"o":"m 806 906 l 181 96 l 757 96 l 749 0 l 36 0 l 42 85 l 667 893 l 107 893 l 115 989 l 813 989 l 806 906 m 449 -132 l 438 -256 l 308 -256 l 319 -132 l 449 -132 z "},"a":{"ha":833,"x_min":67,"x_max":751,"o":"m 751 699 l 696 0 l 586 0 l 596 113 q 500 22 563 54 q 364 -10 438 -10 q 208 31 275 -10 q 103 149 140 72 q 67 328 67 225 q 108 531 67 443 q 223 667 149 618 q 394 715 297 715 q 540 678 478 715 q 632 575 601 642 l 642 699 l 751 699 m 393 82 q 556 162 496 82 q 615 378 615 242 q 561 560 615 497 q 406 622 507 622 q 240 544 300 622 q 181 326 181 465 q 236 147 181 211 q 393 82 292 82 z "},"á":{"ha":833,"x_min":67,"x_max":751,"o":"m 751 699 l 696 0 l 586 0 l 596 113 q 500 22 563 54 q 364 -10 438 -10 q 208 31 275 -10 q 103 149 140 72 q 67 328 67 225 q 108 531 67 443 q 223 667 149 618 q 394 715 297 715 q 540 678 478 715 q 632 575 601 642 l 642 699 l 751 699 m 393 82 q 556 162 496 82 q 615 378 615 242 q 561 560 615 497 q 406 622 507 622 q 240 544 300 622 q 181 326 181 465 q 236 147 181 211 q 393 82 292 82 m 414 789 l 572 1072 l 707 1072 l 492 789 l 414 789 z "},"ă":{"ha":833,"x_min":67,"x_max":751,"o":"m 751 699 l 696 0 l 586 0 l 596 113 q 500 22 563 54 q 364 -10 438 -10 q 208 31 275 -10 q 103 149 140 72 q 67 328 67 225 q 108 531 67 443 q 223 667 149 618 q 394 715 297 715 q 540 678 478 715 q 632 575 601 642 l 642 699 l 751 699 m 393 82 q 556 162 496 82 q 615 378 615 242 q 561 560 615 497 q 406 622 507 622 q 240 544 300 622 q 181 326 181 465 q 236 147 181 211 q 393 82 292 82 m 458 831 q 322 875 381 831 q 239 1008 263 919 l 313 1039 q 464 914 360 914 q 556 942 514 914 q 632 1039 597 971 l 701 1008 q 601 874 665 917 q 458 831 538 831 z "},"ắ":{"ha":833,"x_min":67,"x_max":751,"o":"m 751 699 l 696 0 l 586 0 l 596 113 q 500 22 563 54 q 364 -10 438 -10 q 208 31 275 -10 q 103 149 140 72 q 67 328 67 225 q 108 531 67 443 q 223 667 149 618 q 394 715 297 715 q 540 678 478 715 q 632 575 601 642 l 642 699 l 751 699 m 393 82 q 556 162 496 82 q 615 378 615 242 q 561 560 615 497 q 406 622 507 622 q 240 544 300 622 q 181 326 181 465 q 236 147 181 211 q 393 82 292 82 m 426 933 l 578 1132 l 706 1132 l 501 933 l 426 933 m 456 782 q 319 819 378 782 q 235 931 261 856 l 304 958 q 369 881 331 903 q 461 858 407 858 q 552 881 511 858 q 628 958 593 903 l 692 931 q 594 817 656 853 q 456 782 532 782 z "},"ặ":{"ha":833,"x_min":67,"x_max":751,"o":"m 751 699 l 696 0 l 586 0 l 596 113 q 500 22 563 54 q 364 -10 438 -10 q 208 31 275 -10 q 103 149 140 72 q 67 328 67 225 q 108 531 67 443 q 223 667 149 618 q 394 715 297 715 q 540 678 478 715 q 632 575 601 642 l 642 699 l 751 699 m 393 82 q 556 162 496 82 q 615 378 615 242 q 561 560 615 497 q 406 622 507 622 q 240 544 300 622 q 181 326 181 465 q 236 147 181 211 q 393 82 292 82 m 447 -132 l 436 -256 l 307 -256 l 318 -132 l 447 -132 m 458 831 q 322 875 381 831 q 239 1008 263 919 l 313 1039 q 464 914 360 914 q 556 942 514 914 q 632 1039 597 971 l 701 1008 q 601 874 665 917 q 458 831 538 831 z "},"ằ":{"ha":833,"x_min":67,"x_max":751,"o":"m 751 699 l 696 0 l 586 0 l 596 113 q 500 22 563 54 q 364 -10 438 -10 q 208 31 275 -10 q 103 149 140 72 q 67 328 67 225 q 108 531 67 443 q 223 667 149 618 q 394 715 297 715 q 540 678 478 715 q 632 575 601 642 l 642 699 l 751 699 m 393 82 q 556 162 496 82 q 615 378 615 242 q 561 560 615 497 q 406 622 507 622 q 240 544 300 622 q 181 326 181 465 q 236 147 181 211 q 393 82 292 82 m 260 1132 l 374 1132 l 501 933 l 426 933 l 260 1132 m 456 782 q 319 819 378 782 q 235 931 261 856 l 304 958 q 369 881 331 903 q 461 858 407 858 q 552 881 511 858 q 628 958 593 903 l 692 931 q 594 817 656 853 q 456 782 532 782 z "},"ẳ":{"ha":833,"x_min":67,"x_max":751,"o":"m 751 699 l 696 0 l 586 0 l 596 113 q 500 22 563 54 q 364 -10 438 -10 q 208 31 275 -10 q 103 149 140 72 q 67 328 67 225 q 108 531 67 443 q 223 667 149 618 q 394 715 297 715 q 540 678 478 715 q 632 575 601 642 l 642 699 l 751 699 m 393 82 q 556 162 496 82 q 615 378 615 242 q 561 560 615 497 q 406 622 507 622 q 240 544 300 622 q 181 326 181 465 q 236 147 181 211 q 393 82 292 82 m 429 957 q 448 995 431 982 q 494 1019 465 1008 q 522 1033 514 1028 q 531 1049 531 1039 q 517 1066 531 1060 q 481 1072 503 1072 q 388 1056 439 1072 l 374 1117 q 489 1139 429 1139 q 586 1117 551 1139 q 621 1058 621 1094 q 603 1014 621 1029 q 551 985 585 999 q 517 967 529 975 q 503 946 504 958 l 501 933 l 428 933 l 429 957 m 456 782 q 319 819 378 782 q 235 931 261 856 l 304 958 q 369 881 331 903 q 461 858 407 858 q 552 881 511 858 q 628 958 593 903 l 692 931 q 594 817 656 853 q 456 782 532 782 z "},"ẵ":{"ha":833,"x_min":67,"x_max":751,"o":"m 751 699 l 696 0 l 586 0 l 596 113 q 500 22 563 54 q 364 -10 438 -10 q 208 31 275 -10 q 103 149 140 72 q 67 328 67 225 q 108 531 67 443 q 223 667 149 618 q 394 715 297 715 q 540 678 478 715 q 632 575 601 642 l 642 699 l 751 699 m 393 82 q 556 162 496 82 q 615 378 615 242 q 561 560 615 497 q 406 622 507 622 q 240 544 300 622 q 181 326 181 465 q 236 147 181 211 q 393 82 292 82 m 572 994 q 517 1005 543 994 q 457 1035 492 1015 q 410 1059 428 1051 q 375 1067 393 1067 q 327 1049 346 1067 q 307 999 308 1031 l 243 999 q 283 1105 246 1067 q 378 1143 321 1143 q 431 1133 406 1143 q 493 1101 456 1122 q 542 1077 525 1085 q 576 1069 558 1069 q 624 1088 606 1069 q 643 1139 642 1107 l 707 1139 q 667 1033 704 1071 q 572 994 629 994 m 456 782 q 319 819 378 782 q 235 931 261 856 l 304 958 q 369 881 331 903 q 461 858 407 858 q 552 881 511 858 q 628 958 593 903 l 692 931 q 594 817 656 853 q 456 782 532 782 z "},"ǎ":{"ha":833,"x_min":67,"x_max":751,"o":"m 751 699 l 696 0 l 586 0 l 596 113 q 500 22 563 54 q 364 -10 438 -10 q 208 31 275 -10 q 103 149 140 72 q 67 328 67 225 q 108 531 67 443 q 223 667 149 618 q 394 715 297 715 q 540 678 478 715 q 632 575 601 642 l 642 699 l 751 699 m 393 82 q 556 162 496 82 q 615 378 615 242 q 561 560 615 497 q 406 622 507 622 q 240 544 300 622 q 181 326 181 465 q 236 147 181 211 q 393 82 292 82 m 681 1072 l 493 789 l 414 789 l 271 1072 l 372 1072 l 458 871 l 574 1072 l 681 1072 z "},"â":{"ha":833,"x_min":67,"x_max":751,"o":"m 751 699 l 696 0 l 586 0 l 596 113 q 500 22 563 54 q 364 -10 438 -10 q 208 31 275 -10 q 103 149 140 72 q 67 328 67 225 q 108 531 67 443 q 223 667 149 618 q 394 715 297 715 q 540 678 478 715 q 632 575 601 642 l 642 699 l 751 699 m 393 82 q 556 162 496 82 q 615 378 615 242 q 561 560 615 497 q 406 622 507 622 q 240 544 300 622 q 181 326 181 465 q 236 147 181 211 q 393 82 292 82 m 247 789 l 436 1072 l 515 1072 l 658 789 l 556 789 l 469 989 l 354 789 l 247 789 z "},"ấ":{"ha":833,"x_min":67,"x_max":849,"o":"m 751 699 l 696 0 l 586 0 l 596 113 q 500 22 563 54 q 364 -10 438 -10 q 208 31 275 -10 q 103 149 140 72 q 67 328 67 225 q 108 531 67 443 q 223 667 149 618 q 394 715 297 715 q 540 678 478 715 q 632 575 601 642 l 642 699 l 751 699 m 393 82 q 556 162 496 82 q 615 378 615 242 q 561 560 615 497 q 406 622 507 622 q 240 544 300 622 q 181 326 181 465 q 236 147 181 211 q 393 82 292 82 m 583 933 l 724 1132 l 849 1132 l 651 933 l 583 933 m 247 789 l 432 994 l 507 994 l 658 789 l 557 789 l 467 928 l 351 789 l 247 789 z "},"ậ":{"ha":833,"x_min":67,"x_max":751,"o":"m 751 699 l 696 0 l 586 0 l 596 113 q 500 22 563 54 q 364 -10 438 -10 q 208 31 275 -10 q 103 149 140 72 q 67 328 67 225 q 108 531 67 443 q 223 667 149 618 q 394 715 297 715 q 540 678 478 715 q 632 575 601 642 l 642 699 l 751 699 m 393 82 q 556 162 496 82 q 615 378 615 242 q 561 560 615 497 q 406 622 507 622 q 240 544 300 622 q 181 326 181 465 q 236 147 181 211 q 393 82 292 82 m 447 -132 l 436 -256 l 307 -256 l 318 -132 l 447 -132 m 247 789 l 436 1072 l 515 1072 l 658 789 l 556 789 l 469 989 l 354 789 l 247 789 z "},"ầ":{"ha":833,"x_min":67,"x_max":751,"o":"m 751 699 l 696 0 l 586 0 l 596 113 q 500 22 563 54 q 364 -10 438 -10 q 208 31 275 -10 q 103 149 140 72 q 67 328 67 225 q 108 531 67 443 q 223 667 149 618 q 394 715 297 715 q 540 678 478 715 q 632 575 601 642 l 642 699 l 751 699 m 393 82 q 556 162 496 82 q 615 378 615 242 q 561 560 615 497 q 406 622 507 622 q 240 544 300 622 q 181 326 181 465 q 236 147 181 211 q 393 82 292 82 m 504 1132 l 617 1132 l 711 933 l 643 933 l 504 1132 m 432 994 l 507 994 l 658 789 l 557 789 l 467 928 l 351 789 l 247 789 l 432 994 z "},"ẩ":{"ha":833,"x_min":67,"x_max":775,"o":"m 751 699 l 696 0 l 586 0 l 596 113 q 500 22 563 54 q 364 -10 438 -10 q 208 31 275 -10 q 103 149 140 72 q 67 328 67 225 q 108 531 67 443 q 223 667 149 618 q 394 715 297 715 q 540 678 478 715 q 632 575 601 642 l 642 699 l 751 699 m 393 82 q 556 162 496 82 q 615 378 615 242 q 561 560 615 497 q 406 622 507 622 q 240 544 300 622 q 181 326 181 465 q 236 147 181 211 q 393 82 292 82 m 583 957 q 601 995 585 982 q 647 1019 618 1008 q 676 1033 667 1028 q 685 1049 685 1039 q 671 1066 685 1060 q 635 1072 657 1072 q 542 1056 593 1072 l 528 1117 q 643 1139 583 1139 q 740 1117 706 1139 q 775 1058 775 1094 q 757 1014 775 1029 q 706 985 739 999 q 671 967 683 975 q 657 946 658 958 l 656 933 l 582 933 l 583 957 m 432 994 l 507 994 l 658 789 l 557 789 l 467 928 l 351 789 l 247 789 l 432 994 z "},"ẫ":{"ha":833,"x_min":67,"x_max":751,"o":"m 751 699 l 696 0 l 586 0 l 596 113 q 500 22 563 54 q 364 -10 438 -10 q 208 31 275 -10 q 103 149 140 72 q 67 328 67 225 q 108 531 67 443 q 223 667 149 618 q 394 715 297 715 q 540 678 478 715 q 632 575 601 642 l 642 699 l 751 699 m 393 82 q 556 162 496 82 q 615 378 615 242 q 561 560 615 497 q 406 622 507 622 q 240 544 300 622 q 181 326 181 465 q 236 147 181 211 q 393 82 292 82 m 244 1015 q 285 1117 247 1079 q 379 1154 324 1154 q 434 1146 408 1154 q 497 1121 460 1138 q 542 1101 524 1108 q 578 1094 560 1094 q 625 1111 607 1094 q 644 1156 643 1128 l 708 1156 q 667 1056 706 1093 q 574 1018 629 1018 q 520 1026 544 1018 q 457 1051 496 1035 q 411 1072 429 1065 q 375 1078 393 1078 q 328 1060 346 1078 q 308 1015 310 1042 l 244 1015 m 432 994 l 507 994 l 658 789 l 557 789 l 467 928 l 351 789 l 247 789 l 432 994 z "},"ȁ":{"ha":833,"x_min":67,"x_max":751,"o":"m 751 699 l 696 0 l 586 0 l 596 113 q 500 22 563 54 q 364 -10 438 -10 q 208 31 275 -10 q 103 149 140 72 q 67 328 67 225 q 108 531 67 443 q 223 667 149 618 q 394 715 297 715 q 540 678 478 715 q 632 575 601 642 l 642 699 l 751 699 m 393 82 q 556 162 496 82 q 615 378 615 242 q 561 560 615 497 q 406 622 507 622 q 240 544 300 622 q 181 326 181 465 q 236 147 181 211 q 393 82 292 82 m 253 1072 l 354 1072 l 396 789 l 339 789 l 253 1072 m 424 1072 l 524 1072 l 565 789 l 508 789 l 424 1072 z "},"ä":{"ha":833,"x_min":67,"x_max":751,"o":"m 751 699 l 696 0 l 586 0 l 596 113 q 500 22 563 54 q 364 -10 438 -10 q 208 31 275 -10 q 103 149 140 72 q 67 328 67 225 q 108 531 67 443 q 223 667 149 618 q 394 715 297 715 q 540 678 478 715 q 632 575 601 642 l 642 699 l 751 699 m 393 82 q 556 162 496 82 q 615 378 615 242 q 561 560 615 497 q 406 622 507 622 q 240 544 300 622 q 181 326 181 465 q 236 147 181 211 q 393 82 292 82 m 411 990 l 401 871 l 278 871 l 286 990 l 411 990 m 651 990 l 642 871 l 517 871 l 526 990 l 651 990 z "},"ȧ":{"ha":833,"x_min":67,"x_max":751,"o":"m 751 699 l 696 0 l 586 0 l 596 113 q 500 22 563 54 q 364 -10 438 -10 q 208 31 275 -10 q 103 149 140 72 q 67 328 67 225 q 108 531 67 443 q 223 667 149 618 q 394 715 297 715 q 540 678 478 715 q 632 575 601 642 l 642 699 l 751 699 m 393 82 q 556 162 496 82 q 615 378 615 242 q 561 560 615 497 q 406 622 507 622 q 240 544 300 622 q 181 326 181 465 q 236 147 181 211 q 393 82 292 82 m 538 994 l 528 867 l 389 867 l 400 994 l 538 994 z "},"ạ":{"ha":833,"x_min":67,"x_max":751,"o":"m 751 699 l 696 0 l 586 0 l 596 113 q 500 22 563 54 q 364 -10 438 -10 q 208 31 275 -10 q 103 149 140 72 q 67 328 67 225 q 108 531 67 443 q 223 667 149 618 q 394 715 297 715 q 540 678 478 715 q 632 575 601 642 l 642 699 l 751 699 m 393 82 q 556 162 496 82 q 615 378 615 242 q 561 560 615 497 q 406 622 507 622 q 240 544 300 622 q 181 326 181 465 q 236 147 181 211 q 393 82 292 82 m 447 -132 l 436 -256 l 307 -256 l 318 -132 l 447 -132 z "},"à":{"ha":833,"x_min":67,"x_max":751,"o":"m 751 699 l 696 0 l 586 0 l 596 113 q 500 22 563 54 q 364 -10 438 -10 q 208 31 275 -10 q 103 149 140 72 q 67 328 67 225 q 108 531 67 443 q 223 667 149 618 q 394 715 297 715 q 540 678 478 715 q 632 575 601 642 l 642 699 l 751 699 m 393 82 q 556 162 496 82 q 615 378 615 242 q 561 560 615 497 q 406 622 507 622 q 240 544 300 622 q 181 326 181 465 q 236 147 181 211 q 393 82 292 82 m 249 1072 l 371 1072 l 492 789 l 414 789 l 249 1072 z "},"ả":{"ha":833,"x_min":67,"x_max":751,"o":"m 751 699 l 696 0 l 586 0 l 596 113 q 500 22 563 54 q 364 -10 438 -10 q 208 31 275 -10 q 103 149 140 72 q 67 328 67 225 q 108 531 67 443 q 223 667 149 618 q 394 715 297 715 q 540 678 478 715 q 632 575 601 642 l 642 699 l 751 699 m 393 82 q 556 162 496 82 q 615 378 615 242 q 561 560 615 497 q 406 622 507 622 q 240 544 300 622 q 181 326 181 465 q 236 147 181 211 q 393 82 292 82 m 492 789 l 419 789 l 422 826 q 440 875 424 854 q 483 921 456 896 q 513 950 503 938 q 522 975 522 963 q 508 999 522 990 q 468 1007 494 1007 q 383 992 440 1007 l 368 1056 q 485 1078 421 1078 q 579 1052 543 1078 q 615 986 615 1026 q 599 933 615 954 q 550 886 582 911 q 508 850 522 865 q 493 813 494 835 l 492 789 z "},"ȃ":{"ha":833,"x_min":67,"x_max":751,"o":"m 751 699 l 696 0 l 586 0 l 596 113 q 500 22 563 54 q 364 -10 438 -10 q 208 31 275 -10 q 103 149 140 72 q 67 328 67 225 q 108 531 67 443 q 223 667 149 618 q 394 715 297 715 q 540 678 478 715 q 632 575 601 642 l 642 699 l 751 699 m 393 82 q 556 162 496 82 q 615 378 615 242 q 561 560 615 497 q 406 622 507 622 q 240 544 300 622 q 181 326 181 465 q 236 147 181 211 q 393 82 292 82 m 469 1036 q 606 992 547 1036 q 689 860 665 949 l 617 829 q 464 953 569 953 q 372 924 414 953 q 297 829 331 896 l 226 858 q 327 993 263 950 q 469 1036 392 1036 z "},"ā":{"ha":833,"x_min":67,"x_max":751,"o":"m 751 699 l 696 0 l 586 0 l 596 113 q 500 22 563 54 q 364 -10 438 -10 q 208 31 275 -10 q 103 149 140 72 q 67 328 67 225 q 108 531 67 443 q 223 667 149 618 q 394 715 297 715 q 540 678 478 715 q 632 575 601 642 l 642 699 l 751 699 m 393 82 q 556 162 496 82 q 615 378 615 242 q 561 560 615 497 q 406 622 507 622 q 240 544 300 622 q 181 326 181 465 q 236 147 181 211 q 393 82 292 82 m 257 974 l 676 974 l 669 888 l 250 888 l 257 974 z "},"ą":{"ha":833,"x_min":67,"x_max":751,"o":"m 638 -203 q 724 -176 676 -203 l 742 -244 q 687 -267 719 -258 q 622 -276 654 -276 q 506 -237 550 -276 q 463 -135 463 -197 q 496 -33 463 -76 q 589 36 529 11 l 596 113 q 499 23 561 56 q 364 -10 438 -10 q 209 32 276 -10 q 104 150 142 74 q 67 328 67 226 q 108 531 67 443 q 224 667 149 618 q 394 715 299 715 q 539 679 478 715 q 632 576 600 643 l 640 699 l 751 699 l 696 0 l 679 0 q 588 -32 625 0 q 551 -117 551 -64 q 574 -181 551 -158 q 638 -203 597 -203 m 392 79 q 556 160 496 79 q 617 378 617 240 q 563 562 617 499 q 406 625 508 625 q 240 545 300 625 q 179 326 179 465 q 235 144 179 210 q 392 79 290 79 z "},"å":{"ha":833,"x_min":67,"x_max":751,"o":"m 751 699 l 696 0 l 586 0 l 596 113 q 500 22 563 54 q 364 -10 438 -10 q 208 31 275 -10 q 103 149 140 72 q 67 328 67 225 q 108 531 67 443 q 223 667 149 618 q 394 715 297 715 q 540 678 478 715 q 632 575 601 642 l 642 699 l 751 699 m 393 82 q 556 162 496 82 q 615 378 615 242 q 561 560 615 497 q 406 622 507 622 q 240 544 300 622 q 181 326 181 465 q 236 147 181 211 q 393 82 292 82 m 464 792 q 363 831 404 792 q 322 931 322 871 q 363 1029 322 989 q 464 1069 404 1069 q 564 1029 522 1069 q 606 931 606 989 q 564 832 606 872 q 464 792 522 792 m 464 860 q 512 880 493 860 q 531 931 531 900 q 512 980 531 960 q 464 1000 493 1000 q 415 980 435 1000 q 396 931 396 960 q 415 880 396 900 q 464 860 435 860 z "},"ǻ":{"ha":833,"x_min":67,"x_max":801,"o":"m 461 794 q 361 835 403 794 q 319 933 319 875 q 363 1037 319 994 q 467 1079 406 1079 q 546 1056 511 1079 l 671 1222 l 801 1217 l 592 1008 q 610 936 610 975 q 564 835 607 876 q 461 794 521 794 m 465 1008 q 416 988 436 1008 q 394 936 396 967 q 414 885 394 907 q 463 864 433 864 q 513 886 493 864 q 533 939 533 908 q 514 988 533 968 q 465 1008 494 1008 m 640 699 l 751 699 l 696 0 l 586 0 l 594 113 q 499 23 561 56 q 364 -10 436 -10 q 208 31 275 -10 q 103 149 140 72 q 67 328 67 225 q 108 531 67 443 q 223 667 149 618 q 394 715 297 715 q 539 679 478 715 q 632 576 600 643 l 640 699 m 392 82 q 556 162 496 82 q 615 378 615 242 q 561 560 615 497 q 406 622 507 622 q 240 544 300 622 q 181 326 181 465 q 235 147 181 211 q 392 82 290 82 z "},"ã":{"ha":833,"x_min":67,"x_max":751,"o":"m 751 699 l 696 0 l 586 0 l 596 113 q 500 22 563 54 q 364 -10 438 -10 q 208 31 275 -10 q 103 149 140 72 q 67 328 67 225 q 108 531 67 443 q 223 667 149 618 q 394 715 297 715 q 540 678 478 715 q 632 575 601 642 l 642 699 l 751 699 m 393 82 q 556 162 496 82 q 615 378 615 242 q 561 560 615 497 q 406 622 507 622 q 240 544 300 622 q 181 326 181 465 q 236 147 181 211 q 393 82 292 82 m 232 854 q 274 974 236 933 q 368 1014 311 1014 q 423 1002 397 1014 q 483 968 449 990 q 530 942 513 950 q 564 933 547 933 q 613 953 594 933 q 633 1010 631 974 l 696 1010 q 655 890 692 931 q 561 850 618 850 q 506 862 532 850 q 446 896 481 874 q 399 923 415 915 q 367 931 383 931 q 317 910 336 931 q 294 854 297 889 l 232 854 z "},"æ":{"ha":1224,"x_min":74,"x_max":1167,"o":"m 657 353 l 657 325 q 715 146 657 210 q 881 82 772 82 q 992 102 936 82 q 1099 163 1049 122 l 1131 81 q 1017 15 1089 40 q 876 -10 944 -10 q 696 37 769 -10 q 589 169 622 83 q 481 38 553 85 q 315 -10 408 -10 q 141 47 208 -10 q 74 193 74 103 q 169 369 74 313 q 483 426 265 426 l 556 426 l 557 447 q 558 476 558 457 q 522 587 558 551 q 408 622 485 622 q 167 549 285 622 l 135 631 q 265 692 188 669 q 418 715 343 715 q 640 597 589 715 q 745 685 682 654 q 889 715 808 715 q 1091 638 1015 715 q 1167 417 1167 560 q 1163 353 1167 386 l 657 353 m 892 629 q 742 577 800 629 q 665 426 685 525 l 1068 426 q 1022 576 1069 524 q 892 629 974 629 m 331 78 q 476 139 417 78 q 544 296 536 200 l 549 354 l 489 354 q 303 337 369 354 q 213 287 238 319 q 188 201 188 254 q 227 112 188 146 q 331 78 267 78 z "},"ǽ":{"ha":1224,"x_min":74,"x_max":1167,"o":"m 657 353 l 657 325 q 715 146 657 210 q 881 82 772 82 q 992 102 936 82 q 1099 163 1049 122 l 1131 81 q 1017 15 1089 40 q 876 -10 944 -10 q 696 37 769 -10 q 589 169 622 83 q 481 38 553 85 q 315 -10 408 -10 q 141 47 208 -10 q 74 193 74 103 q 169 369 74 313 q 483 426 265 426 l 556 426 l 557 447 q 558 476 558 457 q 522 587 558 551 q 408 622 485 622 q 167 549 285 622 l 135 631 q 265 692 188 669 q 418 715 343 715 q 640 597 589 715 q 745 685 682 654 q 889 715 808 715 q 1091 638 1015 715 q 1167 417 1167 560 q 1163 353 1167 386 l 657 353 m 892 629 q 742 577 800 629 q 665 426 685 525 l 1068 426 q 1022 576 1069 524 q 892 629 974 629 m 331 78 q 476 139 417 78 q 544 296 536 200 l 549 354 l 489 354 q 303 337 369 354 q 213 287 238 319 q 188 201 188 254 q 227 112 188 146 q 331 78 267 78 m 599 789 l 757 1072 l 892 1072 l 676 789 l 599 789 z "},"b":{"ha":833,"x_min":82,"x_max":768,"o":"m 471 715 q 626 674 558 715 q 731 556 693 632 q 768 378 768 479 q 727 174 768 263 q 611 38 686 86 q 440 -10 536 -10 q 295 26 357 -10 q 203 126 233 61 l 193 0 l 82 0 l 163 1022 l 275 1022 l 239 593 q 336 683 274 650 q 471 715 399 715 m 432 82 q 594 160 535 82 q 654 378 654 239 q 599 558 654 494 q 443 622 543 622 q 279 543 339 622 q 219 326 219 464 q 274 145 219 208 q 432 82 329 82 z "},"c":{"ha":688,"x_min":67,"x_max":674,"o":"m 389 -10 q 219 32 292 -10 q 106 150 146 74 q 67 328 67 226 q 110 532 67 444 q 233 667 153 619 q 421 715 313 715 q 562 691 497 715 q 674 624 626 667 l 629 542 q 526 603 576 583 q 421 622 476 622 q 244 543 307 622 q 182 325 182 464 q 239 147 182 211 q 399 83 296 83 q 501 103 454 83 q 600 164 549 122 l 632 81 q 522 15 586 39 q 389 -10 458 -10 z "},"ć":{"ha":688,"x_min":67,"x_max":690,"o":"m 389 -10 q 219 32 292 -10 q 106 150 146 74 q 67 328 67 226 q 110 532 67 444 q 233 667 153 619 q 421 715 313 715 q 562 691 497 715 q 674 624 626 667 l 629 542 q 526 603 576 583 q 421 622 476 622 q 244 543 307 622 q 182 325 182 464 q 239 147 182 211 q 399 83 296 83 q 501 103 454 83 q 600 164 549 122 l 632 81 q 522 15 586 39 q 389 -10 458 -10 m 397 789 l 556 1072 l 690 1072 l 475 789 l 397 789 z "},"č":{"ha":688,"x_min":67,"x_max":674,"o":"m 389 -10 q 219 32 292 -10 q 106 150 146 74 q 67 328 67 226 q 110 532 67 444 q 233 667 153 619 q 421 715 313 715 q 562 691 497 715 q 674 624 626 667 l 629 542 q 526 603 576 583 q 421 622 476 622 q 244 543 307 622 q 182 325 182 464 q 239 147 182 211 q 399 83 296 83 q 501 103 454 83 q 600 164 549 122 l 632 81 q 522 15 586 39 q 389 -10 458 -10 m 664 1072 l 476 789 l 397 789 l 254 1072 l 356 1072 l 442 871 l 557 1072 l 664 1072 z "},"ç":{"ha":688,"x_min":67,"x_max":674,"o":"m 632 81 q 525 15 588 39 q 393 -10 463 -8 l 383 -60 q 411 -57 393 -57 q 487 -82 458 -57 q 515 -151 515 -107 q 472 -237 515 -204 q 351 -271 429 -271 q 286 -264 321 -271 q 225 -244 251 -257 l 246 -183 q 351 -203 300 -203 q 410 -190 389 -203 q 432 -154 432 -178 q 419 -126 432 -136 q 383 -117 407 -117 q 321 -129 353 -117 l 296 -107 l 317 -3 q 133 107 200 19 q 67 328 67 194 q 110 532 67 444 q 233 667 153 619 q 421 715 313 715 q 562 691 497 715 q 674 624 626 667 l 629 542 q 526 603 576 583 q 421 622 476 622 q 244 543 307 622 q 182 325 182 464 q 239 147 182 211 q 399 83 296 83 q 501 103 454 83 q 600 164 549 122 l 632 81 z "},"ḉ":{"ha":688,"x_min":67,"x_max":690,"o":"m 475 789 l 397 789 l 556 1072 l 690 1072 l 475 789 m 421 622 q 244 543 307 622 q 182 325 182 464 q 239 147 182 211 q 399 83 296 83 q 501 103 454 83 q 600 164 549 122 l 632 81 q 525 15 588 39 q 393 -10 463 -8 l 383 -60 q 411 -57 393 -57 q 487 -82 458 -57 q 515 -151 515 -107 q 472 -237 515 -204 q 351 -271 429 -271 q 286 -264 321 -271 q 225 -244 251 -257 l 246 -183 q 351 -203 300 -203 q 410 -190 389 -203 q 432 -154 432 -178 q 419 -126 432 -136 q 383 -117 407 -117 q 321 -129 353 -117 l 296 -107 l 317 -3 q 133 107 200 19 q 67 328 67 194 q 110 532 67 444 q 233 667 153 619 q 421 715 313 715 q 562 691 497 715 q 674 624 626 667 l 629 542 q 526 603 576 583 q 421 622 476 622 z "},"ĉ":{"ha":688,"x_min":67,"x_max":674,"o":"m 389 -10 q 219 32 292 -10 q 106 150 146 74 q 67 328 67 226 q 110 532 67 444 q 233 667 153 619 q 421 715 313 715 q 562 691 497 715 q 674 624 626 667 l 629 542 q 526 603 576 583 q 421 622 476 622 q 244 543 307 622 q 182 325 182 464 q 239 147 182 211 q 399 83 296 83 q 501 103 454 83 q 600 164 549 122 l 632 81 q 522 15 586 39 q 389 -10 458 -10 m 231 789 l 419 1072 l 499 1072 l 642 789 l 539 789 l 453 989 l 338 789 l 231 789 z "},"ċ":{"ha":688,"x_min":67,"x_max":674,"o":"m 389 -10 q 219 32 292 -10 q 106 150 146 74 q 67 328 67 226 q 110 532 67 444 q 233 667 153 619 q 421 715 313 715 q 562 691 497 715 q 674 624 626 667 l 629 542 q 526 603 576 583 q 421 622 476 622 q 244 543 307 622 q 182 325 182 464 q 239 147 182 211 q 399 83 296 83 q 501 103 454 83 q 600 164 549 122 l 632 81 q 522 15 586 39 q 389 -10 458 -10 m 521 994 l 511 867 l 372 867 l 383 994 l 521 994 z "},"d":{"ha":833,"x_min":67,"x_max":776,"o":"m 776 1022 l 696 0 l 586 0 l 594 114 q 499 23 561 56 q 363 -10 436 -10 q 208 31 275 -10 q 103 149 140 72 q 67 326 67 225 q 108 530 67 442 q 223 667 149 618 q 394 715 297 715 q 539 679 478 715 q 631 578 600 643 l 665 1022 l 776 1022 m 392 82 q 556 162 496 82 q 615 378 615 242 q 561 560 615 497 q 404 622 507 622 q 240 544 300 622 q 181 329 181 465 q 236 147 181 211 q 392 82 292 82 z "},"ð":{"ha":800,"x_min":64,"x_max":772,"o":"m 619 843 q 742 461 742 693 q 647 106 742 221 q 388 -10 551 -10 q 151 75 239 -10 q 64 301 64 160 q 106 485 64 406 q 224 609 149 565 q 399 653 300 653 q 542 622 481 653 q 636 535 603 590 q 519 808 621 699 l 286 725 l 267 796 l 458 863 q 272 953 381 922 l 307 1033 q 565 900 467 990 l 754 967 l 772 897 l 619 843 m 390 82 q 555 153 496 82 q 614 350 614 225 q 558 503 614 447 q 404 560 503 560 q 238 490 297 560 q 178 299 178 419 q 232 138 178 194 q 390 82 286 82 z "},"ď":{"ha":833,"x_min":67,"x_max":914,"o":"m 665 1022 l 776 1022 l 696 0 l 586 0 l 594 114 q 499 23 561 56 q 363 -10 436 -10 q 208 31 275 -10 q 103 149 140 72 q 67 326 67 225 q 108 530 67 442 q 223 667 149 618 q 394 715 297 715 q 539 679 478 715 q 631 578 600 643 l 665 1022 m 914 1022 l 857 750 l 804 750 l 824 1022 l 914 1022 m 392 82 q 556 162 496 82 q 615 378 615 242 q 561 560 615 497 q 404 622 507 622 q 240 544 300 622 q 181 329 181 465 q 236 147 181 211 q 392 82 292 82 z "},"đ":{"ha":833,"x_min":68,"x_max":901,"o":"m 893 808 l 761 808 l 697 0 l 588 0 l 596 114 q 500 23 563 56 q 364 -10 438 -10 q 209 32 276 -10 q 105 151 142 74 q 68 332 68 228 q 109 531 68 444 q 224 667 150 618 q 396 715 299 715 q 540 679 479 715 q 632 578 601 643 l 650 808 l 372 808 l 379 893 l 657 893 l 667 1022 l 778 1022 l 768 893 l 901 893 l 893 808 m 393 82 q 557 162 497 82 q 617 382 617 242 q 563 560 617 499 q 406 622 508 622 q 242 543 301 622 q 182 326 182 464 q 238 146 182 210 q 393 82 293 82 z "},"ḍ":{"ha":833,"x_min":67,"x_max":776,"o":"m 776 1022 l 696 0 l 586 0 l 594 114 q 499 23 561 56 q 363 -10 436 -10 q 208 31 275 -10 q 103 149 140 72 q 67 326 67 225 q 108 530 67 442 q 223 667 149 618 q 394 715 297 715 q 539 679 478 715 q 631 578 600 643 l 665 1022 l 776 1022 m 392 82 q 556 162 496 82 q 615 378 615 242 q 561 560 615 497 q 404 622 507 622 q 240 544 300 622 q 181 329 181 465 q 236 147 181 211 q 392 82 292 82 m 449 -132 l 438 -256 l 308 -256 l 319 -132 l 449 -132 z "},"ḏ":{"ha":833,"x_min":67,"x_max":776,"o":"m 776 1022 l 696 0 l 586 0 l 594 114 q 499 23 561 56 q 363 -10 436 -10 q 208 31 275 -10 q 103 149 140 72 q 67 326 67 225 q 108 530 67 442 q 223 667 149 618 q 394 715 297 715 q 539 679 478 715 q 631 578 600 643 l 665 1022 l 776 1022 m 392 82 q 556 162 496 82 q 615 378 615 242 q 561 560 615 497 q 404 622 507 622 q 240 544 300 622 q 181 329 181 465 q 236 147 181 211 q 392 82 292 82 m 172 -153 l 592 -153 l 585 -236 l 165 -236 l 172 -153 z "},"ǆ":{"ha":1553,"x_min":67,"x_max":1504,"o":"m 776 1022 l 696 0 l 586 0 l 594 114 q 499 23 561 56 q 363 -10 436 -10 q 208 31 275 -10 q 103 149 140 72 q 67 326 67 225 q 108 530 67 442 q 223 667 149 618 q 394 715 297 715 q 539 679 478 715 q 631 578 600 643 l 665 1022 l 776 1022 m 392 82 q 556 162 496 82 q 615 378 615 242 q 561 560 615 497 q 404 622 507 622 q 240 544 300 622 q 181 329 181 465 q 236 147 181 211 q 392 82 292 82 m 1500 618 l 1025 88 l 1472 88 l 1465 0 l 875 0 l 882 76 l 1360 610 l 939 610 l 946 699 l 1504 699 l 1500 618 m 1461 1072 l 1274 789 l 1194 789 l 1051 1072 l 1153 1072 l 1239 871 l 1354 1072 l 1461 1072 z "},"e":{"ha":756,"x_min":67,"x_max":699,"o":"m 179 353 l 179 325 q 236 146 179 210 q 401 82 293 82 q 631 163 532 82 l 664 81 q 546 15 619 39 q 397 -10 472 -10 q 222 32 296 -10 q 107 150 147 74 q 67 328 67 226 q 109 530 67 442 q 229 667 151 618 q 410 715 307 715 q 621 638 543 715 q 699 417 699 561 q 694 353 699 386 l 179 353 m 415 629 q 265 577 324 629 q 188 426 207 525 l 600 426 q 552 576 601 524 q 415 629 503 629 z "},"é":{"ha":756,"x_min":67,"x_max":699,"o":"m 179 353 l 179 325 q 236 146 179 210 q 401 82 293 82 q 631 163 532 82 l 664 81 q 546 15 619 39 q 397 -10 472 -10 q 222 32 296 -10 q 107 150 147 74 q 67 328 67 226 q 109 530 67 442 q 229 667 151 618 q 410 715 307 715 q 621 638 543 715 q 699 417 699 561 q 694 353 699 386 l 179 353 m 415 629 q 265 577 324 629 q 188 426 207 525 l 600 426 q 552 576 601 524 q 415 629 503 629 m 392 789 l 550 1072 l 685 1072 l 469 789 l 392 789 z "},"ĕ":{"ha":756,"x_min":67,"x_max":699,"o":"m 179 353 l 179 325 q 236 146 179 210 q 401 82 293 82 q 631 163 532 82 l 664 81 q 546 15 619 39 q 397 -10 472 -10 q 222 32 296 -10 q 107 150 147 74 q 67 328 67 226 q 109 530 67 442 q 229 667 151 618 q 410 715 307 715 q 621 638 543 715 q 699 417 699 561 q 694 353 699 386 l 179 353 m 415 629 q 265 577 324 629 q 188 426 207 525 l 600 426 q 552 576 601 524 q 415 629 503 629 m 436 831 q 299 875 358 831 q 217 1008 240 919 l 290 1039 q 442 914 338 914 q 533 942 492 914 q 610 1039 575 971 l 679 1008 q 579 874 643 917 q 436 831 515 831 z "},"ě":{"ha":756,"x_min":67,"x_max":699,"o":"m 179 353 l 179 325 q 236 146 179 210 q 401 82 293 82 q 631 163 532 82 l 664 81 q 546 15 619 39 q 397 -10 472 -10 q 222 32 296 -10 q 107 150 147 74 q 67 328 67 226 q 109 530 67 442 q 229 667 151 618 q 410 715 307 715 q 621 638 543 715 q 699 417 699 561 q 694 353 699 386 l 179 353 m 415 629 q 265 577 324 629 q 188 426 207 525 l 600 426 q 552 576 601 524 q 415 629 503 629 m 658 1072 l 471 789 l 392 789 l 249 1072 l 350 1072 l 436 871 l 551 1072 l 658 1072 z "},"ḝ":{"ha":756,"x_min":67,"x_max":699,"o":"m 436 831 q 299 875 358 831 q 217 1008 240 919 l 290 1039 q 442 914 338 914 q 533 942 492 914 q 610 1039 575 971 l 679 1008 q 579 874 643 917 q 436 831 515 831 m 179 353 l 179 325 q 236 146 179 210 q 401 82 293 82 q 631 163 532 82 l 664 81 q 555 17 624 42 q 415 -10 486 -7 l 404 -60 q 432 -57 414 -57 q 508 -82 479 -57 q 536 -151 536 -107 q 493 -237 536 -204 q 372 -271 450 -271 q 307 -264 342 -271 q 246 -244 272 -257 l 267 -183 q 372 -203 321 -203 q 431 -190 410 -203 q 453 -154 453 -178 q 440 -126 453 -136 q 404 -117 428 -117 q 342 -129 374 -117 l 317 -107 l 336 -6 q 138 101 210 13 q 67 328 67 190 q 109 530 67 442 q 229 667 151 618 q 410 715 307 715 q 621 638 543 715 q 699 417 699 561 q 694 353 699 386 l 179 353 m 415 629 q 265 577 324 629 q 188 426 207 525 l 600 426 q 552 576 601 524 q 415 629 503 629 z "},"ê":{"ha":756,"x_min":67,"x_max":699,"o":"m 179 353 l 179 325 q 236 146 179 210 q 401 82 293 82 q 631 163 532 82 l 664 81 q 546 15 619 39 q 397 -10 472 -10 q 222 32 296 -10 q 107 150 147 74 q 67 328 67 226 q 109 530 67 442 q 229 667 151 618 q 410 715 307 715 q 621 638 543 715 q 699 417 699 561 q 694 353 699 386 l 179 353 m 415 629 q 265 577 324 629 q 188 426 207 525 l 600 426 q 552 576 601 524 q 415 629 503 629 m 225 789 l 414 1072 l 493 1072 l 636 789 l 533 789 l 447 989 l 332 789 l 225 789 z "},"ế":{"ha":756,"x_min":67,"x_max":826,"o":"m 179 353 l 179 325 q 236 146 179 210 q 401 82 293 82 q 631 163 532 82 l 664 81 q 546 15 619 39 q 397 -10 472 -10 q 222 32 296 -10 q 107 150 147 74 q 67 328 67 226 q 109 530 67 442 q 229 667 151 618 q 410 715 307 715 q 621 638 543 715 q 699 417 699 561 q 694 353 699 386 l 179 353 m 415 629 q 265 577 324 629 q 188 426 207 525 l 600 426 q 552 576 601 524 q 415 629 503 629 m 561 933 l 701 1132 l 826 1132 l 629 933 l 561 933 m 225 789 l 410 994 l 485 994 l 636 789 l 535 789 l 444 928 l 329 789 l 225 789 z "},"ệ":{"ha":756,"x_min":67,"x_max":699,"o":"m 179 353 l 179 325 q 236 146 179 210 q 401 82 293 82 q 631 163 532 82 l 664 81 q 546 15 619 39 q 397 -10 472 -10 q 222 32 296 -10 q 107 150 147 74 q 67 328 67 226 q 109 530 67 442 q 229 667 151 618 q 410 715 307 715 q 621 638 543 715 q 699 417 699 561 q 694 353 699 386 l 179 353 m 415 629 q 265 577 324 629 q 188 426 207 525 l 600 426 q 552 576 601 524 q 415 629 503 629 m 444 -132 l 433 -256 l 304 -256 l 315 -132 l 444 -132 m 225 789 l 414 1072 l 493 1072 l 636 789 l 533 789 l 447 989 l 332 789 l 225 789 z "},"ề":{"ha":756,"x_min":67,"x_max":699,"o":"m 179 353 l 179 325 q 236 146 179 210 q 401 82 293 82 q 631 163 532 82 l 664 81 q 546 15 619 39 q 397 -10 472 -10 q 222 32 296 -10 q 107 150 147 74 q 67 328 67 226 q 109 530 67 442 q 229 667 151 618 q 410 715 307 715 q 621 638 543 715 q 699 417 699 561 q 694 353 699 386 l 179 353 m 415 629 q 265 577 324 629 q 188 426 207 525 l 600 426 q 552 576 601 524 q 415 629 503 629 m 482 1132 l 594 1132 l 689 933 l 621 933 l 482 1132 m 410 994 l 485 994 l 636 789 l 535 789 l 444 928 l 329 789 l 225 789 l 410 994 z "},"ể":{"ha":756,"x_min":67,"x_max":753,"o":"m 179 353 l 179 325 q 236 146 179 210 q 401 82 293 82 q 631 163 532 82 l 664 81 q 546 15 619 39 q 397 -10 472 -10 q 222 32 296 -10 q 107 150 147 74 q 67 328 67 226 q 109 530 67 442 q 229 667 151 618 q 410 715 307 715 q 621 638 543 715 q 699 417 699 561 q 694 353 699 386 l 179 353 m 415 629 q 265 577 324 629 q 188 426 207 525 l 600 426 q 552 576 601 524 q 415 629 503 629 m 561 957 q 579 995 563 982 q 625 1019 596 1008 q 653 1033 644 1028 q 663 1049 663 1039 q 649 1066 663 1060 q 613 1072 635 1072 q 519 1056 571 1072 l 506 1117 q 621 1139 561 1139 q 718 1117 683 1139 q 753 1058 753 1094 q 735 1014 753 1029 q 683 985 717 999 q 649 967 661 975 q 635 946 636 958 l 633 933 l 560 933 l 561 957 m 410 994 l 485 994 l 636 789 l 535 789 l 444 928 l 329 789 l 225 789 l 410 994 z "},"ễ":{"ha":756,"x_min":67,"x_max":699,"o":"m 179 353 l 179 325 q 236 146 179 210 q 401 82 293 82 q 631 163 532 82 l 664 81 q 546 15 619 39 q 397 -10 472 -10 q 222 32 296 -10 q 107 150 147 74 q 67 328 67 226 q 109 530 67 442 q 229 667 151 618 q 410 715 307 715 q 621 638 543 715 q 699 417 699 561 q 694 353 699 386 l 179 353 m 415 629 q 265 577 324 629 q 188 426 207 525 l 600 426 q 552 576 601 524 q 415 629 503 629 m 222 1015 q 263 1117 225 1079 q 357 1154 301 1154 q 412 1146 386 1154 q 475 1121 438 1138 q 519 1101 501 1108 q 556 1094 538 1094 q 603 1111 585 1094 q 622 1156 621 1128 l 686 1156 q 645 1056 683 1093 q 551 1018 607 1018 q 498 1026 522 1018 q 435 1051 474 1035 q 389 1072 407 1065 q 353 1078 371 1078 q 306 1060 324 1078 q 286 1015 288 1042 l 222 1015 m 410 994 l 485 994 l 636 789 l 535 789 l 444 928 l 329 789 l 225 789 l 410 994 z "},"ȅ":{"ha":756,"x_min":67,"x_max":699,"o":"m 179 353 l 179 325 q 236 146 179 210 q 401 82 293 82 q 631 163 532 82 l 664 81 q 546 15 619 39 q 397 -10 472 -10 q 222 32 296 -10 q 107 150 147 74 q 67 328 67 226 q 109 530 67 442 q 229 667 151 618 q 410 715 307 715 q 621 638 543 715 q 699 417 699 561 q 694 353 699 386 l 179 353 m 415 629 q 265 577 324 629 q 188 426 207 525 l 600 426 q 552 576 601 524 q 415 629 503 629 m 231 1072 l 332 1072 l 374 789 l 317 789 l 231 1072 m 401 1072 l 501 1072 l 543 789 l 486 789 l 401 1072 z "},"ë":{"ha":756,"x_min":67,"x_max":699,"o":"m 179 353 l 179 325 q 236 146 179 210 q 401 82 293 82 q 631 163 532 82 l 664 81 q 546 15 619 39 q 397 -10 472 -10 q 222 32 296 -10 q 107 150 147 74 q 67 328 67 226 q 109 530 67 442 q 229 667 151 618 q 410 715 307 715 q 621 638 543 715 q 699 417 699 561 q 694 353 699 386 l 179 353 m 415 629 q 265 577 324 629 q 188 426 207 525 l 600 426 q 552 576 601 524 q 415 629 503 629 m 389 990 l 379 871 l 256 871 l 264 990 l 389 990 m 629 990 l 619 871 l 494 871 l 504 990 l 629 990 z "},"ė":{"ha":756,"x_min":67,"x_max":699,"o":"m 179 353 l 179 325 q 236 146 179 210 q 401 82 293 82 q 631 163 532 82 l 664 81 q 546 15 619 39 q 397 -10 472 -10 q 222 32 296 -10 q 107 150 147 74 q 67 328 67 226 q 109 530 67 442 q 229 667 151 618 q 410 715 307 715 q 621 638 543 715 q 699 417 699 561 q 694 353 699 386 l 179 353 m 415 629 q 265 577 324 629 q 188 426 207 525 l 600 426 q 552 576 601 524 q 415 629 503 629 m 515 994 l 506 867 l 367 867 l 378 994 l 515 994 z "},"ẹ":{"ha":756,"x_min":67,"x_max":699,"o":"m 179 353 l 179 325 q 236 146 179 210 q 401 82 293 82 q 631 163 532 82 l 664 81 q 546 15 619 39 q 397 -10 472 -10 q 222 32 296 -10 q 107 150 147 74 q 67 328 67 226 q 109 530 67 442 q 229 667 151 618 q 410 715 307 715 q 621 638 543 715 q 699 417 699 561 q 694 353 699 386 l 179 353 m 415 629 q 265 577 324 629 q 188 426 207 525 l 600 426 q 552 576 601 524 q 415 629 503 629 m 444 -132 l 433 -256 l 304 -256 l 315 -132 l 444 -132 z "},"è":{"ha":756,"x_min":67,"x_max":699,"o":"m 179 353 l 179 325 q 236 146 179 210 q 401 82 293 82 q 631 163 532 82 l 664 81 q 546 15 619 39 q 397 -10 472 -10 q 222 32 296 -10 q 107 150 147 74 q 67 328 67 226 q 109 530 67 442 q 229 667 151 618 q 410 715 307 715 q 621 638 543 715 q 699 417 699 561 q 694 353 699 386 l 179 353 m 415 629 q 265 577 324 629 q 188 426 207 525 l 600 426 q 552 576 601 524 q 415 629 503 629 m 226 1072 l 349 1072 l 469 789 l 392 789 l 226 1072 z "},"ẻ":{"ha":756,"x_min":67,"x_max":699,"o":"m 179 353 l 179 325 q 236 146 179 210 q 401 82 293 82 q 631 163 532 82 l 664 81 q 546 15 619 39 q 397 -10 472 -10 q 222 32 296 -10 q 107 150 147 74 q 67 328 67 226 q 109 530 67 442 q 229 667 151 618 q 410 715 307 715 q 621 638 543 715 q 699 417 699 561 q 694 353 699 386 l 179 353 m 415 629 q 265 577 324 629 q 188 426 207 525 l 600 426 q 552 576 601 524 q 415 629 503 629 m 469 789 l 397 789 l 400 826 q 417 875 401 854 q 461 921 433 896 q 490 950 481 938 q 500 975 500 963 q 486 999 500 990 q 446 1007 472 1007 q 361 992 418 1007 l 346 1056 q 463 1078 399 1078 q 557 1052 521 1078 q 593 986 593 1026 q 576 933 593 954 q 528 886 560 911 q 486 850 500 865 q 471 813 472 835 l 469 789 z "},"ȇ":{"ha":756,"x_min":67,"x_max":699,"o":"m 179 353 l 179 325 q 236 146 179 210 q 401 82 293 82 q 631 163 532 82 l 664 81 q 546 15 619 39 q 397 -10 472 -10 q 222 32 296 -10 q 107 150 147 74 q 67 328 67 226 q 109 530 67 442 q 229 667 151 618 q 410 715 307 715 q 621 638 543 715 q 699 417 699 561 q 694 353 699 386 l 179 353 m 415 629 q 265 577 324 629 q 188 426 207 525 l 600 426 q 552 576 601 524 q 415 629 503 629 m 447 1036 q 584 992 525 1036 q 667 860 643 949 l 594 829 q 442 953 547 953 q 350 924 392 953 q 275 829 308 896 l 204 858 q 305 993 240 950 q 447 1036 369 1036 z "},"ē":{"ha":756,"x_min":67,"x_max":699,"o":"m 179 353 l 179 325 q 236 146 179 210 q 401 82 293 82 q 631 163 532 82 l 664 81 q 546 15 619 39 q 397 -10 472 -10 q 222 32 296 -10 q 107 150 147 74 q 67 328 67 226 q 109 530 67 442 q 229 667 151 618 q 410 715 307 715 q 621 638 543 715 q 699 417 699 561 q 694 353 699 386 l 179 353 m 415 629 q 265 577 324 629 q 188 426 207 525 l 600 426 q 552 576 601 524 q 415 629 503 629 m 235 974 l 654 974 l 647 888 l 228 888 l 235 974 z "},"ḗ":{"ha":756,"x_min":67,"x_max":706,"o":"m 179 353 l 179 325 q 236 146 179 210 q 401 82 293 82 q 631 163 532 82 l 664 81 q 546 15 619 39 q 397 -10 472 -10 q 222 32 296 -10 q 107 150 147 74 q 67 328 67 226 q 109 530 67 442 q 229 667 151 618 q 410 715 307 715 q 621 638 543 715 q 699 417 699 561 q 694 353 699 386 l 179 353 m 415 629 q 265 577 324 629 q 188 426 207 525 l 600 426 q 552 576 601 524 q 415 629 503 629 m 235 974 l 654 974 l 647 888 l 228 888 l 235 974 m 413 1060 l 571 1343 l 706 1343 l 490 1060 l 413 1060 z "},"ḕ":{"ha":756,"x_min":67,"x_max":699,"o":"m 179 353 l 179 325 q 236 146 179 210 q 401 82 293 82 q 631 163 532 82 l 664 81 q 546 15 619 39 q 397 -10 472 -10 q 222 32 296 -10 q 107 150 147 74 q 67 328 67 226 q 109 530 67 442 q 229 667 151 618 q 410 715 307 715 q 621 638 543 715 q 699 417 699 561 q 694 353 699 386 l 179 353 m 415 629 q 265 577 324 629 q 188 426 207 525 l 600 426 q 552 576 601 524 q 415 629 503 629 m 235 974 l 654 974 l 647 888 l 228 888 l 235 974 m 247 1343 l 369 1343 l 490 1060 l 413 1060 l 247 1343 z "},"ę":{"ha":756,"x_min":67,"x_max":699,"o":"m 179 353 l 179 325 q 236 146 179 210 q 401 82 293 82 q 631 163 532 82 l 664 81 q 581 29 633 50 q 475 -40 504 -4 q 446 -117 446 -75 q 468 -181 446 -158 q 531 -203 490 -203 q 618 -176 571 -203 l 636 -244 q 581 -267 613 -258 q 517 -276 549 -276 q 399 -237 443 -276 q 356 -135 356 -199 q 411 -10 356 -57 l 397 -10 q 222 32 296 -10 q 107 150 147 74 q 67 328 67 226 q 109 530 67 442 q 229 667 151 618 q 410 715 307 715 q 620 638 542 715 q 699 415 699 560 q 694 353 699 386 l 179 353 m 415 629 q 267 579 328 629 q 188 426 207 529 l 600 426 q 552 576 601 524 q 415 629 503 629 z "},"ẽ":{"ha":756,"x_min":67,"x_max":699,"o":"m 179 353 l 179 325 q 236 146 179 210 q 401 82 293 82 q 631 163 532 82 l 664 81 q 546 15 619 39 q 397 -10 472 -10 q 222 32 296 -10 q 107 150 147 74 q 67 328 67 226 q 109 530 67 442 q 229 667 151 618 q 410 715 307 715 q 621 638 543 715 q 699 417 699 561 q 694 353 699 386 l 179 353 m 415 629 q 265 577 324 629 q 188 426 207 525 l 600 426 q 552 576 601 524 q 415 629 503 629 m 210 854 q 251 974 214 933 q 346 1014 289 1014 q 401 1002 375 1014 q 461 968 426 990 q 508 942 490 950 q 542 933 525 933 q 590 953 572 933 q 611 1010 608 974 l 674 1010 q 633 890 669 931 q 539 850 596 850 q 484 862 510 850 q 424 896 458 874 q 377 923 393 915 q 344 931 361 931 q 294 910 314 931 q 272 854 275 889 l 210 854 z "},"ə":{"ha":757,"x_min":58,"x_max":692,"o":"m 364 715 q 603 624 515 715 q 692 378 692 532 q 650 175 692 263 q 533 39 608 88 q 358 -10 458 -10 q 138 67 218 -10 q 58 288 58 144 q 63 353 58 319 l 581 353 l 581 379 q 522 559 581 496 q 357 622 464 622 q 128 542 226 622 l 94 624 q 214 690 139 665 q 364 715 289 715 m 354 75 q 496 128 440 75 q 571 278 551 181 l 157 278 q 208 128 156 181 q 354 75 260 75 z "},"f":{"ha":468,"x_min":31,"x_max":496,"o":"m 421 932 q 333 901 367 932 q 293 792 299 869 l 286 699 l 486 699 l 478 610 l 278 610 l 229 0 l 118 0 l 167 610 l 31 610 l 39 699 l 174 699 l 182 807 q 251 972 192 915 q 404 1029 310 1029 q 496 1017 450 1029 l 488 922 q 421 932 449 932 z "},"g":{"ha":839,"x_min":68,"x_max":757,"o":"m 757 699 l 701 7 q 372 -310 676 -310 q 93 -236 211 -310 l 122 -144 q 244 -201 186 -185 q 374 -218 301 -218 q 592 0 572 -218 l 603 143 q 507 53 569 85 q 371 21 444 21 q 150 108 232 21 q 68 343 68 196 q 109 538 68 453 q 224 669 150 622 q 397 715 299 715 q 544 679 482 715 q 638 578 606 643 l 646 699 l 757 699 m 396 114 q 562 188 501 114 q 622 392 622 263 q 566 563 622 503 q 408 622 510 622 q 242 548 303 622 q 182 343 182 474 q 237 173 182 232 q 396 114 292 114 z "},"ğ":{"ha":839,"x_min":68,"x_max":757,"o":"m 757 699 l 701 7 q 372 -310 676 -310 q 93 -236 211 -310 l 122 -144 q 244 -201 186 -185 q 374 -218 301 -218 q 592 0 572 -218 l 603 143 q 507 53 569 85 q 371 21 444 21 q 150 108 232 21 q 68 343 68 196 q 109 538 68 453 q 224 669 150 622 q 397 715 299 715 q 544 679 482 715 q 638 578 606 643 l 646 699 l 757 699 m 396 114 q 562 188 501 114 q 622 392 622 263 q 566 563 622 503 q 408 622 510 622 q 242 548 303 622 q 182 343 182 474 q 237 173 182 232 q 396 114 292 114 m 463 831 q 326 875 385 831 q 243 1008 267 919 l 317 1039 q 468 914 364 914 q 560 942 518 914 q 636 1039 601 971 l 706 1008 q 606 874 669 917 q 463 831 542 831 z "},"ǧ":{"ha":839,"x_min":68,"x_max":757,"o":"m 757 699 l 701 7 q 372 -310 676 -310 q 93 -236 211 -310 l 122 -144 q 244 -201 186 -185 q 374 -218 301 -218 q 592 0 572 -218 l 603 143 q 507 53 569 85 q 371 21 444 21 q 150 108 232 21 q 68 343 68 196 q 109 538 68 453 q 224 669 150 622 q 397 715 299 715 q 544 679 482 715 q 638 578 606 643 l 646 699 l 757 699 m 396 114 q 562 188 501 114 q 622 392 622 263 q 566 563 622 503 q 408 622 510 622 q 242 548 303 622 q 182 343 182 474 q 237 173 182 232 q 396 114 292 114 m 685 1072 l 497 789 l 418 789 l 275 1072 l 376 1072 l 463 871 l 578 1072 l 685 1072 z "},"ĝ":{"ha":839,"x_min":68,"x_max":757,"o":"m 757 699 l 701 7 q 372 -310 676 -310 q 93 -236 211 -310 l 122 -144 q 244 -201 186 -185 q 374 -218 301 -218 q 592 0 572 -218 l 603 143 q 507 53 569 85 q 371 21 444 21 q 150 108 232 21 q 68 343 68 196 q 109 538 68 453 q 224 669 150 622 q 397 715 299 715 q 544 679 482 715 q 638 578 606 643 l 646 699 l 757 699 m 396 114 q 562 188 501 114 q 622 392 622 263 q 566 563 622 503 q 408 622 510 622 q 242 548 303 622 q 182 343 182 474 q 237 173 182 232 q 396 114 292 114 m 251 789 l 440 1072 l 519 1072 l 663 789 l 560 789 l 474 989 l 358 789 l 251 789 z "},"ģ":{"ha":839,"x_min":68,"x_max":757,"o":"m 757 699 l 701 7 q 372 -310 676 -310 q 93 -236 211 -310 l 122 -144 q 244 -201 186 -185 q 374 -218 301 -218 q 592 0 572 -218 l 603 143 q 507 53 569 85 q 371 21 444 21 q 150 108 232 21 q 68 343 68 196 q 109 538 68 453 q 224 669 150 622 q 397 715 299 715 q 544 679 482 715 q 638 578 606 643 l 646 699 l 757 699 m 396 114 q 562 188 501 114 q 622 392 622 263 q 566 563 622 503 q 408 622 510 622 q 242 548 303 622 q 182 343 182 474 q 237 173 182 232 q 396 114 292 114 m 538 944 l 529 829 l 392 829 l 397 910 q 422 1010 403 967 q 483 1092 442 1053 l 532 1053 q 491 1001 504 1026 q 474 944 478 975 l 538 944 z "},"ġ":{"ha":839,"x_min":68,"x_max":757,"o":"m 757 699 l 701 7 q 372 -310 676 -310 q 93 -236 211 -310 l 122 -144 q 244 -201 186 -185 q 374 -218 301 -218 q 592 0 572 -218 l 603 143 q 507 53 569 85 q 371 21 444 21 q 150 108 232 21 q 68 343 68 196 q 109 538 68 453 q 224 669 150 622 q 397 715 299 715 q 544 679 482 715 q 638 578 606 643 l 646 699 l 757 699 m 396 114 q 562 188 501 114 q 622 392 622 263 q 566 563 622 503 q 408 622 510 622 q 242 548 303 622 q 182 343 182 474 q 237 173 182 232 q 396 114 292 114 m 542 994 l 532 867 l 393 867 l 404 994 l 542 994 z "},"ḡ":{"ha":839,"x_min":68,"x_max":757,"o":"m 757 699 l 701 7 q 372 -310 676 -310 q 93 -236 211 -310 l 122 -144 q 244 -201 186 -185 q 374 -218 301 -218 q 592 0 572 -218 l 603 143 q 507 53 569 85 q 371 21 444 21 q 150 108 232 21 q 68 343 68 196 q 109 538 68 453 q 224 669 150 622 q 397 715 299 715 q 544 679 482 715 q 638 578 606 643 l 646 699 l 757 699 m 396 114 q 562 188 501 114 q 622 392 622 263 q 566 563 622 503 q 408 622 510 622 q 242 548 303 622 q 182 343 182 474 q 237 173 182 232 q 396 114 292 114 m 261 974 l 681 974 l 674 888 l 254 888 l 261 974 z "},"h":{"ha":813,"x_min":81,"x_max":715,"o":"m 475 715 q 653 653 592 715 q 715 474 715 592 q 714 436 715 449 l 679 0 l 568 0 l 603 429 q 604 458 604 439 q 449 621 604 621 q 292 563 350 621 q 225 400 233 504 l 193 0 l 81 0 l 161 1022 l 274 1022 l 239 594 q 337 684 275 653 q 475 715 399 715 z "},"ħ":{"ha":813,"x_min":11,"x_max":715,"o":"m 475 715 q 653 653 592 715 q 715 474 715 592 q 714 436 715 449 l 679 0 l 568 0 l 603 429 q 604 458 604 439 q 449 621 604 621 q 292 563 350 621 q 225 400 233 504 l 193 0 l 81 0 l 144 797 l 11 797 l 19 882 l 150 882 l 161 1014 l 274 1014 l 263 882 l 539 882 l 532 797 l 256 797 l 239 594 q 337 684 275 653 q 475 715 399 715 z "},"ḫ":{"ha":813,"x_min":81,"x_max":715,"o":"m 475 715 q 653 653 592 715 q 715 474 715 592 q 714 436 715 449 l 679 0 l 568 0 l 603 429 q 604 458 604 439 q 449 621 604 621 q 292 563 350 621 q 225 400 233 504 l 193 0 l 81 0 l 161 1022 l 274 1022 l 239 594 q 337 684 275 653 q 475 715 399 715 m 360 -296 q 224 -252 283 -296 q 140 -119 164 -208 l 214 -89 q 365 -212 261 -212 q 458 -184 417 -212 q 532 -89 499 -156 l 603 -118 q 503 -253 568 -211 q 360 -296 439 -296 z "},"ĥ":{"ha":813,"x_min":21,"x_max":715,"o":"m 475 715 q 653 653 592 715 q 715 474 715 592 q 714 436 715 449 l 679 0 l 568 0 l 603 429 q 604 458 604 439 q 449 621 604 621 q 292 563 350 621 q 225 400 233 504 l 193 0 l 81 0 l 161 1022 l 274 1022 l 239 594 q 337 684 275 653 q 475 715 399 715 m 21 1107 l 204 1319 l 279 1319 l 429 1107 l 329 1107 l 240 1251 l 124 1107 l 21 1107 z "},"ḥ":{"ha":813,"x_min":81,"x_max":715,"o":"m 475 715 q 653 653 592 715 q 715 474 715 592 q 714 436 715 449 l 679 0 l 568 0 l 603 429 q 604 458 604 439 q 449 621 604 621 q 292 563 350 621 q 225 400 233 504 l 193 0 l 81 0 l 161 1022 l 274 1022 l 239 594 q 337 684 275 653 q 475 715 399 715 m 436 -132 l 425 -256 l 296 -256 l 307 -132 l 436 -132 z "},"i":{"ha":331,"x_min":82,"x_max":285,"o":"m 138 699 l 250 699 l 194 0 l 82 0 l 138 699 m 285 994 l 275 867 l 136 867 l 147 994 l 285 994 z "},"ı":{"ha":331,"x_min":82,"x_max":250,"o":"m 138 699 l 250 699 l 194 0 l 82 0 l 138 699 z "},"í":{"ha":331,"x_min":82,"x_max":454,"o":"m 138 699 l 250 699 l 194 0 l 82 0 l 138 699 m 161 789 l 319 1072 l 454 1072 l 239 789 l 161 789 z "},"ĭ":{"ha":331,"x_min":-14,"x_max":449,"o":"m 138 699 l 250 699 l 194 0 l 82 0 l 138 699 m 206 831 q 69 875 128 831 q -14 1008 10 919 l 60 1039 q 211 914 107 914 q 303 942 261 914 q 379 1039 344 971 l 449 1008 q 349 874 413 917 q 206 831 285 831 z "},"î":{"ha":331,"x_min":-6,"x_max":406,"o":"m 138 699 l 250 699 l 194 0 l 82 0 l 138 699 m -6 789 l 183 1072 l 263 1072 l 406 789 l 303 789 l 217 989 l 101 789 l -6 789 z "},"ȉ":{"ha":331,"x_min":0,"x_max":313,"o":"m 138 699 l 250 699 l 194 0 l 82 0 l 138 699 m 0 1072 l 101 1072 l 143 789 l 86 789 l 0 1072 m 171 1072 l 271 1072 l 313 789 l 256 789 l 171 1072 z "},"ï":{"ha":331,"x_min":25,"x_max":399,"o":"m 138 699 l 250 699 l 194 0 l 82 0 l 138 699 m 158 990 l 149 871 l 25 871 l 33 990 l 158 990 m 399 990 l 389 871 l 264 871 l 274 990 l 399 990 z "},"ḯ":{"ha":331,"x_min":25,"x_max":475,"o":"m 138 699 l 250 699 l 194 0 l 82 0 l 138 699 m 158 990 l 149 871 l 25 871 l 33 990 l 158 990 m 399 990 l 389 871 l 264 871 l 274 990 l 399 990 m 182 1060 l 340 1343 l 475 1343 l 260 1060 l 182 1060 z "},"ị":{"ha":331,"x_min":51,"x_max":285,"o":"m 138 699 l 250 699 l 194 0 l 82 0 l 138 699 m 285 994 l 275 867 l 136 867 l 147 994 l 285 994 m 192 -132 l 181 -256 l 51 -256 l 63 -132 l 192 -132 z "},"ì":{"ha":331,"x_min":-4,"x_max":250,"o":"m 138 699 l 250 699 l 194 0 l 82 0 l 138 699 m -4 1072 l 118 1072 l 239 789 l 161 789 l -4 1072 z "},"ỉ":{"ha":331,"x_min":82,"x_max":363,"o":"m 138 699 l 250 699 l 194 0 l 82 0 l 138 699 m 239 789 l 167 789 l 169 826 q 187 875 171 854 q 231 921 203 896 q 260 950 250 938 q 269 975 269 963 q 256 999 269 990 q 215 1007 242 1007 q 131 992 188 1007 l 115 1056 q 232 1078 168 1078 q 326 1052 290 1078 q 363 986 363 1026 q 346 933 363 954 q 297 886 329 911 q 256 850 269 865 q 240 813 242 835 l 239 789 z "},"ȋ":{"ha":331,"x_min":-26,"x_max":436,"o":"m 138 699 l 250 699 l 194 0 l 82 0 l 138 699 m 217 1036 q 353 992 294 1036 q 436 860 413 949 l 364 829 q 211 953 317 953 q 119 924 161 953 q 44 829 78 896 l -26 858 q 74 993 10 950 q 217 1036 139 1036 z "},"ī":{"ha":331,"x_min":-3,"x_max":424,"o":"m 138 699 l 250 699 l 194 0 l 82 0 l 138 699 m 4 974 l 424 974 l 417 888 l -3 888 l 4 974 z "},"į":{"ha":329,"x_min":-42,"x_max":285,"o":"m 285 1000 l 275 872 l 136 872 l 149 1000 l 285 1000 m 186 0 q 81 -33 115 0 q 47 -115 47 -65 q 70 -181 47 -158 q 135 -203 93 -203 q 221 -176 174 -203 l 239 -244 q 118 -276 182 -276 q 1 -237 44 -276 q -42 -131 -42 -197 q -10 -28 -42 -72 q 83 40 22 17 l 138 699 l 250 699 l 193 0 l 186 0 z "},"ĩ":{"ha":331,"x_min":-21,"x_max":443,"o":"m 138 699 l 250 699 l 194 0 l 82 0 l 138 699 m -21 854 q 21 974 -17 933 q 115 1014 58 1014 q 170 1002 144 1014 q 231 968 196 990 q 277 942 260 950 q 311 933 294 933 q 360 953 342 933 q 381 1010 378 974 l 443 1010 q 402 890 439 931 q 308 850 365 850 q 253 862 279 850 q 193 896 228 874 q 147 923 163 915 q 114 931 131 931 q 64 910 83 931 q 42 854 44 889 l -21 854 z "},"j":{"ha":331,"x_min":-128,"x_max":285,"o":"m -119 -199 q -53 -210 -82 -210 q 75 -69 64 -210 l 138 699 l 249 699 l 186 -83 q 118 -249 176 -193 q -36 -306 60 -306 q -128 -293 -82 -306 l -119 -199 m 285 994 l 275 867 l 136 867 l 147 994 l 285 994 z "},"ȷ":{"ha":331,"x_min":-128,"x_max":249,"o":"m -119 -199 q -53 -210 -82 -210 q 75 -69 64 -210 l 138 699 l 249 699 l 186 -83 q 118 -249 176 -193 q -36 -306 60 -306 q -128 -293 -82 -306 l -119 -199 z "},"ĵ":{"ha":331,"x_min":-128,"x_max":406,"o":"m -119 -199 q -53 -210 -82 -210 q 75 -69 64 -210 l 138 699 l 249 699 l 186 -83 q 118 -249 176 -193 q -36 -306 60 -306 q -128 -293 -82 -306 l -119 -199 m -6 789 l 183 1072 l 263 1072 l 406 789 l 303 789 l 217 989 l 101 789 l -6 789 z "},"k":{"ha":715,"x_min":82,"x_max":719,"o":"m 344 361 l 699 0 l 557 0 l 219 340 l 193 0 l 82 0 l 163 1022 l 274 1022 l 222 378 l 574 697 l 719 697 l 344 361 z "},"ķ":{"ha":715,"x_min":82,"x_max":719,"o":"m 344 361 l 699 0 l 557 0 l 219 340 l 193 0 l 82 0 l 163 1022 l 274 1022 l 222 378 l 574 697 l 719 697 l 344 361 m 392 -101 l 386 -182 q 361 -282 381 -239 q 300 -364 342 -325 l 251 -325 q 292 -272 279 -297 q 310 -217 306 -247 l 246 -217 l 254 -101 l 392 -101 z "},"ĸ":{"ha":714,"x_min":81,"x_max":719,"o":"m 344 361 l 699 0 l 557 0 l 219 340 l 193 0 l 81 0 l 136 699 l 247 699 l 222 378 l 574 697 l 719 697 l 344 361 z "},"l":{"ha":331,"x_min":81,"x_max":275,"o":"m 163 1022 l 275 1022 l 193 0 l 81 0 l 163 1022 z "},"ĺ":{"ha":331,"x_min":81,"x_max":472,"o":"m 163 1022 l 275 1022 l 193 0 l 81 0 l 163 1022 m 186 1107 l 340 1319 l 472 1319 l 264 1107 l 186 1107 z "},"ľ":{"ha":331,"x_min":81,"x_max":417,"o":"m 163 1022 l 275 1022 l 193 0 l 81 0 l 163 1022 m 306 750 l 325 1022 l 417 1022 l 358 750 l 306 750 z "},"ļ":{"ha":331,"x_min":53,"x_max":275,"o":"m 163 1022 l 275 1022 l 193 0 l 81 0 l 163 1022 m 199 -101 l 193 -182 q 168 -282 188 -239 q 107 -364 149 -325 l 58 -325 q 99 -272 86 -297 q 117 -217 113 -247 l 53 -217 l 61 -101 l 199 -101 z "},"ŀ":{"ha":371,"x_min":81,"x_max":421,"o":"m 163 1022 l 275 1022 l 193 0 l 81 0 l 163 1022 m 421 564 l 410 432 l 268 432 l 278 564 l 421 564 z "},"ḷ":{"ha":331,"x_min":53,"x_max":275,"o":"m 163 1022 l 275 1022 l 193 0 l 81 0 l 163 1022 m 193 -132 l 182 -256 l 53 -256 l 64 -132 l 193 -132 z "},"ǉ":{"ha":661,"x_min":81,"x_max":615,"o":"m 163 1022 l 275 1022 l 193 0 l 81 0 l 163 1022 m 211 -199 q 278 -210 249 -210 q 406 -69 394 -210 l 468 699 l 579 699 l 517 -83 q 449 -249 507 -193 q 294 -306 390 -306 q 203 -293 249 -306 l 211 -199 m 615 994 l 606 867 l 467 867 l 478 994 l 615 994 z "},"ḻ":{"ha":331,"x_min":-90,"x_max":336,"o":"m 163 1022 l 275 1022 l 193 0 l 81 0 l 163 1022 m -83 -153 l 336 -153 l 329 -236 l -90 -236 l -83 -153 z "},"ł":{"ha":401,"x_min":-3,"x_max":429,"o":"m 267 489 l 228 0 l 118 0 l 151 425 l 38 363 l -3 443 l 160 533 l 199 1019 l 308 1019 l 275 597 l 389 660 l 429 579 l 267 489 z "},"m":{"ha":1221,"x_min":81,"x_max":1122,"o":"m 903 715 q 1067 656 1011 715 q 1122 481 1122 596 q 1121 436 1122 451 l 1088 0 l 976 0 l 1010 431 q 1011 468 1011 443 q 977 583 1011 546 q 874 621 943 621 q 732 563 785 621 q 672 397 679 506 l 640 0 l 529 0 l 563 431 q 564 468 564 443 q 530 583 564 546 q 426 621 496 621 q 285 563 338 621 q 225 397 233 506 l 193 0 l 81 0 l 121 503 q 126 633 126 558 q 125 699 126 676 l 231 699 l 233 586 q 457 715 303 715 q 664 583 622 715 q 762 681 700 646 q 903 715 824 715 z "},"ṃ":{"ha":1221,"x_min":81,"x_max":1122,"o":"m 903 715 q 1067 656 1011 715 q 1122 481 1122 596 q 1121 436 1122 451 l 1088 0 l 976 0 l 1010 431 q 1011 468 1011 443 q 977 583 1011 546 q 874 621 943 621 q 732 563 785 621 q 672 397 679 506 l 640 0 l 529 0 l 563 431 q 564 468 564 443 q 530 583 564 546 q 426 621 496 621 q 285 563 338 621 q 225 397 233 506 l 193 0 l 81 0 l 121 503 q 126 633 126 558 q 125 699 126 676 l 231 699 l 233 586 q 457 715 303 715 q 664 583 622 715 q 762 681 700 646 q 903 715 824 715 m 640 -132 l 629 -256 l 500 -256 l 511 -132 l 640 -132 z "},"n":{"ha":813,"x_min":81,"x_max":715,"o":"m 475 715 q 653 653 592 715 q 715 474 715 592 q 714 436 715 449 l 679 0 l 568 0 l 603 429 q 604 458 604 439 q 449 621 604 621 q 292 563 350 621 q 225 400 233 504 l 193 0 l 81 0 l 121 503 q 126 633 126 560 q 125 699 126 676 l 231 699 l 233 583 q 331 681 268 647 q 475 715 394 715 z "},"ń":{"ha":813,"x_min":81,"x_max":715,"o":"m 475 715 q 653 653 592 715 q 715 474 715 592 q 714 436 715 449 l 679 0 l 568 0 l 603 429 q 604 458 604 439 q 449 621 604 621 q 292 563 350 621 q 225 400 233 504 l 193 0 l 81 0 l 121 503 q 126 633 126 560 q 125 699 126 676 l 231 699 l 233 583 q 331 681 268 647 q 475 715 394 715 m 404 789 l 563 1072 l 697 1072 l 482 789 l 404 789 z "},"ŉ":{"ha":813,"x_min":81,"x_max":715,"o":"m 331 1057 l 325 976 q 301 877 321 921 q 240 794 282 833 l 190 833 q 233 886 219 861 q 250 942 247 911 l 186 942 l 194 1057 l 331 1057 m 475 715 q 653 653 592 715 q 715 474 715 592 q 714 436 715 449 l 679 0 l 568 0 l 603 429 q 604 458 604 439 q 449 621 604 621 q 292 563 350 621 q 225 400 233 504 l 193 0 l 81 0 l 121 503 q 126 633 126 560 q 125 699 126 676 l 231 699 l 233 583 q 331 681 268 647 q 475 715 394 715 z "},"ň":{"ha":813,"x_min":81,"x_max":715,"o":"m 475 715 q 653 653 592 715 q 715 474 715 592 q 714 436 715 449 l 679 0 l 568 0 l 603 429 q 604 458 604 439 q 449 621 604 621 q 292 563 350 621 q 225 400 233 504 l 193 0 l 81 0 l 121 503 q 126 633 126 560 q 125 699 126 676 l 231 699 l 233 583 q 331 681 268 647 q 475 715 394 715 m 671 1072 l 483 789 l 404 789 l 261 1072 l 363 1072 l 449 871 l 564 1072 l 671 1072 z "},"ņ":{"ha":813,"x_min":81,"x_max":715,"o":"m 475 715 q 653 653 592 715 q 715 474 715 592 q 714 436 715 449 l 679 0 l 568 0 l 603 429 q 604 458 604 439 q 449 621 604 621 q 292 563 350 621 q 225 400 233 504 l 193 0 l 81 0 l 121 503 q 126 633 126 560 q 125 699 126 676 l 231 699 l 233 583 q 331 681 268 647 q 475 715 394 715 m 442 -101 l 436 -182 q 411 -282 431 -239 q 350 -364 392 -325 l 301 -325 q 342 -272 329 -297 q 360 -217 356 -247 l 296 -217 l 304 -101 l 442 -101 z "},"ṅ":{"ha":813,"x_min":81,"x_max":715,"o":"m 475 715 q 653 653 592 715 q 715 474 715 592 q 714 436 715 449 l 679 0 l 568 0 l 603 429 q 604 458 604 439 q 449 621 604 621 q 292 563 350 621 q 225 400 233 504 l 193 0 l 81 0 l 121 503 q 126 633 126 560 q 125 699 126 676 l 231 699 l 233 583 q 331 681 268 647 q 475 715 394 715 m 528 994 l 518 867 l 379 867 l 390 994 l 528 994 z "},"ṇ":{"ha":813,"x_min":81,"x_max":715,"o":"m 475 715 q 653 653 592 715 q 715 474 715 592 q 714 436 715 449 l 679 0 l 568 0 l 603 429 q 604 458 604 439 q 449 621 604 621 q 292 563 350 621 q 225 400 233 504 l 193 0 l 81 0 l 121 503 q 126 633 126 560 q 125 699 126 676 l 231 699 l 233 583 q 331 681 268 647 q 475 715 394 715 m 436 -132 l 425 -256 l 296 -256 l 307 -132 l 436 -132 z "},"ŋ":{"ha":813,"x_min":81,"x_max":715,"o":"m 475 715 q 653 653 592 715 q 715 474 715 592 q 714 436 715 449 l 676 -42 q 610 -208 669 -151 q 454 -264 550 -264 q 364 -251 408 -264 l 371 -157 q 438 -168 406 -168 q 528 -137 493 -168 q 567 -28 563 -106 l 603 429 q 604 458 604 439 q 449 621 604 621 q 292 563 350 621 q 225 400 233 504 l 193 0 l 81 0 l 121 503 q 126 633 126 560 q 125 699 126 676 l 231 699 l 233 583 q 331 681 268 647 q 475 715 394 715 z "},"ǌ":{"ha":1143,"x_min":81,"x_max":1097,"o":"m 475 715 q 653 653 592 715 q 715 474 715 592 q 714 436 715 449 l 679 0 l 568 0 l 603 429 q 604 458 604 439 q 449 621 604 621 q 292 563 350 621 q 225 400 233 504 l 193 0 l 81 0 l 121 503 q 126 633 126 560 q 125 699 126 676 l 231 699 l 233 583 q 331 681 268 647 q 475 715 394 715 m 693 -199 q 760 -210 731 -210 q 888 -69 876 -210 l 950 699 l 1061 699 l 999 -83 q 931 -249 989 -193 q 776 -306 872 -306 q 685 -293 731 -306 l 693 -199 m 1097 994 l 1088 867 l 949 867 l 960 994 l 1097 994 z "},"ṉ":{"ha":813,"x_min":81,"x_max":715,"o":"m 475 715 q 653 653 592 715 q 715 474 715 592 q 714 436 715 449 l 679 0 l 568 0 l 603 429 q 604 458 604 439 q 449 621 604 621 q 292 563 350 621 q 225 400 233 504 l 193 0 l 81 0 l 121 503 q 126 633 126 560 q 125 699 126 676 l 231 699 l 233 583 q 331 681 268 647 q 475 715 394 715 m 160 -153 l 579 -153 l 572 -236 l 153 -236 l 160 -153 z "},"ñ":{"ha":813,"x_min":81,"x_max":715,"o":"m 475 715 q 653 653 592 715 q 715 474 715 592 q 714 436 715 449 l 679 0 l 568 0 l 603 429 q 604 458 604 439 q 449 621 604 621 q 292 563 350 621 q 225 400 233 504 l 193 0 l 81 0 l 121 503 q 126 633 126 560 q 125 699 126 676 l 231 699 l 233 583 q 331 681 268 647 q 475 715 394 715 m 222 854 q 264 974 226 933 q 358 1014 301 1014 q 413 1002 388 1014 q 474 968 439 990 q 520 942 503 950 q 554 933 538 933 q 603 953 585 933 q 624 1010 621 974 l 686 1010 q 645 890 682 931 q 551 850 608 850 q 497 862 522 850 q 436 896 471 874 q 390 923 406 915 q 357 931 374 931 q 307 910 326 931 q 285 854 288 889 l 222 854 z "},"o":{"ha":794,"x_min":67,"x_max":728,"o":"m 389 -10 q 219 32 292 -10 q 106 150 146 74 q 67 328 67 226 q 109 532 67 444 q 228 667 151 619 q 406 715 304 715 q 576 674 503 715 q 688 555 649 632 q 728 376 728 478 q 685 172 728 260 q 567 38 643 85 q 389 -10 490 -10 m 392 82 q 556 163 497 82 q 614 381 614 243 q 559 559 614 496 q 406 622 504 622 q 240 542 300 622 q 181 324 181 461 q 235 144 181 206 q 392 82 289 82 z "},"ó":{"ha":794,"x_min":67,"x_max":728,"o":"m 389 -10 q 219 32 292 -10 q 106 150 146 74 q 67 328 67 226 q 109 532 67 444 q 228 667 151 619 q 406 715 304 715 q 576 674 503 715 q 688 555 649 632 q 728 376 728 478 q 685 172 728 260 q 567 38 643 85 q 389 -10 490 -10 m 392 82 q 556 163 497 82 q 614 381 614 243 q 559 559 614 496 q 406 622 504 622 q 240 542 300 622 q 181 324 181 461 q 235 144 181 206 q 392 82 289 82 m 393 789 l 551 1072 l 686 1072 l 471 789 l 393 789 z "},"ŏ":{"ha":794,"x_min":67,"x_max":728,"o":"m 389 -10 q 219 32 292 -10 q 106 150 146 74 q 67 328 67 226 q 109 532 67 444 q 228 667 151 619 q 406 715 304 715 q 576 674 503 715 q 688 555 649 632 q 728 376 728 478 q 685 172 728 260 q 567 38 643 85 q 389 -10 490 -10 m 392 82 q 556 163 497 82 q 614 381 614 243 q 559 559 614 496 q 406 622 504 622 q 240 542 300 622 q 181 324 181 461 q 235 144 181 206 q 392 82 289 82 m 438 831 q 301 875 360 831 q 218 1008 242 919 l 292 1039 q 443 914 339 914 q 535 942 493 914 q 611 1039 576 971 l 681 1008 q 581 874 644 917 q 438 831 517 831 z "},"ô":{"ha":794,"x_min":67,"x_max":728,"o":"m 389 -10 q 219 32 292 -10 q 106 150 146 74 q 67 328 67 226 q 109 532 67 444 q 228 667 151 619 q 406 715 304 715 q 576 674 503 715 q 688 555 649 632 q 728 376 728 478 q 685 172 728 260 q 567 38 643 85 q 389 -10 490 -10 m 392 82 q 556 163 497 82 q 614 381 614 243 q 559 559 614 496 q 406 622 504 622 q 240 542 300 622 q 181 324 181 461 q 235 144 181 206 q 392 82 289 82 m 226 789 l 415 1072 l 494 1072 l 638 789 l 535 789 l 449 989 l 333 789 l 226 789 z "},"ố":{"ha":794,"x_min":67,"x_max":828,"o":"m 389 -10 q 219 32 292 -10 q 106 150 146 74 q 67 328 67 226 q 109 532 67 444 q 228 667 151 619 q 406 715 304 715 q 576 674 503 715 q 688 555 649 632 q 728 376 728 478 q 685 172 728 260 q 567 38 643 85 q 389 -10 490 -10 m 392 82 q 556 163 497 82 q 614 381 614 243 q 559 559 614 496 q 406 622 504 622 q 240 542 300 622 q 181 324 181 461 q 235 144 181 206 q 392 82 289 82 m 563 933 l 703 1132 l 828 1132 l 631 933 l 563 933 m 226 789 l 411 994 l 486 994 l 638 789 l 536 789 l 446 928 l 331 789 l 226 789 z "},"ộ":{"ha":794,"x_min":67,"x_max":728,"o":"m 389 -10 q 219 32 292 -10 q 106 150 146 74 q 67 328 67 226 q 109 532 67 444 q 228 667 151 619 q 406 715 304 715 q 576 674 503 715 q 688 555 649 632 q 728 376 728 478 q 685 172 728 260 q 567 38 643 85 q 389 -10 490 -10 m 392 82 q 556 163 497 82 q 614 381 614 243 q 559 559 614 496 q 406 622 504 622 q 240 542 300 622 q 181 324 181 461 q 235 144 181 206 q 392 82 289 82 m 425 -132 l 414 -256 l 285 -256 l 296 -132 l 425 -132 m 226 789 l 415 1072 l 494 1072 l 638 789 l 535 789 l 449 989 l 333 789 l 226 789 z "},"ồ":{"ha":794,"x_min":67,"x_max":728,"o":"m 389 -10 q 219 32 292 -10 q 106 150 146 74 q 67 328 67 226 q 109 532 67 444 q 228 667 151 619 q 406 715 304 715 q 576 674 503 715 q 688 555 649 632 q 728 376 728 478 q 685 172 728 260 q 567 38 643 85 q 389 -10 490 -10 m 392 82 q 556 163 497 82 q 614 381 614 243 q 559 559 614 496 q 406 622 504 622 q 240 542 300 622 q 181 324 181 461 q 235 144 181 206 q 392 82 289 82 m 483 1132 l 596 1132 l 690 933 l 622 933 l 483 1132 m 411 994 l 486 994 l 638 789 l 536 789 l 446 928 l 331 789 l 226 789 l 411 994 z "},"ổ":{"ha":794,"x_min":67,"x_max":754,"o":"m 389 -10 q 219 32 292 -10 q 106 150 146 74 q 67 328 67 226 q 109 532 67 444 q 228 667 151 619 q 406 715 304 715 q 576 674 503 715 q 688 555 649 632 q 728 376 728 478 q 685 172 728 260 q 567 38 643 85 q 389 -10 490 -10 m 392 82 q 556 163 497 82 q 614 381 614 243 q 559 559 614 496 q 406 622 504 622 q 240 542 300 622 q 181 324 181 461 q 235 144 181 206 q 392 82 289 82 m 563 957 q 581 995 564 982 q 626 1019 597 1008 q 655 1033 646 1028 q 664 1049 664 1039 q 650 1066 664 1060 q 614 1072 636 1072 q 521 1056 572 1072 l 507 1117 q 622 1139 563 1139 q 719 1117 685 1139 q 754 1058 754 1094 q 736 1014 754 1029 q 685 985 718 999 q 650 967 663 975 q 636 946 638 958 l 635 933 l 561 933 l 563 957 m 411 994 l 486 994 l 638 789 l 536 789 l 446 928 l 331 789 l 226 789 l 411 994 z "},"ỗ":{"ha":794,"x_min":67,"x_max":728,"o":"m 389 -10 q 219 32 292 -10 q 106 150 146 74 q 67 328 67 226 q 109 532 67 444 q 228 667 151 619 q 406 715 304 715 q 576 674 503 715 q 688 555 649 632 q 728 376 728 478 q 685 172 728 260 q 567 38 643 85 q 389 -10 490 -10 m 392 82 q 556 163 497 82 q 614 381 614 243 q 559 559 614 496 q 406 622 504 622 q 240 542 300 622 q 181 324 181 461 q 235 144 181 206 q 392 82 289 82 m 224 1015 q 265 1117 226 1079 q 358 1154 303 1154 q 413 1146 388 1154 q 476 1121 439 1138 q 521 1101 503 1108 q 557 1094 539 1094 q 604 1111 586 1094 q 624 1156 622 1128 l 688 1156 q 647 1056 685 1093 q 553 1018 608 1018 q 499 1026 524 1018 q 436 1051 475 1035 q 390 1072 408 1065 q 354 1078 372 1078 q 307 1060 325 1078 q 288 1015 289 1042 l 224 1015 m 411 994 l 486 994 l 638 789 l 536 789 l 446 928 l 331 789 l 226 789 l 411 994 z "},"ȍ":{"ha":794,"x_min":67,"x_max":728,"o":"m 389 -10 q 219 32 292 -10 q 106 150 146 74 q 67 328 67 226 q 109 532 67 444 q 228 667 151 619 q 406 715 304 715 q 576 674 503 715 q 688 555 649 632 q 728 376 728 478 q 685 172 728 260 q 567 38 643 85 q 389 -10 490 -10 m 392 82 q 556 163 497 82 q 614 381 614 243 q 559 559 614 496 q 406 622 504 622 q 240 542 300 622 q 181 324 181 461 q 235 144 181 206 q 392 82 289 82 m 232 1072 l 333 1072 l 375 789 l 318 789 l 232 1072 m 403 1072 l 503 1072 l 544 789 l 488 789 l 403 1072 z "},"ö":{"ha":794,"x_min":67,"x_max":728,"o":"m 389 -10 q 219 32 292 -10 q 106 150 146 74 q 67 328 67 226 q 109 532 67 444 q 228 667 151 619 q 406 715 304 715 q 576 674 503 715 q 688 555 649 632 q 728 376 728 478 q 685 172 728 260 q 567 38 643 85 q 389 -10 490 -10 m 392 82 q 556 163 497 82 q 614 381 614 243 q 559 559 614 496 q 406 622 504 622 q 240 542 300 622 q 181 324 181 461 q 235 144 181 206 q 392 82 289 82 m 390 990 l 381 871 l 257 871 l 265 990 l 390 990 m 631 990 l 621 871 l 496 871 l 506 990 l 631 990 z "},"ȫ":{"ha":794,"x_min":67,"x_max":728,"o":"m 389 -10 q 219 32 292 -10 q 106 150 146 74 q 67 328 67 226 q 109 532 67 444 q 228 667 151 619 q 406 715 304 715 q 576 674 503 715 q 688 555 649 632 q 728 376 728 478 q 685 172 728 260 q 567 38 643 85 q 389 -10 490 -10 m 392 82 q 556 163 497 82 q 614 381 614 243 q 559 559 614 496 q 406 622 504 622 q 240 542 300 622 q 181 324 181 461 q 235 144 181 206 q 392 82 289 82 m 390 990 l 381 871 l 257 871 l 265 990 l 390 990 m 631 990 l 621 871 l 496 871 l 506 990 l 631 990 m 257 1244 l 676 1244 l 669 1158 l 250 1158 l 257 1244 z "},"ȱ":{"ha":794,"x_min":67,"x_max":728,"o":"m 389 -10 q 219 32 292 -10 q 106 150 146 74 q 67 328 67 226 q 109 532 67 444 q 228 667 151 619 q 406 715 304 715 q 576 674 503 715 q 688 555 649 632 q 728 376 728 478 q 685 172 728 260 q 567 38 643 85 q 389 -10 490 -10 m 392 82 q 556 163 497 82 q 614 381 614 243 q 559 559 614 496 q 406 622 504 622 q 240 542 300 622 q 181 324 181 461 q 235 144 181 206 q 392 82 289 82 m 517 994 l 507 867 l 368 867 l 379 994 l 517 994 m 257 1244 l 676 1244 l 669 1158 l 250 1158 l 257 1244 z "},"ọ":{"ha":794,"x_min":67,"x_max":728,"o":"m 389 -10 q 219 32 292 -10 q 106 150 146 74 q 67 328 67 226 q 109 532 67 444 q 228 667 151 619 q 406 715 304 715 q 576 674 503 715 q 688 555 649 632 q 728 376 728 478 q 685 172 728 260 q 567 38 643 85 q 389 -10 490 -10 m 392 82 q 556 163 497 82 q 614 381 614 243 q 559 559 614 496 q 406 622 504 622 q 240 542 300 622 q 181 324 181 461 q 235 144 181 206 q 392 82 289 82 m 425 -132 l 414 -256 l 285 -256 l 296 -132 l 425 -132 z "},"ò":{"ha":794,"x_min":67,"x_max":728,"o":"m 389 -10 q 219 32 292 -10 q 106 150 146 74 q 67 328 67 226 q 109 532 67 444 q 228 667 151 619 q 406 715 304 715 q 576 674 503 715 q 688 555 649 632 q 728 376 728 478 q 685 172 728 260 q 567 38 643 85 q 389 -10 490 -10 m 392 82 q 556 163 497 82 q 614 381 614 243 q 559 559 614 496 q 406 622 504 622 q 240 542 300 622 q 181 324 181 461 q 235 144 181 206 q 392 82 289 82 m 228 1072 l 350 1072 l 471 789 l 393 789 l 228 1072 z "},"ỏ":{"ha":794,"x_min":67,"x_max":728,"o":"m 389 -10 q 219 32 292 -10 q 106 150 146 74 q 67 328 67 226 q 109 532 67 444 q 228 667 151 619 q 406 715 304 715 q 576 674 503 715 q 688 555 649 632 q 728 376 728 478 q 685 172 728 260 q 567 38 643 85 q 389 -10 490 -10 m 392 82 q 556 163 497 82 q 614 381 614 243 q 559 559 614 496 q 406 622 504 622 q 240 542 300 622 q 181 324 181 461 q 235 144 181 206 q 392 82 289 82 m 471 789 l 399 789 l 401 826 q 419 875 403 854 q 463 921 435 896 q 492 950 482 938 q 501 975 501 963 q 488 999 501 990 q 447 1007 474 1007 q 363 992 419 1007 l 347 1056 q 464 1078 400 1078 q 558 1052 522 1078 q 594 986 594 1026 q 578 933 594 954 q 529 886 561 911 q 488 850 501 865 q 472 813 474 835 l 471 789 z "},"ơ":{"ha":794,"x_min":67,"x_max":772,"o":"m 769 847 q 724 715 763 768 q 618 644 686 663 q 700 528 672 599 q 728 376 728 457 q 685 172 728 260 q 567 38 643 85 q 389 -10 490 -10 q 219 32 292 -10 q 106 150 146 74 q 67 328 67 226 q 109 532 67 444 q 228 667 151 619 q 407 715 306 715 q 489 710 444 715 q 528 706 513 706 q 631 742 596 706 q 671 863 665 778 l 672 883 l 772 883 l 769 847 m 392 82 q 556 163 497 82 q 614 381 614 243 q 559 559 614 496 q 406 622 504 622 q 240 542 300 622 q 181 324 181 461 q 235 144 181 206 q 392 82 289 82 z "},"ớ":{"ha":794,"x_min":67,"x_max":772,"o":"m 769 847 q 724 715 763 768 q 618 644 686 663 q 700 528 672 599 q 728 376 728 457 q 685 172 728 260 q 567 38 643 85 q 389 -10 490 -10 q 219 32 292 -10 q 106 150 146 74 q 67 328 67 226 q 109 532 67 444 q 228 667 151 619 q 407 715 306 715 q 489 710 444 715 q 528 706 513 706 q 631 742 596 706 q 671 863 665 778 l 672 883 l 772 883 l 769 847 m 392 82 q 556 163 497 82 q 614 381 614 243 q 559 559 614 496 q 406 622 504 622 q 240 542 300 622 q 181 324 181 461 q 235 144 181 206 q 392 82 289 82 m 393 789 l 551 1072 l 686 1072 l 471 789 l 393 789 z "},"ợ":{"ha":794,"x_min":67,"x_max":772,"o":"m 769 847 q 724 715 763 768 q 618 644 686 663 q 700 528 672 599 q 728 376 728 457 q 685 172 728 260 q 567 38 643 85 q 389 -10 490 -10 q 219 32 292 -10 q 106 150 146 74 q 67 328 67 226 q 109 532 67 444 q 228 667 151 619 q 407 715 306 715 q 489 710 444 715 q 528 706 513 706 q 631 742 596 706 q 671 863 665 778 l 672 883 l 772 883 l 769 847 m 392 82 q 556 163 497 82 q 614 381 614 243 q 559 559 614 496 q 406 622 504 622 q 240 542 300 622 q 181 324 181 461 q 235 144 181 206 q 392 82 289 82 m 425 -132 l 414 -256 l 285 -256 l 296 -132 l 425 -132 z "},"ờ":{"ha":794,"x_min":67,"x_max":772,"o":"m 769 847 q 724 715 763 768 q 618 644 686 663 q 700 528 672 599 q 728 376 728 457 q 685 172 728 260 q 567 38 643 85 q 389 -10 490 -10 q 219 32 292 -10 q 106 150 146 74 q 67 328 67 226 q 109 532 67 444 q 228 667 151 619 q 407 715 306 715 q 489 710 444 715 q 528 706 513 706 q 631 742 596 706 q 671 863 665 778 l 672 883 l 772 883 l 769 847 m 392 82 q 556 163 497 82 q 614 381 614 243 q 559 559 614 496 q 406 622 504 622 q 240 542 300 622 q 181 324 181 461 q 235 144 181 206 q 392 82 289 82 m 228 1072 l 350 1072 l 471 789 l 393 789 l 228 1072 z "},"ở":{"ha":794,"x_min":67,"x_max":772,"o":"m 769 847 q 724 715 763 768 q 618 644 686 663 q 700 528 672 599 q 728 376 728 457 q 685 172 728 260 q 567 38 643 85 q 389 -10 490 -10 q 219 32 292 -10 q 106 150 146 74 q 67 328 67 226 q 109 532 67 444 q 228 667 151 619 q 407 715 306 715 q 489 710 444 715 q 528 706 513 706 q 631 742 596 706 q 671 863 665 778 l 672 883 l 772 883 l 769 847 m 392 82 q 556 163 497 82 q 614 381 614 243 q 559 559 614 496 q 406 622 504 622 q 240 542 300 622 q 181 324 181 461 q 235 144 181 206 q 392 82 289 82 m 471 789 l 399 789 l 401 826 q 419 875 403 854 q 463 921 435 896 q 492 950 482 938 q 501 975 501 963 q 488 999 501 990 q 447 1007 474 1007 q 363 992 419 1007 l 347 1056 q 464 1078 400 1078 q 558 1052 522 1078 q 594 986 594 1026 q 578 933 594 954 q 529 886 561 911 q 488 850 501 865 q 472 813 474 835 l 471 789 z "},"ỡ":{"ha":794,"x_min":67,"x_max":772,"o":"m 769 847 q 724 715 763 768 q 618 644 686 663 q 700 528 672 599 q 728 376 728 457 q 685 172 728 260 q 567 38 643 85 q 389 -10 490 -10 q 219 32 292 -10 q 106 150 146 74 q 67 328 67 226 q 109 532 67 444 q 228 667 151 619 q 407 715 306 715 q 489 710 444 715 q 528 706 513 706 q 631 742 596 706 q 671 863 665 778 l 672 883 l 772 883 l 769 847 m 392 82 q 556 163 497 82 q 614 381 614 243 q 559 559 614 496 q 406 622 504 622 q 240 542 300 622 q 181 324 181 461 q 235 144 181 206 q 392 82 289 82 m 211 854 q 253 974 215 933 q 347 1014 290 1014 q 402 1002 376 1014 q 463 968 428 990 q 509 942 492 950 q 543 933 526 933 q 592 953 574 933 q 613 1010 610 974 l 675 1010 q 634 890 671 931 q 540 850 597 850 q 485 862 511 850 q 425 896 460 874 q 378 923 394 915 q 346 931 363 931 q 296 910 315 931 q 274 854 276 889 l 211 854 z "},"ő":{"ha":794,"x_min":67,"x_max":728,"o":"m 389 -10 q 219 32 292 -10 q 106 150 146 74 q 67 328 67 226 q 109 532 67 444 q 228 667 151 619 q 406 715 304 715 q 576 674 503 715 q 688 555 649 632 q 728 376 728 478 q 685 172 728 260 q 567 38 643 85 q 389 -10 490 -10 m 392 82 q 556 163 497 82 q 614 381 614 243 q 559 559 614 496 q 406 622 504 622 q 240 542 300 622 q 181 324 181 461 q 235 144 181 206 q 392 82 289 82 m 318 789 l 403 1072 l 510 1072 l 375 789 l 318 789 m 488 789 l 572 1072 l 679 1072 l 544 789 l 488 789 z "},"ȏ":{"ha":794,"x_min":67,"x_max":728,"o":"m 389 -10 q 219 32 292 -10 q 106 150 146 74 q 67 328 67 226 q 109 532 67 444 q 228 667 151 619 q 406 715 304 715 q 576 674 503 715 q 688 555 649 632 q 728 376 728 478 q 685 172 728 260 q 567 38 643 85 q 389 -10 490 -10 m 392 82 q 556 163 497 82 q 614 381 614 243 q 559 559 614 496 q 406 622 504 622 q 240 542 300 622 q 181 324 181 461 q 235 144 181 206 q 392 82 289 82 m 449 1036 q 585 992 526 1036 q 668 860 644 949 l 596 829 q 443 953 549 953 q 351 924 393 953 q 276 829 310 896 l 206 858 q 306 993 242 950 q 449 1036 371 1036 z "},"ō":{"ha":794,"x_min":67,"x_max":728,"o":"m 389 -10 q 219 32 292 -10 q 106 150 146 74 q 67 328 67 226 q 109 532 67 444 q 228 667 151 619 q 406 715 304 715 q 576 674 503 715 q 688 555 649 632 q 728 376 728 478 q 685 172 728 260 q 567 38 643 85 q 389 -10 490 -10 m 392 82 q 556 163 497 82 q 614 381 614 243 q 559 559 614 496 q 406 622 504 622 q 240 542 300 622 q 181 324 181 461 q 235 144 181 206 q 392 82 289 82 m 236 974 l 656 974 l 649 888 l 229 888 l 236 974 z "},"ṓ":{"ha":794,"x_min":67,"x_max":728,"o":"m 389 -10 q 219 32 292 -10 q 106 150 146 74 q 67 328 67 226 q 109 532 67 444 q 228 667 151 619 q 406 715 304 715 q 576 674 503 715 q 688 555 649 632 q 728 376 728 478 q 685 172 728 260 q 567 38 643 85 q 389 -10 490 -10 m 392 82 q 556 163 497 82 q 614 381 614 243 q 559 559 614 496 q 406 622 504 622 q 240 542 300 622 q 181 324 181 461 q 235 144 181 206 q 392 82 289 82 m 236 974 l 656 974 l 649 888 l 229 888 l 236 974 m 414 1060 l 572 1343 l 707 1343 l 492 1060 l 414 1060 z "},"ṑ":{"ha":794,"x_min":67,"x_max":728,"o":"m 389 -10 q 219 32 292 -10 q 106 150 146 74 q 67 328 67 226 q 109 532 67 444 q 228 667 151 619 q 406 715 304 715 q 576 674 503 715 q 688 555 649 632 q 728 376 728 478 q 685 172 728 260 q 567 38 643 85 q 389 -10 490 -10 m 392 82 q 556 163 497 82 q 614 381 614 243 q 559 559 614 496 q 406 622 504 622 q 240 542 300 622 q 181 324 181 461 q 235 144 181 206 q 392 82 289 82 m 236 974 l 656 974 l 649 888 l 229 888 l 236 974 m 249 1343 l 371 1343 l 492 1060 l 414 1060 l 249 1343 z "},"ǫ":{"ha":794,"x_min":67,"x_max":728,"o":"m 490 4 q 393 -44 424 -17 q 363 -117 363 -72 q 385 -181 363 -158 q 449 -203 408 -203 q 535 -176 488 -203 l 551 -244 q 497 -267 529 -258 q 433 -276 465 -276 q 316 -237 360 -276 q 272 -135 272 -197 q 332 -7 272 -56 q 138 99 210 10 q 67 328 67 189 q 109 532 67 444 q 228 667 151 619 q 406 715 304 715 q 576 674 503 715 q 688 555 649 632 q 728 376 728 478 q 662 128 728 221 q 490 4 596 36 m 181 324 q 235 144 181 206 q 392 82 289 82 q 556 163 497 82 q 614 381 614 243 q 559 559 614 496 q 406 622 504 622 q 240 542 300 622 q 181 324 181 461 z "},"ø":{"ha":794,"x_min":67,"x_max":728,"o":"m 629 635 q 702 523 676 589 q 728 376 728 457 q 685 172 728 260 q 567 38 643 85 q 389 -10 490 -10 q 228 26 297 -10 l 168 -65 l 103 -25 l 165 71 q 92 181 118 115 q 67 328 67 246 q 109 532 67 444 q 228 667 151 619 q 406 715 304 715 q 568 678 499 715 l 628 768 l 692 731 l 629 635 m 179 324 q 222 157 179 219 l 514 597 q 406 622 471 622 q 239 542 299 622 q 179 324 179 461 m 392 82 q 557 162 499 82 q 615 381 615 242 q 571 547 615 486 l 281 106 q 392 82 328 82 z "},"ǿ":{"ha":794,"x_min":67,"x_max":728,"o":"m 629 635 q 702 523 676 589 q 728 376 728 457 q 685 172 728 260 q 567 38 643 85 q 389 -10 490 -10 q 228 26 297 -10 l 168 -65 l 103 -25 l 165 71 q 92 181 118 115 q 67 328 67 246 q 109 532 67 444 q 228 667 151 619 q 406 715 304 715 q 568 678 499 715 l 628 768 l 692 731 l 629 635 m 179 324 q 222 157 179 219 l 514 597 q 406 622 471 622 q 239 542 299 622 q 179 324 179 461 m 392 82 q 557 162 499 82 q 615 381 615 242 q 571 547 615 486 l 281 106 q 392 82 328 82 m 393 789 l 551 1072 l 686 1072 l 471 789 l 393 789 z "},"õ":{"ha":794,"x_min":67,"x_max":728,"o":"m 389 -10 q 219 32 292 -10 q 106 150 146 74 q 67 328 67 226 q 109 532 67 444 q 228 667 151 619 q 406 715 304 715 q 576 674 503 715 q 688 555 649 632 q 728 376 728 478 q 685 172 728 260 q 567 38 643 85 q 389 -10 490 -10 m 392 82 q 556 163 497 82 q 614 381 614 243 q 559 559 614 496 q 406 622 504 622 q 240 542 300 622 q 181 324 181 461 q 235 144 181 206 q 392 82 289 82 m 211 854 q 253 974 215 933 q 347 1014 290 1014 q 402 1002 376 1014 q 463 968 428 990 q 509 942 492 950 q 543 933 526 933 q 592 953 574 933 q 613 1010 610 974 l 675 1010 q 634 890 671 931 q 540 850 597 850 q 485 862 511 850 q 425 896 460 874 q 378 923 394 915 q 346 931 363 931 q 296 910 315 931 q 274 854 276 889 l 211 854 z "},"ṍ":{"ha":794,"x_min":67,"x_max":728,"o":"m 389 -10 q 219 32 292 -10 q 106 150 146 74 q 67 328 67 226 q 109 532 67 444 q 228 667 151 619 q 406 715 304 715 q 576 674 503 715 q 688 555 649 632 q 728 376 728 478 q 685 172 728 260 q 567 38 643 85 q 389 -10 490 -10 m 392 82 q 556 163 497 82 q 614 381 614 243 q 559 559 614 496 q 406 622 504 622 q 240 542 300 622 q 181 324 181 461 q 235 144 181 206 q 392 82 289 82 m 211 854 q 253 974 215 933 q 347 1014 290 1014 q 402 1002 376 1014 q 463 968 428 990 q 509 942 492 950 q 543 933 526 933 q 592 953 574 933 q 613 1010 610 974 l 675 1010 q 634 890 671 931 q 540 850 597 850 q 485 862 511 850 q 425 896 460 874 q 378 923 394 915 q 346 931 363 931 q 296 910 315 931 q 274 854 276 889 l 211 854 m 414 1060 l 572 1343 l 707 1343 l 492 1060 l 414 1060 z "},"ṏ":{"ha":794,"x_min":67,"x_max":728,"o":"m 389 -10 q 219 32 292 -10 q 106 150 146 74 q 67 328 67 226 q 109 532 67 444 q 228 667 151 619 q 406 715 304 715 q 576 674 503 715 q 688 555 649 632 q 728 376 728 478 q 685 172 728 260 q 567 38 643 85 q 389 -10 490 -10 m 392 82 q 556 163 497 82 q 614 381 614 243 q 559 559 614 496 q 406 622 504 622 q 240 542 300 622 q 181 324 181 461 q 235 144 181 206 q 392 82 289 82 m 211 854 q 253 974 215 933 q 347 1014 290 1014 q 402 1002 376 1014 q 463 968 428 990 q 509 942 492 950 q 543 933 526 933 q 592 953 574 933 q 613 1010 610 974 l 675 1010 q 634 890 671 931 q 540 850 597 850 q 485 862 511 850 q 425 896 460 874 q 378 923 394 915 q 346 931 363 931 q 296 910 315 931 q 274 854 276 889 l 211 854 m 411 1261 l 401 1142 l 278 1142 l 286 1261 l 411 1261 m 651 1261 l 642 1142 l 517 1142 l 526 1261 l 651 1261 z "},"ȭ":{"ha":794,"x_min":67,"x_max":728,"o":"m 389 -10 q 219 32 292 -10 q 106 150 146 74 q 67 328 67 226 q 109 532 67 444 q 228 667 151 619 q 406 715 304 715 q 576 674 503 715 q 688 555 649 632 q 728 376 728 478 q 685 172 728 260 q 567 38 643 85 q 389 -10 490 -10 m 392 82 q 556 163 497 82 q 614 381 614 243 q 559 559 614 496 q 406 622 504 622 q 240 542 300 622 q 181 324 181 461 q 235 144 181 206 q 392 82 289 82 m 211 854 q 253 974 215 933 q 347 1014 290 1014 q 402 1002 376 1014 q 463 968 428 990 q 509 942 492 950 q 543 933 526 933 q 592 953 574 933 q 613 1010 610 974 l 675 1010 q 634 890 671 931 q 540 850 597 850 q 485 862 511 850 q 425 896 460 874 q 378 923 394 915 q 346 931 363 931 q 296 910 315 931 q 274 854 276 889 l 211 854 m 257 1244 l 676 1244 l 669 1158 l 250 1158 l 257 1244 z "},"œ":{"ha":1296,"x_min":67,"x_max":1238,"o":"m 725 332 l 725 325 q 783 146 725 210 q 953 82 842 82 q 1065 102 1008 82 q 1172 163 1122 122 l 1204 81 q 1089 15 1161 40 q 949 -10 1017 -10 q 774 33 846 -10 q 664 154 701 75 q 553 33 624 76 q 386 -10 482 -10 q 218 32 290 -10 q 106 150 146 74 q 67 328 67 226 q 109 532 67 444 q 228 667 151 619 q 406 715 304 715 q 678 550 606 715 q 790 672 718 629 q 958 715 861 715 q 1162 636 1086 715 q 1238 403 1238 557 q 1233 332 1238 369 l 725 332 m 961 629 q 805 572 864 629 q 731 406 746 514 l 1139 406 q 1094 572 1143 515 q 961 629 1046 629 m 392 82 q 554 163 496 82 q 613 381 613 243 q 558 559 613 496 q 406 622 504 622 q 240 542 300 622 q 181 324 181 461 q 235 144 181 206 q 392 82 289 82 z "},"p":{"ha":833,"x_min":57,"x_max":768,"o":"m 469 715 q 626 674 558 715 q 731 556 693 633 q 768 378 768 479 q 726 174 768 263 q 610 38 685 86 q 439 -10 536 -10 q 294 26 357 -10 q 203 128 232 63 l 169 -300 l 57 -300 l 121 503 q 126 633 126 560 q 125 699 126 676 l 231 699 l 233 582 q 329 680 265 644 q 469 715 393 715 m 431 82 q 594 160 535 82 q 653 378 653 239 q 597 558 653 494 q 443 622 542 622 q 278 543 338 622 q 218 326 218 464 q 273 145 218 208 q 431 82 328 82 z "},"þ":{"ha":833,"x_min":58,"x_max":768,"o":"m 471 715 q 626 674 558 715 q 731 556 693 632 q 768 378 768 479 q 727 174 768 263 q 611 38 686 86 q 440 -10 536 -10 q 297 26 358 -10 q 204 125 235 61 l 169 -300 l 58 -300 l 163 1011 l 274 1011 l 240 594 q 337 683 275 651 q 471 715 399 715 m 432 82 q 594 160 535 82 q 654 378 654 239 q 599 558 654 494 q 443 622 543 622 q 279 543 339 622 q 219 326 219 464 q 274 145 219 208 q 432 82 329 82 z "},"q":{"ha":833,"x_min":65,"x_max":761,"o":"m 761 699 q 735 503 742 585 l 671 -300 l 560 -300 l 592 108 q 496 22 557 53 q 363 -10 435 -10 q 206 31 274 -10 q 102 149 139 72 q 65 328 65 225 q 106 531 65 443 q 222 667 147 618 q 393 715 297 715 q 542 676 479 715 q 635 567 606 638 l 656 699 l 761 699 m 390 82 q 554 162 494 82 q 614 378 614 242 q 559 560 614 497 q 404 622 504 622 q 238 544 299 622 q 178 326 178 465 q 234 147 178 211 q 390 82 290 82 z "},"r":{"ha":503,"x_min":81,"x_max":524,"o":"m 461 715 q 524 707 497 715 l 514 606 q 442 617 478 617 q 286 553 340 617 q 226 399 232 490 l 193 0 l 81 0 l 121 503 q 126 644 126 597 q 125 699 126 681 l 231 699 l 232 586 q 327 681 265 647 q 461 715 389 715 z "},"ŕ":{"ha":503,"x_min":81,"x_max":594,"o":"m 461 715 q 524 707 497 715 l 514 606 q 442 617 478 617 q 286 553 340 617 q 226 399 232 490 l 193 0 l 81 0 l 121 503 q 126 644 126 597 q 125 699 126 681 l 231 699 l 232 586 q 327 681 265 647 q 461 715 389 715 m 301 789 l 460 1072 l 594 1072 l 379 789 l 301 789 z "},"ř":{"ha":503,"x_min":81,"x_max":568,"o":"m 461 715 q 524 707 497 715 l 514 606 q 442 617 478 617 q 286 553 340 617 q 226 399 232 490 l 193 0 l 81 0 l 121 503 q 126 644 126 597 q 125 699 126 681 l 231 699 l 232 586 q 327 681 265 647 q 461 715 389 715 m 568 1072 l 381 789 l 301 789 l 158 1072 l 260 1072 l 346 871 l 461 1072 l 568 1072 z "},"ŗ":{"ha":503,"x_min":53,"x_max":524,"o":"m 461 715 q 524 707 497 715 l 514 606 q 442 617 478 617 q 286 553 340 617 q 226 399 232 490 l 193 0 l 81 0 l 121 503 q 126 644 126 597 q 125 699 126 681 l 231 699 l 232 586 q 327 681 265 647 q 461 715 389 715 m 199 -101 l 193 -182 q 168 -282 188 -239 q 107 -364 149 -325 l 58 -325 q 99 -272 86 -297 q 117 -217 113 -247 l 53 -217 l 61 -101 l 199 -101 z "},"ȑ":{"ha":503,"x_min":81,"x_max":524,"o":"m 461 715 q 524 707 497 715 l 514 606 q 442 617 478 617 q 286 553 340 617 q 226 399 232 490 l 193 0 l 81 0 l 121 503 q 126 644 126 597 q 125 699 126 681 l 231 699 l 232 586 q 327 681 265 647 q 461 715 389 715 m 140 1072 l 242 1072 l 283 789 l 226 789 l 140 1072 m 311 1072 l 411 1072 l 453 789 l 396 789 l 311 1072 z "},"ṛ":{"ha":503,"x_min":53,"x_max":524,"o":"m 461 715 q 524 707 497 715 l 514 606 q 442 617 478 617 q 286 553 340 617 q 226 399 232 490 l 193 0 l 81 0 l 121 503 q 126 644 126 597 q 125 699 126 681 l 231 699 l 232 586 q 327 681 265 647 q 461 715 389 715 m 193 -132 l 182 -256 l 53 -256 l 64 -132 l 193 -132 z "},"ȓ":{"ha":503,"x_min":81,"x_max":576,"o":"m 461 715 q 524 707 497 715 l 514 606 q 442 617 478 617 q 286 553 340 617 q 226 399 232 490 l 193 0 l 81 0 l 121 503 q 126 644 126 597 q 125 699 126 681 l 231 699 l 232 586 q 327 681 265 647 q 461 715 389 715 m 357 1036 q 494 992 435 1036 q 576 860 553 949 l 504 829 q 351 953 457 953 q 260 924 301 953 q 185 829 218 896 l 114 858 q 215 993 150 950 q 357 1036 279 1036 z "},"ṟ":{"ha":503,"x_min":-90,"x_max":524,"o":"m 461 715 q 524 707 497 715 l 514 606 q 442 617 478 617 q 286 553 340 617 q 226 399 232 490 l 193 0 l 81 0 l 121 503 q 126 644 126 597 q 125 699 126 681 l 231 699 l 232 586 q 327 681 265 647 q 461 715 389 715 m -83 -153 l 336 -153 l 329 -236 l -90 -236 l -83 -153 z "},"s":{"ha":689,"x_min":44,"x_max":628,"o":"m 325 -10 q 172 13 244 -10 q 44 81 100 36 l 89 164 q 203 99 146 119 q 326 79 260 79 q 497 186 497 79 q 456 258 497 233 q 331 306 415 282 q 212 347 257 328 q 135 406 167 367 q 103 507 103 444 q 178 658 103 601 q 378 715 253 715 q 519 691 453 715 q 628 624 586 667 l 583 542 q 378 625 488 625 q 253 596 297 625 q 210 513 210 567 q 251 441 210 465 q 376 393 292 417 q 497 351 451 371 q 574 293 542 332 q 606 192 606 254 q 529 44 606 97 q 325 -10 453 -10 z "},"ś":{"ha":689,"x_min":44,"x_max":646,"o":"m 325 -10 q 172 13 244 -10 q 44 81 100 36 l 89 164 q 203 99 146 119 q 326 79 260 79 q 497 186 497 79 q 456 258 497 233 q 331 306 415 282 q 212 347 257 328 q 135 406 167 367 q 103 507 103 444 q 178 658 103 601 q 378 715 253 715 q 519 691 453 715 q 628 624 586 667 l 583 542 q 378 625 488 625 q 253 596 297 625 q 210 513 210 567 q 251 441 210 465 q 376 393 292 417 q 497 351 451 371 q 574 293 542 332 q 606 192 606 254 q 529 44 606 97 q 325 -10 453 -10 m 353 789 l 511 1072 l 646 1072 l 431 789 l 353 789 z "},"ṥ":{"ha":689,"x_min":44,"x_max":646,"o":"m 325 -10 q 172 13 244 -10 q 44 81 100 36 l 89 164 q 203 99 146 119 q 326 79 260 79 q 497 186 497 79 q 456 258 497 233 q 331 306 415 282 q 212 347 257 328 q 135 406 167 367 q 103 507 103 444 q 178 658 103 601 q 378 715 253 715 q 519 691 453 715 q 628 624 586 667 l 583 542 q 378 625 488 625 q 253 596 297 625 q 210 513 210 567 q 251 441 210 465 q 376 393 292 417 q 497 351 451 371 q 574 293 542 332 q 606 192 606 254 q 529 44 606 97 q 325 -10 453 -10 m 353 774 l 511 1057 l 646 1057 l 431 774 l 353 774 m 335 1060 l 325 932 l 186 932 l 197 1060 l 335 1060 z "},"š":{"ha":689,"x_min":44,"x_max":628,"o":"m 325 -10 q 172 13 244 -10 q 44 81 100 36 l 89 164 q 203 99 146 119 q 326 79 260 79 q 497 186 497 79 q 456 258 497 233 q 331 306 415 282 q 212 347 257 328 q 135 406 167 367 q 103 507 103 444 q 178 658 103 601 q 378 715 253 715 q 519 691 453 715 q 628 624 586 667 l 583 542 q 378 625 488 625 q 253 596 297 625 q 210 513 210 567 q 251 441 210 465 q 376 393 292 417 q 497 351 451 371 q 574 293 542 332 q 606 192 606 254 q 529 44 606 97 q 325 -10 453 -10 m 619 1072 l 432 789 l 353 789 l 210 1072 l 311 1072 l 397 871 l 513 1072 l 619 1072 z "},"ṧ":{"ha":689,"x_min":44,"x_max":628,"o":"m 325 -10 q 172 13 244 -10 q 44 81 100 36 l 89 164 q 203 99 146 119 q 326 79 260 79 q 497 186 497 79 q 456 258 497 233 q 331 306 415 282 q 212 347 257 328 q 135 406 167 367 q 103 507 103 444 q 178 658 103 601 q 378 715 253 715 q 519 691 453 715 q 628 624 586 667 l 583 542 q 378 625 488 625 q 253 596 297 625 q 210 513 210 567 q 251 441 210 465 q 376 393 292 417 q 497 351 451 371 q 574 293 542 332 q 606 192 606 254 q 529 44 606 97 q 325 -10 453 -10 m 619 1072 l 432 789 l 353 789 l 210 1072 l 311 1072 l 397 871 l 513 1072 l 619 1072 m 497 1265 l 488 1138 l 349 1138 l 360 1265 l 497 1265 z "},"ş":{"ha":689,"x_min":44,"x_max":628,"o":"m 210 513 q 251 441 210 465 q 376 393 292 417 q 497 351 451 371 q 574 293 542 332 q 606 192 606 254 q 534 47 606 101 q 340 -10 463 -7 l 331 -60 q 358 -57 340 -57 q 434 -82 406 -57 q 463 -151 463 -107 q 419 -237 463 -204 q 299 -271 376 -271 q 233 -264 268 -271 q 172 -244 199 -257 l 193 -183 q 299 -203 247 -203 q 358 -190 336 -203 q 379 -154 379 -178 q 367 -126 379 -136 q 331 -117 354 -117 q 268 -129 300 -117 l 243 -107 l 263 -6 q 44 81 135 10 l 89 164 q 203 99 146 119 q 326 79 260 79 q 497 186 497 79 q 456 258 497 233 q 331 306 415 282 q 212 347 257 328 q 135 406 167 367 q 103 507 103 444 q 178 658 103 601 q 378 715 253 715 q 519 691 453 715 q 628 624 586 667 l 583 542 q 378 625 488 625 q 253 596 297 625 q 210 513 210 567 z "},"ŝ":{"ha":689,"x_min":44,"x_max":628,"o":"m 325 -10 q 172 13 244 -10 q 44 81 100 36 l 89 164 q 203 99 146 119 q 326 79 260 79 q 497 186 497 79 q 456 258 497 233 q 331 306 415 282 q 212 347 257 328 q 135 406 167 367 q 103 507 103 444 q 178 658 103 601 q 378 715 253 715 q 519 691 453 715 q 628 624 586 667 l 583 542 q 378 625 488 625 q 253 596 297 625 q 210 513 210 567 q 251 441 210 465 q 376 393 292 417 q 497 351 451 371 q 574 293 542 332 q 606 192 606 254 q 529 44 606 97 q 325 -10 453 -10 m 186 789 l 375 1072 l 454 1072 l 597 789 l 494 789 l 408 989 l 293 789 l 186 789 z "},"ș":{"ha":689,"x_min":44,"x_max":628,"o":"m 325 -10 q 172 13 244 -10 q 44 81 100 36 l 89 164 q 203 99 146 119 q 326 79 260 79 q 497 186 497 79 q 456 258 497 233 q 331 306 415 282 q 212 347 257 328 q 135 406 167 367 q 103 507 103 444 q 178 658 103 601 q 378 715 253 715 q 519 691 453 715 q 628 624 586 667 l 583 542 q 378 625 488 625 q 253 596 297 625 q 210 513 210 567 q 251 441 210 465 q 376 393 292 417 q 497 351 451 371 q 574 293 542 332 q 606 192 606 254 q 529 44 606 97 q 325 -10 453 -10 m 376 -101 l 371 -182 q 346 -282 365 -239 q 285 -364 326 -325 l 236 -325 q 277 -272 264 -297 q 294 -217 290 -247 l 231 -217 l 239 -101 l 376 -101 z "},"ṡ":{"ha":689,"x_min":44,"x_max":628,"o":"m 325 -10 q 172 13 244 -10 q 44 81 100 36 l 89 164 q 203 99 146 119 q 326 79 260 79 q 497 186 497 79 q 456 258 497 233 q 331 306 415 282 q 212 347 257 328 q 135 406 167 367 q 103 507 103 444 q 178 658 103 601 q 378 715 253 715 q 519 691 453 715 q 628 624 586 667 l 583 542 q 378 625 488 625 q 253 596 297 625 q 210 513 210 567 q 251 441 210 465 q 376 393 292 417 q 497 351 451 371 q 574 293 542 332 q 606 192 606 254 q 529 44 606 97 q 325 -10 453 -10 m 476 994 l 467 867 l 328 867 l 339 994 l 476 994 z "},"ṣ":{"ha":689,"x_min":44,"x_max":628,"o":"m 325 -10 q 172 13 244 -10 q 44 81 100 36 l 89 164 q 203 99 146 119 q 326 79 260 79 q 497 186 497 79 q 456 258 497 233 q 331 306 415 282 q 212 347 257 328 q 135 406 167 367 q 103 507 103 444 q 178 658 103 601 q 378 715 253 715 q 519 691 453 715 q 628 624 586 667 l 583 542 q 378 625 488 625 q 253 596 297 625 q 210 513 210 567 q 251 441 210 465 q 376 393 292 417 q 497 351 451 371 q 574 293 542 332 q 606 192 606 254 q 529 44 606 97 q 325 -10 453 -10 m 371 -132 l 360 -256 l 231 -256 l 242 -132 l 371 -132 z "},"ṩ":{"ha":689,"x_min":44,"x_max":628,"o":"m 325 -10 q 172 13 244 -10 q 44 81 100 36 l 89 164 q 203 99 146 119 q 326 79 260 79 q 497 186 497 79 q 456 258 497 233 q 331 306 415 282 q 212 347 257 328 q 135 406 167 367 q 103 507 103 444 q 178 658 103 601 q 378 715 253 715 q 519 691 453 715 q 628 624 586 667 l 583 542 q 378 625 488 625 q 253 596 297 625 q 210 513 210 567 q 251 441 210 465 q 376 393 292 417 q 497 351 451 371 q 574 293 542 332 q 606 192 606 254 q 529 44 606 97 q 325 -10 453 -10 m 371 -132 l 360 -256 l 231 -256 l 242 -132 l 371 -132 m 476 994 l 467 867 l 328 867 l 339 994 l 476 994 z "},"ß":{"ha":882,"x_min":82,"x_max":826,"o":"m 514 514 q 750 404 674 475 q 826 224 826 333 q 792 103 826 157 q 694 20 757 50 q 553 -10 632 -10 q 412 15 482 -10 q 293 81 342 39 l 338 164 q 447 101 393 121 q 558 81 500 81 q 675 118 632 81 q 718 221 718 156 q 642 360 718 304 q 390 464 565 415 l 396 550 q 583 658 522 597 q 643 800 643 718 q 485 940 643 940 q 317 882 374 940 q 250 699 260 824 l 194 0 l 82 0 l 136 686 q 485 1029 165 1029 q 679 970 608 1029 q 750 804 750 911 q 514 514 750 615 z "},"t":{"ha":486,"x_min":31,"x_max":486,"o":"m 249 228 l 247 204 q 276 113 247 139 q 360 86 306 86 q 433 99 400 86 l 426 4 q 331 -10 385 -10 q 186 40 238 -10 q 135 185 135 89 q 136 213 135 203 l 167 610 l 31 610 l 38 699 l 174 699 l 188 878 l 303 918 l 286 699 l 486 699 l 478 610 l 279 610 l 249 228 z "},"ŧ":{"ha":500,"x_min":39,"x_max":493,"o":"m 286 610 l 272 444 l 444 444 l 438 360 l 265 360 l 256 228 l 254 204 q 283 113 254 139 q 367 86 313 86 q 442 99 406 86 l 433 4 q 338 -10 392 -10 q 193 40 244 -10 q 142 185 142 89 q 143 213 142 203 l 154 360 l 46 360 l 53 444 l 161 444 l 175 610 l 39 610 l 44 699 l 182 699 l 196 878 l 310 918 l 293 699 l 493 699 l 486 610 l 286 610 z "},"ť":{"ha":486,"x_min":31,"x_max":486,"o":"m 425 751 l 363 751 l 383 992 l 485 992 l 425 751 m 249 228 l 247 204 q 276 113 247 139 q 360 86 306 86 q 433 99 400 86 l 426 4 q 331 -10 385 -10 q 186 40 238 -10 q 135 185 135 89 q 136 213 135 203 l 167 610 l 31 610 l 38 699 l 174 699 l 188 878 l 303 918 l 286 699 l 486 699 l 478 610 l 279 610 l 249 228 z "},"ţ":{"ha":486,"x_min":31,"x_max":486,"o":"m 249 228 l 247 204 q 276 113 247 139 q 360 86 306 86 q 433 99 400 86 l 426 4 q 331 -10 385 -10 l 311 -10 l 300 -60 q 328 -57 310 -57 q 403 -82 375 -57 q 432 -151 432 -107 q 389 -237 432 -204 q 268 -271 346 -271 q 203 -264 238 -271 q 142 -244 168 -257 l 163 -183 q 268 -203 217 -203 q 327 -190 306 -203 q 349 -154 349 -178 q 336 -126 349 -136 q 300 -117 324 -117 q 238 -129 269 -117 l 213 -107 l 235 8 q 161 73 188 29 q 135 183 135 117 q 136 213 135 203 l 167 610 l 31 610 l 38 699 l 174 699 l 188 878 l 303 918 l 286 699 l 486 699 l 478 610 l 279 610 l 249 228 z "},"ț":{"ha":486,"x_min":31,"x_max":486,"o":"m 249 228 l 247 204 q 276 113 247 139 q 360 86 306 86 q 433 99 400 86 l 426 4 q 331 -10 385 -10 q 186 40 238 -10 q 135 185 135 89 q 136 213 135 203 l 167 610 l 31 610 l 38 699 l 174 699 l 188 878 l 303 918 l 286 699 l 486 699 l 478 610 l 279 610 l 249 228 m 346 -101 l 340 -182 q 315 -282 335 -239 q 254 -364 296 -325 l 206 -325 q 247 -272 233 -297 q 264 -217 260 -247 l 200 -217 l 208 -101 l 346 -101 z "},"ẗ":{"ha":486,"x_min":31,"x_max":486,"o":"m 249 228 l 247 204 q 276 113 247 139 q 360 86 306 86 q 433 99 400 86 l 426 4 q 331 -10 385 -10 q 186 40 238 -10 q 135 185 135 89 q 136 213 135 203 l 167 610 l 31 610 l 38 699 l 174 699 l 188 878 l 303 918 l 286 699 l 486 699 l 478 610 l 279 610 l 249 228 m 211 1163 l 200 1043 l 76 1043 l 85 1163 l 211 1163 m 450 1163 l 442 1043 l 315 1043 l 325 1163 l 450 1163 z "},"ṭ":{"ha":486,"x_min":31,"x_max":486,"o":"m 249 228 l 247 204 q 276 113 247 139 q 360 86 306 86 q 433 99 400 86 l 426 4 q 331 -10 385 -10 q 186 40 238 -10 q 135 185 135 89 q 136 213 135 203 l 167 610 l 31 610 l 38 699 l 174 699 l 188 878 l 303 918 l 286 699 l 486 699 l 478 610 l 279 610 l 249 228 m 340 -132 l 329 -256 l 200 -256 l 211 -132 l 340 -132 z "},"ṯ":{"ha":486,"x_min":31,"x_max":486,"o":"m 249 228 l 247 204 q 276 113 247 139 q 360 86 306 86 q 433 99 400 86 l 426 4 q 331 -10 385 -10 q 186 40 238 -10 q 135 185 135 89 q 136 213 135 203 l 167 610 l 31 610 l 38 699 l 174 699 l 188 878 l 303 918 l 286 699 l 486 699 l 478 610 l 279 610 l 249 228 m 64 -153 l 483 -153 l 476 -236 l 57 -236 l 64 -153 z "},"u":{"ha":801,"x_min":97,"x_max":721,"o":"m 721 699 l 667 0 l 557 0 l 565 114 q 469 22 531 54 q 333 -10 408 -10 q 158 51 219 -10 q 97 228 97 111 q 99 268 97 254 l 132 699 l 244 699 l 210 275 q 208 246 208 265 q 361 83 208 83 q 513 142 456 83 q 578 304 569 200 l 610 699 l 721 699 z "},"ú":{"ha":801,"x_min":97,"x_max":721,"o":"m 721 699 l 667 0 l 557 0 l 565 114 q 469 22 531 54 q 333 -10 408 -10 q 158 51 219 -10 q 97 228 97 111 q 99 268 97 254 l 132 699 l 244 699 l 210 275 q 208 246 208 265 q 361 83 208 83 q 513 142 456 83 q 578 304 569 200 l 610 699 l 721 699 m 397 789 l 556 1072 l 690 1072 l 475 789 l 397 789 z "},"ŭ":{"ha":801,"x_min":97,"x_max":721,"o":"m 721 699 l 667 0 l 557 0 l 565 114 q 469 22 531 54 q 333 -10 408 -10 q 158 51 219 -10 q 97 228 97 111 q 99 268 97 254 l 132 699 l 244 699 l 210 275 q 208 246 208 265 q 361 83 208 83 q 513 142 456 83 q 578 304 569 200 l 610 699 l 721 699 m 442 831 q 305 875 364 831 q 222 1008 246 919 l 296 1039 q 447 914 343 914 q 539 942 497 914 q 615 1039 581 971 l 685 1008 q 585 874 649 917 q 442 831 521 831 z "},"û":{"ha":801,"x_min":97,"x_max":721,"o":"m 721 699 l 667 0 l 557 0 l 565 114 q 469 22 531 54 q 333 -10 408 -10 q 158 51 219 -10 q 97 228 97 111 q 99 268 97 254 l 132 699 l 244 699 l 210 275 q 208 246 208 265 q 361 83 208 83 q 513 142 456 83 q 578 304 569 200 l 610 699 l 721 699 m 231 789 l 419 1072 l 499 1072 l 642 789 l 539 789 l 453 989 l 338 789 l 231 789 z "},"ȕ":{"ha":801,"x_min":97,"x_max":721,"o":"m 721 699 l 667 0 l 557 0 l 565 114 q 469 22 531 54 q 333 -10 408 -10 q 158 51 219 -10 q 97 228 97 111 q 99 268 97 254 l 132 699 l 244 699 l 210 275 q 208 246 208 265 q 361 83 208 83 q 513 142 456 83 q 578 304 569 200 l 610 699 l 721 699 m 236 1072 l 338 1072 l 379 789 l 322 789 l 236 1072 m 407 1072 l 507 1072 l 549 789 l 492 789 l 407 1072 z "},"ü":{"ha":801,"x_min":97,"x_max":721,"o":"m 721 699 l 667 0 l 557 0 l 565 114 q 469 22 531 54 q 333 -10 408 -10 q 158 51 219 -10 q 97 228 97 111 q 99 268 97 254 l 132 699 l 244 699 l 210 275 q 208 246 208 265 q 361 83 208 83 q 513 142 456 83 q 578 304 569 200 l 610 699 l 721 699 m 394 990 l 385 871 l 261 871 l 269 990 l 394 990 m 635 990 l 625 871 l 500 871 l 510 990 l 635 990 z "},"ụ":{"ha":801,"x_min":97,"x_max":721,"o":"m 721 699 l 667 0 l 557 0 l 565 114 q 469 22 531 54 q 333 -10 408 -10 q 158 51 219 -10 q 97 228 97 111 q 99 268 97 254 l 132 699 l 244 699 l 210 275 q 208 246 208 265 q 361 83 208 83 q 513 142 456 83 q 578 304 569 200 l 610 699 l 721 699 m 429 -132 l 418 -256 l 289 -256 l 300 -132 l 429 -132 z "},"ù":{"ha":801,"x_min":97,"x_max":721,"o":"m 721 699 l 667 0 l 557 0 l 565 114 q 469 22 531 54 q 333 -10 408 -10 q 158 51 219 -10 q 97 228 97 111 q 99 268 97 254 l 132 699 l 244 699 l 210 275 q 208 246 208 265 q 361 83 208 83 q 513 142 456 83 q 578 304 569 200 l 610 699 l 721 699 m 232 1072 l 354 1072 l 475 789 l 397 789 l 232 1072 z "},"ủ":{"ha":801,"x_min":97,"x_max":721,"o":"m 721 699 l 667 0 l 557 0 l 565 114 q 469 22 531 54 q 333 -10 408 -10 q 158 51 219 -10 q 97 228 97 111 q 99 268 97 254 l 132 699 l 244 699 l 210 275 q 208 246 208 265 q 361 83 208 83 q 513 142 456 83 q 578 304 569 200 l 610 699 l 721 699 m 475 789 l 403 789 l 406 826 q 423 875 407 854 q 467 921 439 896 q 496 950 486 938 q 506 975 506 963 q 492 999 506 990 q 451 1007 478 1007 q 367 992 424 1007 l 351 1056 q 468 1078 404 1078 q 563 1052 526 1078 q 599 986 599 1026 q 582 933 599 954 q 533 886 565 911 q 492 850 506 865 q 476 813 478 835 l 475 789 z "},"ư":{"ha":821,"x_min":97,"x_max":903,"o":"m 903 883 l 900 847 q 846 705 894 760 q 717 638 797 650 l 667 0 l 557 0 l 565 114 q 469 22 531 54 q 333 -10 408 -10 q 158 51 219 -10 q 97 228 97 111 q 99 268 97 254 l 132 699 l 244 699 l 210 275 q 208 246 208 265 q 361 83 208 83 q 513 142 456 83 q 578 304 569 200 l 610 699 l 642 699 q 758 737 719 699 q 801 863 796 775 l 803 883 l 903 883 z "},"ứ":{"ha":821,"x_min":97,"x_max":903,"o":"m 903 883 l 900 847 q 846 705 894 760 q 717 638 797 650 l 667 0 l 557 0 l 565 114 q 469 22 531 54 q 333 -10 408 -10 q 158 51 219 -10 q 97 228 97 111 q 99 268 97 254 l 132 699 l 244 699 l 210 275 q 208 246 208 265 q 361 83 208 83 q 513 142 456 83 q 578 304 569 200 l 610 699 l 642 699 q 758 737 719 699 q 801 863 796 775 l 803 883 l 903 883 m 397 789 l 556 1072 l 690 1072 l 475 789 l 397 789 z "},"ự":{"ha":821,"x_min":97,"x_max":903,"o":"m 903 883 l 900 847 q 846 705 894 760 q 717 638 797 650 l 667 0 l 557 0 l 565 114 q 469 22 531 54 q 333 -10 408 -10 q 158 51 219 -10 q 97 228 97 111 q 99 268 97 254 l 132 699 l 244 699 l 210 275 q 208 246 208 265 q 361 83 208 83 q 513 142 456 83 q 578 304 569 200 l 610 699 l 642 699 q 758 737 719 699 q 801 863 796 775 l 803 883 l 903 883 m 431 -132 l 419 -256 l 290 -256 l 301 -132 l 431 -132 z "},"ừ":{"ha":821,"x_min":97,"x_max":903,"o":"m 903 883 l 900 847 q 846 705 894 760 q 717 638 797 650 l 667 0 l 557 0 l 565 114 q 469 22 531 54 q 333 -10 408 -10 q 158 51 219 -10 q 97 228 97 111 q 99 268 97 254 l 132 699 l 244 699 l 210 275 q 208 246 208 265 q 361 83 208 83 q 513 142 456 83 q 578 304 569 200 l 610 699 l 642 699 q 758 737 719 699 q 801 863 796 775 l 803 883 l 903 883 m 232 1072 l 354 1072 l 475 789 l 397 789 l 232 1072 z "},"ử":{"ha":821,"x_min":97,"x_max":903,"o":"m 903 883 l 900 847 q 846 705 894 760 q 717 638 797 650 l 667 0 l 557 0 l 565 114 q 469 22 531 54 q 333 -10 408 -10 q 158 51 219 -10 q 97 228 97 111 q 99 268 97 254 l 132 699 l 244 699 l 210 275 q 208 246 208 265 q 361 83 208 83 q 513 142 456 83 q 578 304 569 200 l 610 699 l 642 699 q 758 737 719 699 q 801 863 796 775 l 803 883 l 903 883 m 475 789 l 403 789 l 406 826 q 423 875 407 854 q 467 921 439 896 q 496 950 486 938 q 506 975 506 963 q 492 999 506 990 q 451 1007 478 1007 q 367 992 424 1007 l 351 1056 q 468 1078 404 1078 q 563 1052 526 1078 q 599 986 599 1026 q 582 933 599 954 q 533 886 565 911 q 492 850 506 865 q 476 813 478 835 l 475 789 z "},"ữ":{"ha":821,"x_min":97,"x_max":903,"o":"m 903 883 l 900 847 q 846 705 894 760 q 717 638 797 650 l 667 0 l 557 0 l 565 114 q 469 22 531 54 q 333 -10 408 -10 q 158 51 219 -10 q 97 228 97 111 q 99 268 97 254 l 132 699 l 244 699 l 210 275 q 208 246 208 265 q 361 83 208 83 q 513 142 456 83 q 578 304 569 200 l 610 699 l 642 699 q 758 737 719 699 q 801 863 796 775 l 803 883 l 903 883 m 215 854 q 257 974 219 933 q 351 1014 294 1014 q 406 1002 381 1014 q 467 968 432 990 q 513 942 496 950 q 547 933 531 933 q 596 953 578 933 q 617 1010 614 974 l 679 1010 q 638 890 675 931 q 544 850 601 850 q 490 862 515 850 q 429 896 464 874 q 383 923 399 915 q 350 931 367 931 q 300 910 319 931 q 278 854 281 889 l 215 854 z "},"ű":{"ha":801,"x_min":97,"x_max":721,"o":"m 721 699 l 667 0 l 557 0 l 565 114 q 469 22 531 54 q 333 -10 408 -10 q 158 51 219 -10 q 97 228 97 111 q 99 268 97 254 l 132 699 l 244 699 l 210 275 q 208 246 208 265 q 361 83 208 83 q 513 142 456 83 q 578 304 569 200 l 610 699 l 721 699 m 322 789 l 407 1072 l 514 1072 l 379 789 l 322 789 m 492 789 l 576 1072 l 683 1072 l 549 789 l 492 789 z "},"ȗ":{"ha":801,"x_min":97,"x_max":721,"o":"m 721 699 l 667 0 l 557 0 l 565 114 q 469 22 531 54 q 333 -10 408 -10 q 158 51 219 -10 q 97 228 97 111 q 99 268 97 254 l 132 699 l 244 699 l 210 275 q 208 246 208 265 q 361 83 208 83 q 513 142 456 83 q 578 304 569 200 l 610 699 l 721 699 m 453 1036 q 590 992 531 1036 q 672 860 649 949 l 600 829 q 447 953 553 953 q 356 924 397 953 q 281 829 314 896 l 210 858 q 310 993 246 950 q 453 1036 375 1036 z "},"ū":{"ha":801,"x_min":97,"x_max":721,"o":"m 721 699 l 667 0 l 557 0 l 565 114 q 469 22 531 54 q 333 -10 408 -10 q 158 51 219 -10 q 97 228 97 111 q 99 268 97 254 l 132 699 l 244 699 l 210 275 q 208 246 208 265 q 361 83 208 83 q 513 142 456 83 q 578 304 569 200 l 610 699 l 721 699 m 240 974 l 660 974 l 653 888 l 233 888 l 240 974 z "},"ṻ":{"ha":801,"x_min":97,"x_max":721,"o":"m 721 699 l 667 0 l 557 0 l 565 114 q 469 22 531 54 q 333 -10 408 -10 q 158 51 219 -10 q 97 228 97 111 q 99 268 97 254 l 132 699 l 244 699 l 210 275 q 208 246 208 265 q 361 83 208 83 q 513 142 456 83 q 578 304 569 200 l 610 699 l 721 699 m 240 974 l 660 974 l 653 888 l 233 888 l 240 974 m 415 1261 l 406 1142 l 282 1142 l 290 1261 l 415 1261 m 656 1261 l 646 1142 l 521 1142 l 531 1261 l 656 1261 z "},"ų":{"ha":801,"x_min":97,"x_max":721,"o":"m 607 -203 q 693 -176 646 -203 l 711 -244 q 656 -267 688 -258 q 592 -276 624 -276 q 475 -237 518 -276 q 432 -135 432 -199 q 465 -33 432 -76 q 560 35 497 11 l 565 114 q 469 22 531 54 q 333 -10 408 -10 q 158 51 219 -10 q 97 228 97 111 q 99 268 97 254 l 132 699 l 244 699 l 210 275 q 208 246 208 265 q 361 83 208 83 q 513 142 456 83 q 578 304 569 200 l 610 699 l 721 699 l 667 0 l 654 0 q 556 -33 592 0 q 521 -117 521 -67 q 542 -181 521 -158 q 607 -203 564 -203 z "}}}
